<?xml version="1.0" encoding="UTF-8" standalone="no"?>
<svg
   xmlns:dc="http://purl.org/dc/elements/1.1/"
   xmlns:cc="http://creativecommons.org/ns#"
   xmlns:rdf="http://www.w3.org/1999/02/22-rdf-syntax-ns#"
   xmlns:svg="http://www.w3.org/2000/svg"
   xmlns="http://www.w3.org/2000/svg"
   xmlns:sodipodi="http://sodipodi.sourceforge.net/DTD/sodipodi-0.dtd"
   xmlns:inkscape="http://www.inkscape.org/namespaces/inkscape"
   version="1.1"
   viewBox="0 0 431.01968 169"
   stroke-miterlimit="10"
   id="svg3915"
   sodipodi:docname="figure-1.svg"
   width="431.01968"
   height="169"
   style="fill:none;stroke:none;stroke-linecap:square;stroke-miterlimit:10"
   inkscape:version="0.92.2 (5c3e80d, 2017-08-06)">
  <metadata
     id="metadata3921">
    <rdf:RDF>
      <cc:Work
         rdf:about="">
        <dc:format>image/svg+xml</dc:format>
        <dc:type
           rdf:resource="http://purl.org/dc/dcmitype/StillImage" />
        <dc:title></dc:title>
      </cc:Work>
    </rdf:RDF>
  </metadata>
  <defs
     id="defs3919" />
  <sodipodi:namedview
     pagecolor="#ffffff"
     bordercolor="#666666"
     borderopacity="1"
     objecttolerance="10"
     gridtolerance="10"
     guidetolerance="10"
     inkscape:pageopacity="0"
     inkscape:pageshadow="2"
     inkscape:window-width="1920"
     inkscape:window-height="1016"
     id="namedview3917"
     showgrid="false"
     inkscape:pagecheckerboard="true"
     fit-margin-top="0"
     fit-margin-left="0"
     fit-margin-right="0"
     fit-margin-bottom="0"
     inkscape:zoom="0.95486111"
     inkscape:cx="63.905315"
     inkscape:cy="84.50001"
     inkscape:window-x="0"
     inkscape:window-y="27"
     inkscape:window-maximized="1"
     inkscape:current-layer="svg3915" />
  <clipPath
     id="p.0">
    <path
       d="M 0,0 H 1152 V 864 H 0 Z"
       id="path3830"
       inkscape:connector-curvature="0"
       style="clip-rule:nonzero" />
  </clipPath>
  <path
     style="fill:#000000;fill-opacity:0;fill-rule:evenodd"
     inkscape:connector-curvature="0"
     id="path3833"
     d="m -360.24014,-347.50001 h 1152 v 864 h -1152 z" />
  <path
     style="fill:#efefef;fill-rule:evenodd"
     inkscape:connector-curvature="0"
     id="path3835"
     d="m 72.5,4.50009 v 0 C 72.5,2.29089 74.29092,0.5 76.50009,0.5 h 65.00772 c 1.06088,0 2.07831,0.42145 2.82849,1.1716 0.75016,0.75015 1.17157,1.76758 1.17157,2.82849 v 15.99982 c 0,2.20919 -1.79089,4.00009 -4.00006,4.00009 H 76.50009 C 74.29092,24.5 72.5,22.7091 72.5,20.49991 Z" />
  <path
     style="fill-rule:evenodd;stroke:#999999;stroke-width:1;stroke-linecap:butt;stroke-linejoin:round"
     inkscape:connector-curvature="0"
     id="path3837"
     d="m 72.5,4.50009 v 0 C 72.5,2.29089 74.29092,0.5 76.50009,0.5 h 65.00772 c 1.06088,0 2.07831,0.42145 2.82849,1.1716 0.75016,0.75015 1.17157,1.76758 1.17157,2.82849 v 15.99982 c 0,2.20919 -1.79089,4.00009 -4.00006,4.00009 H 76.50009 C 74.29092,24.5 72.5,22.7091 72.5,20.49991 Z" />
  <path
     style="fill:#000000;fill-rule:nonzero"
     inkscape:connector-curvature="0"
     id="path3839"
     d="M 99.151,17.29999 H 97.97912 V 9.83124 q -0.42187,0.40625 -1.10937,0.8125 -0.6875,0.40625 -1.23438,0.60937 V 10.11249 Q 96.61975,9.65936 97.35412,9.00311 98.0885,8.33124 98.38537,7.72186 H 99.151 Z m 3.64685,0 v -1.32813 h 1.34375 v 1.32813 z m 3.04672,-4.70313 q 0,-1.6875 0.34375,-2.71875 0.35938,-1.03125 1.04688,-1.59375 0.6875,-0.5625 1.71875,-0.5625 0.78125,0 1.35937,0.3125 0.57813,0.29688 0.95313,0.89063 0.375,0.57812 0.59375,1.42187 0.21875,0.82813 0.21875,2.25 0,1.67188 -0.35938,2.70313 -0.34375,1.03125 -1.03125,1.59375 -0.67187,0.5625 -1.73437,0.5625 -1.375,0 -2.15625,-0.98438 -0.95313,-1.1875 -0.95313,-3.875 z m 1.20313,0 q 0,2.34375 0.54687,3.125 0.5625,0.78125 1.35938,0.78125 0.8125,0 1.35937,-0.78125 0.5625,-0.78125 0.5625,-3.125 0,-2.35937 -0.5625,-3.125 -0.54687,-0.78125 -1.35937,-0.78125 -0.8125,0 -1.29688,0.6875 -0.60937,0.875 -0.60937,3.21875 z m 6.8656,4.70313 v -1.32813 h 1.34375 v 1.32813 z m 3.04675,-4.70313 q 0,-1.6875 0.34375,-2.71875 0.35938,-1.03125 1.04688,-1.59375 0.6875,-0.5625 1.71875,-0.5625 0.78125,0 1.35937,0.3125 0.57813,0.29688 0.95313,0.89063 0.375,0.57812 0.59375,1.42187 0.21875,0.82813 0.21875,2.25 0,1.67188 -0.35938,2.70313 -0.34375,1.03125 -1.03125,1.59375 -0.67187,0.5625 -1.73437,0.5625 -1.375,0 -2.15625,-0.98438 -0.95313,-1.1875 -0.95313,-3.875 z m 1.20313,0 q 0,2.34375 0.54687,3.125 0.5625,0.78125 1.35938,0.78125 0.8125,0 1.35937,-0.78125 0.5625,-0.78125 0.5625,-3.125 0,-2.35937 -0.5625,-3.125 -0.54687,-0.78125 -1.35937,-0.78125 -0.8125,0 -1.29688,0.6875 -0.60937,0.875 -0.60937,3.21875 z" />
  <path
     style="fill:#efefef;fill-rule:evenodd"
     inkscape:connector-curvature="0"
     id="path3841"
     d="m 0.5,52.50009 v 0 C 0.5,50.29089 2.29092,48.5 4.50009,48.5 h 65.00772 c 1.06088,0 2.07831,0.42145 2.82849,1.1716 0.75016,0.75015 1.17157,1.76758 1.17157,2.82849 v 15.99982 c 0,2.20919 -1.79089,4.00009 -4.00006,4.00009 H 4.50009 C 2.29092,72.5 0.5,70.7091 0.5,68.49991 Z" />
  <path
     style="fill-rule:evenodd;stroke:#999999;stroke-width:1;stroke-linecap:butt;stroke-linejoin:round"
     inkscape:connector-curvature="0"
     id="path3843"
     d="m 0.5,52.50009 v 0 C 0.5,50.29089 2.29092,48.5 4.50009,48.5 h 65.00772 c 1.06088,0 2.07831,0.42145 2.82849,1.1716 0.75016,0.75015 1.17157,1.76758 1.17157,2.82849 v 15.99982 c 0,2.20919 -1.79089,4.00009 -4.00006,4.00009 H 4.50009 C 2.29092,72.5 0.5,70.7091 0.5,68.49991 Z" />
  <path
     style="fill:#000000;fill-rule:nonzero"
     inkscape:connector-curvature="0"
     id="path3845"
     d="m 27.151,65.29999 h -1.17188 v -7.46875 q -0.42187,0.40625 -1.10937,0.8125 -0.6875,0.40625 -1.23438,0.60937 v -1.14062 q 0.98438,-0.45313 1.71875,-1.10938 0.73438,-0.67187 1.03125,-1.28125 H 27.151 Z m 3.64685,0 v -1.32813 h 1.34375 v 1.32813 z m 7.4686,0 h -1.17188 v -7.46875 q -0.42187,0.40625 -1.10937,0.8125 -0.6875,0.40625 -1.23438,0.60937 v -1.14062 q 0.98438,-0.45313 1.71875,-1.10938 0.73438,-0.67187 1.03125,-1.28125 h 0.76563 z m 3.64685,0 v -1.32813 h 1.34375 v 1.32813 z m 3.04675,-4.70313 q 0,-1.6875 0.34375,-2.71875 0.35938,-1.03125 1.04688,-1.59375 0.6875,-0.5625 1.71875,-0.5625 0.78125,0 1.35937,0.3125 0.57813,0.29688 0.95313,0.89063 0.375,0.57812 0.59375,1.42187 0.21875,0.82813 0.21875,2.25 0,1.67188 -0.35938,2.70313 -0.34375,1.03125 -1.03125,1.59375 -0.67187,0.5625 -1.73437,0.5625 -1.375,0 -2.15625,-0.98438 -0.95313,-1.1875 -0.95313,-3.875 z m 1.20313,0 q 0,2.34375 0.54687,3.125 0.5625,0.78125 1.35938,0.78125 0.8125,0 1.35937,-0.78125 0.5625,-0.78125 0.5625,-3.125 0,-2.35937 -0.5625,-3.125 -0.54687,-0.78125 -1.35937,-0.78125 -0.8125,0 -1.29688,0.6875 -0.60937,0.875 -0.60937,3.21875 z" />
  <path
     style="fill:#efefef;fill-rule:evenodd"
     inkscape:connector-curvature="0"
     id="path3847"
     d="m 0.5,100.50009 v 0 C 0.5,98.29089 2.29092,96.5 4.50009,96.5 h 65.00772 c 1.06088,0 2.07831,0.42145 2.82849,1.1716 0.75016,0.75015 1.17157,1.76758 1.17157,2.82849 v 15.99982 c 0,2.20919 -1.79089,4.00009 -4.00006,4.00009 H 4.50009 C 2.29092,120.5 0.5,118.7091 0.5,116.49991 Z" />
  <path
     style="fill-rule:evenodd;stroke:#999999;stroke-width:1;stroke-linecap:butt;stroke-linejoin:round"
     inkscape:connector-curvature="0"
     id="path3849"
     d="m 0.5,100.50009 v 0 C 0.5,98.29089 2.29092,96.5 4.50009,96.5 h 65.00772 c 1.06088,0 2.07831,0.42145 2.82849,1.1716 0.75016,0.75015 1.17157,1.76758 1.17157,2.82849 v 15.99982 c 0,2.20919 -1.79089,4.00009 -4.00006,4.00009 H 4.50009 C 2.29092,120.5 0.5,118.7091 0.5,116.49991 Z" />
  <path
     style="fill:#000000;fill-rule:nonzero"
     inkscape:connector-curvature="0"
     id="path3851"
     d="m 27.151,113.29999 h -1.17188 v -7.46875 q -0.42187,0.40625 -1.10937,0.8125 -0.6875,0.40625 -1.23438,0.60937 v -1.14062 q 0.98438,-0.45313 1.71875,-1.10938 0.73438,-0.67187 1.03125,-1.28125 H 27.151 Z m 3.64685,0 v -1.32813 h 1.34375 v 1.32813 z m 9.20297,-1.125 v 1.125 h -6.29687 q -0.0156,-0.42188 0.14062,-0.8125 0.23438,-0.64063 0.76563,-1.26563 0.53125,-0.625 1.53125,-1.45312 1.5625,-1.26563 2.10937,-2.01563 0.54688,-0.75 0.54688,-1.40625 0,-0.70312 -0.5,-1.17187 -0.5,-0.48438 -1.29688,-0.48438 -0.85937,0 -1.375,0.51563 -0.5,0.5 -0.5,1.39062 l -1.20312,-0.10937 q 0.125,-1.35938 0.92187,-2.0625 0.8125,-0.70313 2.17188,-0.70313 1.375,0 2.17187,0.76563 0.8125,0.75 0.8125,1.875 0,0.57812 -0.23437,1.14062 -0.23438,0.54688 -0.78125,1.15625 -0.54688,0.60938 -1.8125,1.67188 -1.04688,0.89062 -1.35938,1.21875 -0.29687,0.3125 -0.48437,0.625 z m 1.91248,1.125 v -1.32813 h 1.34375 v 1.32813 z m 3.04675,-4.70313 q 0,-1.6875 0.34375,-2.71875 0.35938,-1.03125 1.04688,-1.59375 0.6875,-0.5625 1.71875,-0.5625 0.78125,0 1.35937,0.3125 0.57813,0.29688 0.95313,0.89063 0.375,0.57812 0.59375,1.42187 0.21875,0.82813 0.21875,2.25 0,1.67188 -0.35938,2.70313 -0.34375,1.03125 -1.03125,1.59375 -0.67187,0.5625 -1.73437,0.5625 -1.375,0 -2.15625,-0.98438 -0.95313,-1.1875 -0.95313,-3.875 z m 1.20313,0 q 0,2.34375 0.54687,3.125 0.5625,0.78125 1.35938,0.78125 0.8125,0 1.35937,-0.78125 0.5625,-0.78125 0.5625,-3.125 0,-2.35937 -0.5625,-3.125 -0.54687,-0.78125 -1.35937,-0.78125 -0.8125,0 -1.29688,0.6875 -0.60937,0.875 -0.60937,3.21875 z" />
  <path
     style="fill:#efefef;fill-rule:evenodd"
     inkscape:connector-curvature="0"
     id="path3853"
     d="m 72.5,148.50009 v 0 c 0,-2.2092 1.79092,-4.00009 4.00009,-4.00009 h 65.00772 c 1.06088,0 2.07831,0.42145 2.82849,1.1716 0.75016,0.75015 1.17157,1.76758 1.17157,2.82849 v 15.99982 c 0,2.20919 -1.79089,4.00009 -4.00006,4.00009 H 76.50009 C 74.29092,168.5 72.5,166.7091 72.5,164.49991 Z" />
  <path
     style="fill-rule:evenodd;stroke:#999999;stroke-width:1;stroke-linecap:butt;stroke-linejoin:round"
     inkscape:connector-curvature="0"
     id="path3855"
     d="m 72.5,148.50009 v 0 c 0,-2.2092 1.79092,-4.00009 4.00009,-4.00009 h 65.00772 c 1.06088,0 2.07831,0.42145 2.82849,1.1716 0.75016,0.75015 1.17157,1.76758 1.17157,2.82849 v 15.99982 c 0,2.20919 -1.79089,4.00009 -4.00006,4.00009 H 76.50009 C 74.29092,168.5 72.5,166.7091 72.5,164.49991 Z" />
  <path
     style="fill:#000000;fill-rule:nonzero"
     inkscape:connector-curvature="0"
     id="path3857"
     d="m 99.151,161.29999 h -1.17188 v -7.46875 q -0.42187,0.40625 -1.10937,0.8125 -0.6875,0.40625 -1.23438,0.60937 v -1.14062 q 0.98438,-0.45313 1.71875,-1.10938 0.73438,-0.67187 1.03125,-1.28125 H 99.151 Z m 3.64685,0 v -1.32813 h 1.34375 v 1.32813 z m 3.06235,-2.51563 1.17187,-0.15625 q 0.20313,1 0.6875,1.4375 0.48438,0.4375 1.17188,0.4375 0.82812,0 1.39062,-0.57812 0.57813,-0.57813 0.57813,-1.42188 0,-0.79687 -0.53125,-1.3125 -0.51563,-0.53125 -1.32813,-0.53125 -0.34375,0 -0.82812,0.125 l 0.125,-1.03125 q 0.125,0.0156 0.1875,0.0156 0.75,0 1.34375,-0.39063 0.60937,-0.39062 0.60937,-1.20312 0,-0.64063 -0.4375,-1.0625 -0.4375,-0.42188 -1.125,-0.42188 -0.6875,0 -1.14062,0.4375 -0.45313,0.42188 -0.59375,1.28125 l -1.17188,-0.21875 q 0.21875,-1.17187 0.98438,-1.8125 0.76562,-0.65625 1.89062,-0.65625 0.78125,0 1.4375,0.34375 0.65625,0.32813 1,0.90625 0.35938,0.57813 0.35938,1.23438 0,0.60937 -0.34375,1.125 -0.32813,0.5 -0.96875,0.79687 0.84375,0.20313 1.3125,0.82813 0.46875,0.60937 0.46875,1.53125 0,1.25 -0.92188,2.125 -0.90625,0.85937 -2.29687,0.85937 -1.25,0 -2.09375,-0.75 -0.82813,-0.75 -0.9375,-1.9375 z m 8.0531,2.51563 v -1.32813 h 1.34375 v 1.32813 z m 3.04675,-4.70313 q 0,-1.6875 0.34375,-2.71875 0.35938,-1.03125 1.04688,-1.59375 0.6875,-0.5625 1.71875,-0.5625 0.78125,0 1.35937,0.3125 0.57813,0.29688 0.95313,0.89063 0.375,0.57812 0.59375,1.42187 0.21875,0.82813 0.21875,2.25 0,1.67188 -0.35938,2.70313 -0.34375,1.03125 -1.03125,1.59375 -0.67187,0.5625 -1.73437,0.5625 -1.375,0 -2.15625,-0.98438 -0.95313,-1.1875 -0.95313,-3.875 z m 1.20313,0 q 0,2.34375 0.54687,3.125 0.5625,0.78125 1.35938,0.78125 0.8125,0 1.35937,-0.78125 0.5625,-0.78125 0.5625,-3.125 0,-2.35937 -0.5625,-3.125 -0.54687,-0.78125 -1.35937,-0.78125 -0.8125,0 -1.29688,0.6875 -0.60937,0.875 -0.60937,3.21875 z" />
  <path
     style="fill:#000000;fill-opacity:0;fill-rule:evenodd"
     inkscape:connector-curvature="0"
     id="path3859"
     d="m 109.00394,24.49999 c 0,6 -18,9 -36,12 -18,3 -36,6 -36,12" />
  <path
     style="fill-rule:evenodd;stroke:#000000;stroke-width:1;stroke-linecap:butt;stroke-linejoin:round"
     inkscape:connector-curvature="0"
     id="path3861"
     d="m 109.00394,24.49999 c 0,6 -18,9 -36,12 -9,1.5 -18,3 -24.75,4.875 -1.6875,0.46875 -3.23438,0.96097 -4.60547,1.48239 -0.68552,0.26077 -1.32715,0.52884 -1.92038,0.80496 -0.14834,0.069 -0.29361,0.13858 -0.43582,0.20862 l -0.2959,0.15012" />
  <path
     style="fill:#000000;fill-rule:evenodd;stroke:#000000;stroke-width:1;stroke-linecap:butt"
     inkscape:connector-curvature="0"
     id="path3863"
     d="m 39.76336,42.92202 -1.78665,4.48669 4.25265,-2.28857 z" />
  <path
     style="fill:#000000;fill-opacity:0;fill-rule:evenodd"
     inkscape:connector-curvature="0"
     id="path3865"
     d="m 37.00394,72.49999 c 0,6 0.0158,9 0.0315,12 0.0158,3 0.0315,6 0.0315,12" />
  <path
     style="fill-rule:evenodd;stroke:#000000;stroke-width:1;stroke-linecap:butt;stroke-linejoin:round"
     inkscape:connector-curvature="0"
     id="path3867"
     d="m 37.00394,72.49999 c 0,6 0.0158,9 0.0315,12 0.008,1.5 0.0158,3 0.0216,4.875 l 0.003,1.125" />
  <path
     style="fill:#000000;fill-rule:evenodd;stroke:#000000;stroke-width:1;stroke-linecap:butt"
     inkscape:connector-curvature="0"
     id="path3869"
     d="m 35.40793,90.50199 1.65723,4.53607 1.64624,-4.5401 z" />
  <path
     style="fill:#000000;fill-opacity:0;fill-rule:evenodd"
     inkscape:connector-curvature="0"
     id="path3871"
     d="m 37.00394,120.49999 c 0,6 18,9 36,12 18,3 36,6 36,12" />
  <path
     style="fill-rule:evenodd;stroke:#000000;stroke-width:1;stroke-linecap:butt;stroke-linejoin:round"
     inkscape:connector-curvature="0"
     id="path3873"
     d="m 37.00394,120.49999 c 0,6 18,9 36,12 9,1.5 18,3 24.75,4.875 1.6875,0.46875 3.23437,0.96097 4.6055,1.48239 0.68552,0.26077 1.32715,0.52884 1.92038,0.80496 0.14834,0.069 0.29361,0.13858 0.43582,0.20862 l 0.2959,0.15012" />
  <path
     style="fill:#000000;fill-rule:evenodd;stroke:#000000;stroke-width:1;stroke-linecap:butt"
     inkscape:connector-curvature="0"
     id="path3875"
     d="m 103.77854,141.12014 4.25266,2.28857 -1.78666,-4.48669 z" />
  <path
     style="fill:#000000;fill-opacity:0;fill-rule:evenodd"
     inkscape:connector-curvature="0"
     id="path3877"
     d="m 109.00394,24.49999 c 0,30 0.0158,45 0.0315,60 0.0158,15 0.0315,30 0.0315,60" />
  <path
     style="fill-rule:evenodd;stroke:#000000;stroke-width:1;stroke-linecap:butt;stroke-linejoin:round"
     inkscape:connector-curvature="0"
     id="path3879"
     d="m 109.00394,24.49999 c 0,30 0.0158,45 0.0315,60 0.008,7.5 0.0158,15 0.0216,24.375 0.003,4.6875 0.005,9.84375 0.007,15.70312 l 0.002,13.92188" />
  <path
     style="fill:#000000;fill-rule:evenodd;stroke:#000000;stroke-width:1;stroke-linecap:butt"
     inkscape:connector-curvature="0"
     id="path3881"
     d="m 107.4144,138.50019 1.65234,4.53787 1.65113,-4.5383 z" />
  <path
     style="fill:#000000;fill-opacity:0;fill-rule:evenodd"
     inkscape:connector-curvature="0"
     id="path3883"
     d="m 14.5,45.49212 44,30.01575" />
  <path
     style="fill-rule:evenodd;stroke:#980000;stroke-width:3;stroke-linecap:butt;stroke-linejoin:round"
     inkscape:connector-curvature="0"
     id="path3885"
     d="m 14.5,45.49212 44,30.01575" />
  <path
     style="fill:#000000;fill-opacity:0;fill-rule:evenodd"
     inkscape:connector-curvature="0"
     id="path3887"
     d="m 181.00396,68.49999 h 49.00787" />
  <path
     style="fill-rule:evenodd;stroke:#000000;stroke-width:1;stroke-linecap:butt;stroke-linejoin:round"
     inkscape:connector-curvature="0"
     id="path3889"
     d="m 184.79392,68.49999 h 39.2179" />
  <path
     style="fill-rule:nonzero;stroke:#000000;stroke-width:1;stroke-linecap:butt"
     inkscape:connector-curvature="0"
     id="path3891"
     d="m 181.50396,68.49999 c 0,-0.90851 0.73651,-1.64499 1.64502,-1.64499 0.90851,0 1.64502,0.73648 1.64502,1.64499 0,0.90851 -0.73651,1.64499 -1.64502,1.64499 -0.90851,0 -1.64502,-0.73648 -1.64502,-1.64499 z" />
  <path
     style="fill-rule:evenodd;stroke:#000000;stroke-width:1;stroke-linecap:butt"
     inkscape:connector-curvature="0"
     id="path3893"
     d="m 224.01181,70.15172 4.53809,-1.65173 -4.53809,-1.65174 z" />
  <path
     style="fill:#000000;fill-opacity:0;fill-rule:evenodd"
     inkscape:connector-curvature="0"
     id="path3895"
     d="m 181.00396,100.49999 h 49.00787" />
  <path
     style="fill-rule:evenodd;stroke:#000000;stroke-width:1;stroke-linecap:butt;stroke-linejoin:round"
     inkscape:connector-curvature="0"
     id="path3897"
     d="m 181.00396,100.49999 h 43.00787" />
  <path
     style="fill:#000000;fill-rule:evenodd;stroke:#000000;stroke-width:1;stroke-linecap:butt"
     inkscape:connector-curvature="0"
     id="path3899"
     d="m 224.01181,102.15172 4.53809,-1.65173 -4.53809,-1.65174 z" />
  <path
     style="fill:#000000;fill-opacity:0;fill-rule:evenodd"
     inkscape:connector-curvature="0"
     id="path3901"
     d="m 230.01181,88.49999 h 201.00787 v 24 H 230.01181 Z" />
  <path
     style="fill:#000000;fill-rule:nonzero"
     inkscape:connector-curvature="0"
     id="path3903"
     d="m 239.98056,108.48623 v -10.5 h 1.17187 v 0.98437 q 0.42188,-0.57812 0.9375,-0.85937 0.51563,-0.29688 1.26563,-0.29688 0.96875,0 1.71875,0.5 0.75,0.5 1.125,1.42188 0.375,0.90625 0.375,1.98437 0,1.17188 -0.42188,2.10938 -0.40625,0.92187 -1.21875,1.42187 -0.79687,0.5 -1.67187,0.5 -0.64063,0 -1.15625,-0.26562 -0.51563,-0.28125 -0.84375,-0.6875 v 3.6875 z m 1.15625,-6.65625 q 0,1.45312 0.59375,2.15625 0.60937,0.70312 1.45312,0.70312 0.85938,0 1.46875,-0.71875 0.60938,-0.73437 0.60938,-2.25 0,-1.45312 -0.60938,-2.17187 -0.59375,-0.73438 -1.42187,-0.73438 -0.8125,0 -1.45313,0.78125 -0.64062,0.76563 -0.64062,2.23438 z m 11.948,2.8125 q -0.71875,0.60937 -1.375,0.85937 -0.65625,0.25 -1.42188,0.25 -1.25,0 -1.92187,-0.60937 -0.67188,-0.60938 -0.67188,-1.5625 0,-0.5625 0.25,-1.01563 0.25,-0.46875 0.65625,-0.75 0.42188,-0.28125 0.9375,-0.42187 0.375,-0.0937 1.14063,-0.1875 1.5625,-0.1875 2.29687,-0.45313 0.0156,-0.26562 0.0156,-0.32812 0,-0.79688 -0.375,-1.10938 -0.48438,-0.4375 -1.45313,-0.4375 -0.92187,0 -1.35937,0.32813 -0.42188,0.3125 -0.625,1.10937 l -1.26563,-0.17187 q 0.17188,-0.79688 0.5625,-1.29688 0.39063,-0.5 1.14063,-0.76562 0.75,-0.26563 1.71875,-0.26563 0.98437,0 1.59375,0.23438 0.60937,0.21875 0.89062,0.5625 0.28125,0.34375 0.40625,0.875 0.0625,0.32812 0.0625,1.1875 v 1.71875 q 0,1.79687 0.0781,2.28125 0.0781,0.46875 0.32812,0.90625 h -1.34375 q -0.20312,-0.40625 -0.26562,-0.9375 z m -0.10938,-2.875 q -0.70312,0.28125 -2.09375,0.48437 -0.79687,0.10938 -1.125,0.26563 -0.32812,0.14062 -0.51562,0.42187 -0.17188,0.26563 -0.17188,0.59375 0,0.51563 0.39063,0.85938 0.39062,0.34375 1.14062,0.34375 0.73438,0 1.3125,-0.3125 0.59375,-0.32813 0.85938,-0.89063 0.20312,-0.4375 0.20312,-1.29687 z m 6.11988,2.65625 0.1875,1.14062 q -0.54688,0.10938 -0.98438,0.10938 -0.6875,0 -1.07812,-0.21875 -0.39063,-0.21875 -0.54688,-0.57813 -0.15625,-0.35937 -0.15625,-1.51562 v -4.375 h -0.95312 v -1 h 0.95312 V 96.0956 l 1.28125,-0.76562 v 2.65625 h 1.29688 v 1 h -1.29688 v 4.4375 q 0,0.54687 0.0625,0.71875 0.0781,0.15625 0.21875,0.25 0.15625,0.0781 0.45313,0.0781 0.20312,0 0.5625,-0.0469 z m 1.25946,1.15625 V 95.0956 h 1.28125 v 3.75 q 0.90625,-1.03125 2.28125,-1.03125 0.84375,0 1.46875,0.32813 0.625,0.32812 0.89062,0.92187 0.26563,0.57813 0.26563,1.70313 v 4.8125 h -1.28125 v -4.8125 q 0,-0.96875 -0.42188,-1.40625 -0.42187,-0.4375 -1.1875,-0.4375 -0.57812,0 -1.07812,0.29687 -0.5,0.29688 -0.71875,0.8125 -0.21875,0.5 -0.21875,1.39063 v 4.15625 z m 17.14495,0 v -0.95313 q -0.71875,1.125 -2.125,1.125 -0.90625,0 -1.67187,-0.5 -0.75,-0.5 -1.17188,-1.39062 -0.42187,-0.90625 -0.42187,-2.07813 0,-1.14062 0.375,-2.0625 0.39062,-0.92187 1.14062,-1.40625 0.76563,-0.5 1.70313,-0.5 0.6875,0 1.21875,0.29688 0.53125,0.28125 0.875,0.73437 v -3.75 h 1.28125 v 10.48438 z m -4.0625,-3.79688 q 0,1.46875 0.60938,2.1875 0.625,0.71875 1.45312,0.71875 0.84375,0 1.4375,-0.6875 0.59375,-0.6875 0.59375,-2.10937 0,-1.5625 -0.60937,-2.28125 -0.59375,-0.73438 -1.48438,-0.73438 -0.84375,0 -1.42187,0.70313 -0.57813,0.70312 -0.57813,2.20312 z m 12.49488,1.34375 1.32812,0.17188 q -0.3125,1.17187 -1.17187,1.8125 -0.84375,0.64062 -2.17188,0.64062 -1.67187,0 -2.65625,-1.01562 -0.96875,-1.03125 -0.96875,-2.89063 0,-1.92187 0.98438,-2.96875 1,-1.0625 2.57812,-1.0625 1.51563,0 2.48438,1.03125 0.96875,1.03125 0.96875,2.92188 0,0.10937 -0.0156,0.34375 h -5.65625 q 0.0625,1.25 0.70313,1.92187 0.64062,0.65625 1.59375,0.65625 0.70312,0 1.20312,-0.35937 0.5,-0.375 0.79688,-1.20313 z m -4.23438,-2.07812 h 4.25 q -0.0937,-0.95313 -0.48437,-1.4375 -0.625,-0.75 -1.60938,-0.75 -0.875,0 -1.48437,0.59375 -0.60938,0.59375 -0.67188,1.59375 z m 7.49488,4.53125 v -6.59375 h -1.14063 v -1 h 1.14063 v -0.8125 q 0,-0.76563 0.125,-1.14063 0.1875,-0.5 0.65625,-0.8125 0.46875,-0.3125 1.3125,-0.3125 0.54687,0 1.20312,0.125 l -0.1875,1.125 q -0.40625,-0.0625 -0.76562,-0.0625 -0.57813,0 -0.82813,0.25 -0.23437,0.25 -0.23437,0.9375 v 0.70313 h 1.46875 v 1 h -1.46875 v 6.59375 z m 3.75946,-9.01563 V 95.0956 h 1.29687 v 1.46875 z m 0,9.01563 v -7.59375 h 1.29687 v 7.59375 z m 3.25616,0 v -7.59375 h 1.15625 v 1.07812 q 0.84375,-1.25 2.42188,-1.25 0.6875,0 1.26562,0.25 0.57813,0.23438 0.85938,0.64063 0.28125,0.40625 0.40625,0.95312 0.0625,0.35938 0.0625,1.25 v 4.67188 h -1.28125 v -4.625 q 0,-0.78125 -0.15625,-1.17188 -0.15625,-0.39062 -0.54688,-0.625 -0.375,-0.23437 -0.89062,-0.23437 -0.8125,0 -1.42188,0.53125 -0.59375,0.51562 -0.59375,1.96875 v 4.15625 z m 13.35419,-2.45313 1.32812,0.17188 q -0.3125,1.17187 -1.17187,1.8125 -0.84375,0.64062 -2.17188,0.64062 -1.67187,0 -2.65625,-1.01562 -0.96875,-1.03125 -0.96875,-2.89063 0,-1.92187 0.98438,-2.96875 1,-1.0625 2.57812,-1.0625 1.51563,0 2.48438,1.03125 0.96875,1.03125 0.96875,2.92188 0,0.10937 -0.0156,0.34375 h -5.65625 q 0.0625,1.25 0.70313,1.92187 0.64062,0.65625 1.59375,0.65625 0.70312,0 1.20312,-0.35937 0.5,-0.375 0.79688,-1.20313 z m -4.23438,-2.07812 h 4.25 q -0.0937,-0.95313 -0.48437,-1.4375 -0.625,-0.75 -1.60938,-0.75 -0.875,0 -1.48437,0.59375 -0.60938,0.59375 -0.67188,1.59375 z m 12.10425,4.53125 v -0.95313 q -0.71875,1.125 -2.125,1.125 -0.90625,0 -1.67187,-0.5 -0.75,-0.5 -1.17188,-1.39062 -0.42187,-0.90625 -0.42187,-2.07813 0,-1.14062 0.375,-2.0625 0.39062,-0.92187 1.14062,-1.40625 0.76563,-0.5 1.70313,-0.5 0.6875,0 1.21875,0.29688 0.53125,0.28125 0.875,0.73437 v -3.75 h 1.28125 v 10.48438 z m -4.0625,-3.79688 q 0,1.46875 0.60938,2.1875 0.625,0.71875 1.45312,0.71875 0.84375,0 1.4375,-0.6875 0.59375,-0.6875 0.59375,-2.10937 0,-1.5625 -0.60937,-2.28125 -0.59375,-0.73438 -1.48438,-0.73438 -0.84375,0 -1.42187,0.70313 -0.57813,0.70312 -0.57813,2.20312 z m 12.55121,3.79688 h -1.20313 V 95.0956 h 1.29688 v 3.73438 q 0.8125,-1.01563 2.07812,-1.01563 0.70313,0 1.32813,0.28125 0.625,0.28125 1.03125,0.79688 0.40625,0.5 0.625,1.23437 0.23437,0.71875 0.23437,1.53125 0,1.96875 -0.96875,3.03125 -0.95312,1.0625 -2.3125,1.0625 -1.34375,0 -2.10937,-1.125 z m -0.0156,-3.85938 q 0,1.375 0.375,1.98438 0.60938,0.98437 1.64063,0.98437 0.84375,0 1.45312,-0.73437 0.625,-0.73438 0.625,-2.1875 0,-1.48438 -0.59375,-2.1875 -0.59375,-0.71875 -1.42187,-0.71875 -0.84375,0 -1.46875,0.73437 -0.60938,0.73438 -0.60938,2.125 z m 6.91675,6.78125 -0.14062,-1.20312 q 0.42187,0.10937 0.73437,0.10937 0.4375,0 0.6875,-0.14062 0.26563,-0.14063 0.42188,-0.40625 0.125,-0.1875 0.39062,-0.95313 0.0469,-0.10937 0.125,-0.3125 l -2.89062,-7.60937 h 1.39062 l 1.57813,4.39062 q 0.3125,0.84375 0.54687,1.76563 0.23438,-0.89063 0.53125,-1.73438 l 1.625,-4.42187 h 1.29688 l -2.89063,7.71875 q -0.46875,1.25 -0.73437,1.73437 -0.34375,0.625 -0.78125,0.92188 -0.4375,0.29687 -1.0625,0.29687 -0.375,0 -0.82813,-0.15625 z" />
  <path
     style="fill:#000000;fill-rule:nonzero"
     inkscape:connector-curvature="0"
     id="path3905"
     d="m 343.1597,108.48623 2.20313,-10.5 h 1.1875 l -0.21875,1.04687 q 0.67187,-0.6875 1.1875,-0.95312 0.53125,-0.26563 1.125,-0.26563 1.07812,0 1.79687,0.79688 0.71875,0.78125 0.71875,2.25 0,1.1875 -0.39062,2.17187 -0.39063,0.96875 -0.96875,1.5625 -0.57813,0.59375 -1.17188,0.875 -0.57812,0.28125 -1.1875,0.28125 -1.375,0 -2.125,-1.39062 l -0.85937,4.125 z m 2.5625,-6.01563 q 0,0.85938 0.125,1.1875 0.1875,0.46875 0.59375,0.75 0.40625,0.28125 0.9375,0.28125 1.125,0 1.8125,-1.25 0.6875,-1.26562 0.6875,-2.5625 0,-0.96875 -0.46875,-1.5 -0.46875,-0.53125 -1.15625,-0.53125 -0.48437,0 -0.90625,0.26563 -0.42187,0.26562 -0.78125,0.78125 -0.35937,0.51562 -0.60937,1.26562 -0.23438,0.75 -0.23438,1.3125 z m 6.22925,3.10938 1.59375,-7.59375 h 1.14062 l -0.32812,1.54687 q 0.59375,-0.875 1.15625,-1.29687 0.5625,-0.42188 1.15625,-0.42188 0.375,0 0.9375,0.26563 l -0.51563,1.20312 q -0.34375,-0.23437 -0.75,-0.23437 -0.67187,0 -1.39062,0.76562 -0.71875,0.75 -1.125,2.71875 l -0.64063,3.04688 z m 10.45874,-2.57813 1.26562,0.125 q -0.26562,0.9375 -1.25,1.78125 -0.96875,0.84375 -2.32812,0.84375 -0.84375,0 -1.54688,-0.39062 -0.70312,-0.39063 -1.07812,-1.125 -0.35938,-0.75 -0.35938,-1.70313 0,-1.25 0.5625,-2.42187 0.57813,-1.17188 1.5,-1.73438 0.92188,-0.5625 1.98438,-0.5625 1.35937,0 2.17187,0.84375 0.8125,0.84375 0.8125,2.29688 0,0.5625 -0.10937,1.14062 h -5.59375 q -0.0312,0.23438 -0.0312,0.40625 0,1.0625 0.48437,1.625 0.5,0.5625 1.20313,0.5625 0.67187,0 1.3125,-0.4375 0.64062,-0.4375 1,-1.25 z m -3.76563,-1.89062 h 4.26563 q 0.0156,-0.20313 0.0156,-0.28125 0,-0.96875 -0.48437,-1.48438 -0.48438,-0.53125 -1.25,-0.53125 -0.84375,0 -1.53125,0.57813 -0.67188,0.5625 -1.01563,1.71875 z m 8.2605,4.46875 -1.25,-7.59375 h 1.26563 l 0.64062,4.1875 q 0.10938,0.67187 0.26563,2.23437 0.375,-0.8125 0.95312,-1.85937 l 2.54688,-4.5625 h 1.35937 l -4.34375,7.59375 z m 7.25,-9.03125 0.3125,-1.45313 h 1.28125 l -0.3125,1.45313 z m -1.89062,9.03125 1.59375,-7.59375 h 1.29687 l -1.59375,7.59375 z m 3.53741,-2.89063 q 0,-2.21875 1.3125,-3.67187 1.07813,-1.20313 2.82813,-1.20313 1.375,0 2.21875,0.85938 0.84375,0.85937 0.84375,2.3125 0,1.3125 -0.53125,2.4375 -0.53125,1.125 -1.51563,1.73437 -0.96875,0.59375 -2.04687,0.59375 -0.89063,0 -1.625,-0.375 -0.71875,-0.39062 -1.10938,-1.07812 -0.375,-0.6875 -0.375,-1.60938 z m 1.29688,-0.125 q 0,1.07813 0.51562,1.64063 0.51563,0.54687 1.29688,0.54687 0.42187,0 0.82812,-0.17187 0.40625,-0.17188 0.75,-0.51563 0.35938,-0.34375 0.60938,-0.78125 0.25,-0.4375 0.39062,-0.9375 0.23438,-0.71875 0.23438,-1.35937 0,-1.03125 -0.53125,-1.59375 -0.51563,-0.57813 -1.29688,-0.57813 -0.60937,0 -1.10937,0.29688 -0.5,0.28125 -0.90625,0.84375 -0.40625,0.54687 -0.59375,1.29687 -0.1875,0.73438 -0.1875,1.3125 z m 11.80737,1.64063 q -1.35938,1.54687 -2.79688,1.54687 -0.875,0 -1.42187,-0.5 -0.53125,-0.51562 -0.53125,-1.23437 0,-0.48438 0.23437,-1.65625 l 0.92188,-4.375 h 1.29687 l -1.01562,4.85937 q -0.14063,0.60938 -0.14063,0.9375 0,0.4375 0.26563,0.67188 0.26562,0.23437 0.76562,0.23437 0.54688,0 1.0625,-0.26562 0.53125,-0.26563 0.90625,-0.70313 0.375,-0.45312 0.60938,-1.07812 0.15625,-0.39063 0.35937,-1.375 l 0.6875,-3.28125 h 1.29688 l -1.59375,7.59375 h -1.1875 z m 3.08856,-1.21875 1.29688,-0.0781 q 0,0.54688 0.17187,0.95313 0.17188,0.39062 0.625,0.64062 0.46875,0.25 1.07813,0.25 0.85937,0 1.28125,-0.34375 0.4375,-0.34375 0.4375,-0.8125 0,-0.32812 -0.25,-0.64062 -0.26563,-0.29688 -1.29688,-0.73438 -1.03125,-0.4375 -1.3125,-0.625 -0.48437,-0.28125 -0.73437,-0.67187 -0.23438,-0.40625 -0.23438,-0.92188 0,-0.90625 0.71875,-1.54687 0.71875,-0.64063 2,-0.64063 1.4375,0 2.1875,0.65625 0.75,0.65625 0.76563,1.73438 l -1.26563,0.0937 q -0.0312,-0.6875 -0.48437,-1.07813 -0.45313,-0.40625 -1.29688,-0.40625 -0.67187,0 -1.04687,0.3125 -0.35938,0.29688 -0.35938,0.65625 0,0.35938 0.3125,0.625 0.21875,0.1875 1.10938,0.57813 1.48437,0.64062 1.875,1.01562 0.625,0.59375 0.625,1.45313 0,0.5625 -0.35938,1.10937 -0.34375,0.53125 -1.0625,0.85938 -0.70312,0.32812 -1.67187,0.32812 -1.3125,0 -2.23438,-0.65625 -0.92187,-0.64062 -0.875,-2.10937 z" />
  <path
     style="fill:#000000;fill-opacity:0;fill-rule:evenodd"
     inkscape:connector-curvature="0"
     id="path3907"
     d="m 230.01181,56.49999 h 201.00787 v 24 H 230.01181 Z" />
  <path
     style="fill:#000000;fill-rule:nonzero"
     inkscape:connector-curvature="0"
     id="path3909"
     d="m 239.98056,76.48623 v -10.5 h 1.17187 v 0.98437 q 0.42188,-0.57812 0.9375,-0.85937 0.51563,-0.29688 1.26563,-0.29688 0.96875,0 1.71875,0.5 0.75,0.5 1.125,1.42188 0.375,0.90625 0.375,1.98437 0,1.17188 -0.42188,2.10938 -0.40625,0.92187 -1.21875,1.42187 -0.79687,0.5 -1.67187,0.5 -0.64063,0 -1.15625,-0.26562 -0.51563,-0.28125 -0.84375,-0.6875 v 3.6875 z m 1.15625,-6.65625 q 0,1.45312 0.59375,2.15625 0.60937,0.70312 1.45312,0.70312 0.85938,0 1.46875,-0.71875 0.60938,-0.73437 0.60938,-2.25 0,-1.45312 -0.60938,-2.17187 -0.59375,-0.73438 -1.42187,-0.73438 -0.8125,0 -1.45313,0.78125 -0.64062,0.76563 -0.64062,2.23438 z m 11.948,2.8125 q -0.71875,0.60937 -1.375,0.85937 -0.65625,0.25 -1.42188,0.25 -1.25,0 -1.92187,-0.60937 -0.67188,-0.60938 -0.67188,-1.5625 0,-0.5625 0.25,-1.01563 0.25,-0.46875 0.65625,-0.75 0.42188,-0.28125 0.9375,-0.42187 0.375,-0.0937 1.14063,-0.1875 1.5625,-0.1875 2.29687,-0.45313 0.0156,-0.26562 0.0156,-0.32812 0,-0.79688 -0.375,-1.10938 -0.48438,-0.4375 -1.45313,-0.4375 -0.92187,0 -1.35937,0.32813 -0.42188,0.3125 -0.625,1.10937 l -1.26563,-0.17187 q 0.17188,-0.79688 0.5625,-1.29688 0.39063,-0.5 1.14063,-0.76562 0.75,-0.26563 1.71875,-0.26563 0.98437,0 1.59375,0.23438 0.60937,0.21875 0.89062,0.5625 0.28125,0.34375 0.40625,0.875 0.0625,0.32812 0.0625,1.1875 v 1.71875 q 0,1.79687 0.0781,2.28125 0.0781,0.46875 0.32812,0.90625 h -1.34375 q -0.20312,-0.40625 -0.26562,-0.9375 z m -0.10938,-2.875 q -0.70312,0.28125 -2.09375,0.48437 -0.79687,0.10938 -1.125,0.26563 -0.32812,0.14062 -0.51562,0.42187 -0.17188,0.26563 -0.17188,0.59375 0,0.51563 0.39063,0.85938 0.39062,0.34375 1.14062,0.34375 0.73438,0 1.3125,-0.3125 0.59375,-0.32813 0.85938,-0.89063 0.20312,-0.4375 0.20312,-1.29687 z m 6.11988,2.65625 0.1875,1.14062 q -0.54688,0.10938 -0.98438,0.10938 -0.6875,0 -1.07812,-0.21875 -0.39063,-0.21875 -0.54688,-0.57813 -0.15625,-0.35937 -0.15625,-1.51562 v -4.375 h -0.95312 v -1 h 0.95312 V 64.0956 l 1.28125,-0.76562 v 2.65625 h 1.29688 v 1 h -1.29688 v 4.4375 q 0,0.54687 0.0625,0.71875 0.0781,0.15625 0.21875,0.25 0.15625,0.0781 0.45313,0.0781 0.20312,0 0.5625,-0.0469 z m 1.25946,1.15625 V 63.0956 h 1.28125 v 3.75 q 0.90625,-1.03125 2.28125,-1.03125 0.84375,0 1.46875,0.32813 0.625,0.32812 0.89062,0.92187 0.26563,0.57813 0.26563,1.70313 v 4.8125 h -1.28125 v -4.8125 q 0,-0.96875 -0.42188,-1.40625 -0.42187,-0.4375 -1.1875,-0.4375 -0.57812,0 -1.07812,0.29687 -0.5,0.29688 -0.71875,0.8125 -0.21875,0.5 -0.21875,1.39063 v 4.15625 z m 17.14495,0 v -0.95313 q -0.71875,1.125 -2.125,1.125 -0.90625,0 -1.67187,-0.5 -0.75,-0.5 -1.17188,-1.39062 -0.42187,-0.90625 -0.42187,-2.07813 0,-1.14062 0.375,-2.0625 0.39062,-0.92187 1.14062,-1.40625 0.76563,-0.5 1.70313,-0.5 0.6875,0 1.21875,0.29688 0.53125,0.28125 0.875,0.73437 v -3.75 h 1.28125 v 10.48438 z m -4.0625,-3.79688 q 0,1.46875 0.60938,2.1875 0.625,0.71875 1.45312,0.71875 0.84375,0 1.4375,-0.6875 0.59375,-0.6875 0.59375,-2.10937 0,-1.5625 -0.60937,-2.28125 -0.59375,-0.73438 -1.48438,-0.73438 -0.84375,0 -1.42187,0.70313 -0.57813,0.70312 -0.57813,2.20312 z m 12.49488,1.34375 1.32812,0.17188 q -0.3125,1.17187 -1.17187,1.8125 -0.84375,0.64062 -2.17188,0.64062 -1.67187,0 -2.65625,-1.01562 -0.96875,-1.03125 -0.96875,-2.89063 0,-1.92187 0.98438,-2.96875 1,-1.0625 2.57812,-1.0625 1.51563,0 2.48438,1.03125 0.96875,1.03125 0.96875,2.92188 0,0.10937 -0.0156,0.34375 h -5.65625 q 0.0625,1.25 0.70313,1.92187 0.64062,0.65625 1.59375,0.65625 0.70312,0 1.20312,-0.35937 0.5,-0.375 0.79688,-1.20313 z m -4.23438,-2.07812 h 4.25 q -0.0937,-0.95313 -0.48437,-1.4375 -0.625,-0.75 -1.60938,-0.75 -0.875,0 -1.48437,0.59375 -0.60938,0.59375 -0.67188,1.59375 z m 7.49488,4.53125 v -6.59375 h -1.14063 v -1 h 1.14063 v -0.8125 q 0,-0.76563 0.125,-1.14063 0.1875,-0.5 0.65625,-0.8125 0.46875,-0.3125 1.3125,-0.3125 0.54687,0 1.20312,0.125 l -0.1875,1.125 q -0.40625,-0.0625 -0.76562,-0.0625 -0.57813,0 -0.82813,0.25 -0.23437,0.25 -0.23437,0.9375 v 0.70313 h 1.46875 v 1 h -1.46875 v 6.59375 z m 3.75946,-9.01563 V 63.0956 h 1.29687 v 1.46875 z m 0,9.01563 v -7.59375 h 1.29687 v 7.59375 z m 3.25616,0 v -7.59375 h 1.15625 v 1.07812 q 0.84375,-1.25 2.42188,-1.25 0.6875,0 1.26562,0.25 0.57813,0.23438 0.85938,0.64063 0.28125,0.40625 0.40625,0.95312 0.0625,0.35938 0.0625,1.25 v 4.67188 h -1.28125 v -4.625 q 0,-0.78125 -0.15625,-1.17188 -0.15625,-0.39062 -0.54688,-0.625 -0.375,-0.23437 -0.89062,-0.23437 -0.8125,0 -1.42188,0.53125 -0.59375,0.51562 -0.59375,1.96875 v 4.15625 z m 13.35419,-2.45313 1.32812,0.17188 q -0.3125,1.17187 -1.17187,1.8125 -0.84375,0.64062 -2.17188,0.64062 -1.67187,0 -2.65625,-1.01562 -0.96875,-1.03125 -0.96875,-2.89063 0,-1.92187 0.98438,-2.96875 1,-1.0625 2.57812,-1.0625 1.51563,0 2.48438,1.03125 0.96875,1.03125 0.96875,2.92188 0,0.10937 -0.0156,0.34375 h -5.65625 q 0.0625,1.25 0.70313,1.92187 0.64062,0.65625 1.59375,0.65625 0.70312,0 1.20312,-0.35937 0.5,-0.375 0.79688,-1.20313 z m -4.23438,-2.07812 h 4.25 q -0.0937,-0.95313 -0.48437,-1.4375 -0.625,-0.75 -1.60938,-0.75 -0.875,0 -1.48437,0.59375 -0.60938,0.59375 -0.67188,1.59375 z m 12.10425,4.53125 v -0.95313 q -0.71875,1.125 -2.125,1.125 -0.90625,0 -1.67187,-0.5 -0.75,-0.5 -1.17188,-1.39062 -0.42187,-0.90625 -0.42187,-2.07813 0,-1.14062 0.375,-2.0625 0.39062,-0.92187 1.14062,-1.40625 0.76563,-0.5 1.70313,-0.5 0.6875,0 1.21875,0.29688 0.53125,0.28125 0.875,0.73437 v -3.75 h 1.28125 v 10.48438 z m -4.0625,-3.79688 q 0,1.46875 0.60938,2.1875 0.625,0.71875 1.45312,0.71875 0.84375,0 1.4375,-0.6875 0.59375,-0.6875 0.59375,-2.10937 0,-1.5625 -0.60937,-2.28125 -0.59375,-0.73438 -1.48438,-0.73438 -0.84375,0 -1.42187,0.70313 -0.57813,0.70312 -0.57813,2.20312 z m 12.55121,3.79688 h -1.20313 V 63.0956 h 1.29688 v 3.73438 q 0.8125,-1.01563 2.07812,-1.01563 0.70313,0 1.32813,0.28125 0.625,0.28125 1.03125,0.79688 0.40625,0.5 0.625,1.23437 0.23437,0.71875 0.23437,1.53125 0,1.96875 -0.96875,3.03125 -0.95312,1.0625 -2.3125,1.0625 -1.34375,0 -2.10937,-1.125 z m -0.0156,-3.85938 q 0,1.375 0.375,1.98438 0.60938,0.98437 1.64063,0.98437 0.84375,0 1.45312,-0.73437 0.625,-0.73438 0.625,-2.1875 0,-1.48438 -0.59375,-2.1875 -0.59375,-0.71875 -1.42187,-0.71875 -0.84375,0 -1.46875,0.73437 -0.60938,0.73438 -0.60938,2.125 z m 6.91675,6.78125 -0.14062,-1.20312 q 0.42187,0.10937 0.73437,0.10937 0.4375,0 0.6875,-0.14062 0.26563,-0.14063 0.42188,-0.40625 0.125,-0.1875 0.39062,-0.95313 0.0469,-0.10937 0.125,-0.3125 l -2.89062,-7.60937 h 1.39062 l 1.57813,4.39062 q 0.3125,0.84375 0.54687,1.76563 0.23438,-0.89063 0.53125,-1.73438 l 1.625,-4.42187 h 1.29688 l -2.89063,7.71875 q -0.46875,1.25 -0.73437,1.73437 -0.34375,0.625 -0.78125,0.92188 -0.4375,0.29687 -1.0625,0.29687 -0.375,0 -0.82813,-0.15625 z" />
  <path
     style="fill:#000000;fill-rule:nonzero"
     inkscape:connector-curvature="0"
     id="path3911"
     d="m 343.80033,73.57999 1.59375,-7.59375 h 1.17188 l -0.28125,1.3125 q 0.76562,-0.78125 1.42187,-1.125 0.67188,-0.35938 1.375,-0.35938 0.92188,0 1.4375,0.5 0.53125,0.5 0.53125,1.32813 0,0.42187 -0.1875,1.34375 l -0.96875,4.59375 h -1.29687 l 1.01562,-4.8125 q 0.15625,-0.70313 0.15625,-1.04688 0,-0.375 -0.26562,-0.60937 -0.26563,-0.23438 -0.75,-0.23438 -1,0 -1.78125,0.71875 -0.76563,0.70313 -1.14063,2.45313 l -0.73437,3.53125 z m 13.72925,-2.57813 1.26562,0.125 q -0.26562,0.9375 -1.25,1.78125 -0.96875,0.84375 -2.32812,0.84375 -0.84375,0 -1.54688,-0.39062 -0.70312,-0.39063 -1.07812,-1.125 -0.35938,-0.75 -0.35938,-1.70313 0,-1.25 0.5625,-2.42187 0.57813,-1.17188 1.5,-1.73438 0.92188,-0.5625 1.98438,-0.5625 1.35937,0 2.17187,0.84375 0.8125,0.84375 0.8125,2.29688 0,0.5625 -0.10937,1.14062 h -5.59375 q -0.0312,0.23438 -0.0312,0.40625 0,1.0625 0.48437,1.625 0.5,0.5625 1.20313,0.5625 0.67187,0 1.3125,-0.4375 0.64062,-0.4375 1,-1.25 z m -3.76563,-1.89062 h 4.26563 q 0.0156,-0.20313 0.0156,-0.28125 0,-0.96875 -0.48437,-1.48438 -0.48438,-0.53125 -1.25,-0.53125 -0.84375,0 -1.53125,0.57813 -0.67188,0.5625 -1.01563,1.71875 z m 5.83863,4.46875 3.29687,-3.85938 -1.89062,-3.73437 h 1.42187 l 0.65625,1.34375 q 0.35938,0.76562 0.64063,1.45312 l 2.1875,-2.79687 h 1.57812 l -3.1875,3.84375 1.92188,3.75 h -1.4375 l -0.75,-1.54688 q -0.25,-0.5 -0.5625,-1.21875 l -2.25,2.76563 z m 10.85937,-1.04688 -0.21875,1.04688 q -0.46875,0.125 -0.90625,0.125 -0.76562,0 -1.21875,-0.375 -0.34375,-0.28125 -0.34375,-0.78125 0,-0.25 0.1875,-1.15625 l 0.92188,-4.40625 h -1.03125 l 0.20312,-1 h 1.03125 l 0.39063,-1.875 1.48437,-0.89063 -0.57812,2.76563 h 1.26562 l -0.20312,1 h -1.26563 l -0.89062,4.20312 q -0.15625,0.79688 -0.15625,0.95313 0,0.23437 0.125,0.35937 0.14062,0.10938 0.4375,0.10938 0.42187,0 0.76562,-0.0781 z" />
</svg>
