<?xml version="1.0" encoding="UTF-8" standalone="no"?>
<svg
   xmlns:dc="http://purl.org/dc/elements/1.1/"
   xmlns:cc="http://creativecommons.org/ns#"
   xmlns:rdf="http://www.w3.org/1999/02/22-rdf-syntax-ns#"
   xmlns:svg="http://www.w3.org/2000/svg"
   xmlns="http://www.w3.org/2000/svg"
   xmlns:sodipodi="http://sodipodi.sourceforge.net/DTD/sodipodi-0.dtd"
   xmlns:inkscape="http://www.inkscape.org/namespaces/inkscape"
   version="1.1"
   viewBox="0 0 569.22833 176.07481"
   stroke-miterlimit="10"
   id="svg652"
   sodipodi:docname="3.svg"
   width="569.22833"
   height="176.07481"
   style="fill:none;stroke:none;stroke-linecap:square;stroke-miterlimit:10"
   inkscape:version="0.92.2 (5c3e80d, 2017-08-06)">
  <metadata
     id="metadata658">
    <rdf:RDF>
      <cc:Work
         rdf:about="">
        <dc:format>image/svg+xml</dc:format>
        <dc:type
           rdf:resource="http://purl.org/dc/dcmitype/StillImage" />
        <dc:title></dc:title>
      </cc:Work>
    </rdf:RDF>
  </metadata>
  <defs
     id="defs656" />
  <sodipodi:namedview
     pagecolor="#ffffff"
     bordercolor="#666666"
     borderopacity="1"
     objecttolerance="10"
     gridtolerance="10"
     guidetolerance="10"
     inkscape:pageopacity="0"
     inkscape:pageshadow="2"
     inkscape:window-width="1920"
     inkscape:window-height="1016"
     id="namedview654"
     showgrid="false"
     fit-margin-top="0"
     fit-margin-left="0"
     fit-margin-right="0"
     fit-margin-bottom="0"
     inkscape:zoom="0.27314815"
     inkscape:cx="325.93701"
     inkscape:cy="91.57483"
     inkscape:window-x="0"
     inkscape:window-y="27"
     inkscape:window-maximized="1"
     inkscape:current-layer="svg652" />
  <clipPath
     id="p.0">
    <path
       d="M 0,0 H 1152 V 864 H 0 Z"
       id="path531"
       inkscape:connector-curvature="0"
       style="clip-rule:nonzero" />
  </clipPath>
  <path
     style="fill:#000000;fill-opacity:0;fill-rule:evenodd"
     inkscape:connector-curvature="0"
     id="path534"
     d="m -250.06299,-347.50001 h 1152 v 864 h -1152 z" />
  <path
     style="fill:#efefef;fill-rule:evenodd"
     inkscape:connector-curvature="0"
     id="path536"
     d="m 210.64566,4.50009 v 0 c 0,-2.2092 1.79092,-4.00009 4.00009,-4.00009 h 65.00769 c 1.06091,0 2.07837,0.42145 2.82849,1.1716 0.75019,0.75015 1.17163,1.76758 1.17163,2.82849 v 15.99982 c 0,2.20919 -1.79089,4.00009 -4.00012,4.00009 h -65.00769 c -2.20917,0 -4.00009,-1.7909 -4.00009,-4.00009 z" />
  <path
     style="fill-rule:evenodd;stroke:#999999;stroke-width:1;stroke-linecap:butt;stroke-linejoin:round"
     inkscape:connector-curvature="0"
     id="path538"
     d="m 210.64566,4.50009 v 0 c 0,-2.2092 1.79092,-4.00009 4.00009,-4.00009 h 65.00769 c 1.06091,0 2.07837,0.42145 2.82849,1.1716 0.75019,0.75015 1.17163,1.76758 1.17163,2.82849 v 15.99982 c 0,2.20919 -1.79089,4.00009 -4.00012,4.00009 h -65.00769 c -2.20917,0 -4.00009,-1.7909 -4.00009,-4.00009 z" />
  <path
     style="fill:#000000;fill-rule:nonzero"
     inkscape:connector-curvature="0"
     id="path540"
     d="m 237.29666,17.29999 h -1.17188 V 9.83124 q -0.42187,0.40625 -1.10937,0.8125 -0.6875,0.40625 -1.23438,0.60937 v -1.14062 q 0.98438,-0.45313 1.71875,-1.10938 0.73438,-0.67187 1.03125,-1.28125 h 0.76563 z m 3.64685,0 v -1.32813 h 1.34375 v 1.32813 z m 3.04672,-4.70313 q 0,-1.6875 0.34375,-2.71875 0.35938,-1.03125 1.04688,-1.59375 0.6875,-0.5625 1.71875,-0.5625 0.78125,0 1.35937,0.3125 0.57813,0.29688 0.95313,0.89063 0.375,0.57812 0.59375,1.42187 0.21875,0.82813 0.21875,2.25 0,1.67188 -0.35938,2.70313 -0.34375,1.03125 -1.03125,1.59375 -0.67187,0.5625 -1.73437,0.5625 -1.375,0 -2.15625,-0.98438 -0.95313,-1.1875 -0.95313,-3.875 z m 1.20313,0 q 0,2.34375 0.54687,3.125 0.5625,0.78125 1.35938,0.78125 0.8125,0 1.35937,-0.78125 0.5625,-0.78125 0.5625,-3.125 0,-2.35937 -0.5625,-3.125 -0.54687,-0.78125 -1.35937,-0.78125 -0.8125,0 -1.29688,0.6875 -0.60937,0.875 -0.60937,3.21875 z m 6.8656,4.70313 v -1.32813 h 1.34375 v 1.32813 z m 3.04675,-4.70313 q 0,-1.6875 0.34375,-2.71875 0.35938,-1.03125 1.04688,-1.59375 0.6875,-0.5625 1.71875,-0.5625 0.78125,0 1.35937,0.3125 0.57813,0.29688 0.95313,0.89063 0.375,0.57812 0.59375,1.42187 0.21875,0.82813 0.21875,2.25 0,1.67188 -0.35938,2.70313 -0.34375,1.03125 -1.03125,1.59375 -0.67187,0.5625 -1.73437,0.5625 -1.375,0 -2.15625,-0.98438 -0.95313,-1.1875 -0.95313,-3.875 z m 1.20313,0 q 0,2.34375 0.54687,3.125 0.5625,0.78125 1.35938,0.78125 0.8125,0 1.35937,-0.78125 0.5625,-0.78125 0.5625,-3.125 0,-2.35937 -0.5625,-3.125 -0.54687,-0.78125 -1.35937,-0.78125 -0.8125,0 -1.29688,0.6875 -0.60937,0.875 -0.60937,3.21875 z" />
  <path
     style="fill:#efefef;fill-rule:evenodd"
     inkscape:connector-curvature="0"
     id="path542"
     d="m 162.64566,52.50009 v 0 c 0,-2.2092 1.79092,-4.00009 4.00009,-4.00009 h 65.00772 c 1.06088,0 2.07831,0.42145 2.82849,1.1716 0.75016,0.75015 1.17157,1.76758 1.17157,2.82849 v 15.99982 c 0,2.20919 -1.79089,4.00009 -4.00006,4.00009 h -65.00772 c -2.20917,0 -4.00009,-1.7909 -4.00009,-4.00009 z" />
  <path
     style="fill-rule:evenodd;stroke:#999999;stroke-width:1;stroke-linecap:butt;stroke-linejoin:round"
     inkscape:connector-curvature="0"
     id="path544"
     d="m 162.64566,52.50009 v 0 c 0,-2.2092 1.79092,-4.00009 4.00009,-4.00009 h 65.00772 c 1.06088,0 2.07831,0.42145 2.82849,1.1716 0.75016,0.75015 1.17157,1.76758 1.17157,2.82849 v 15.99982 c 0,2.20919 -1.79089,4.00009 -4.00006,4.00009 h -65.00772 c -2.20917,0 -4.00009,-1.7909 -4.00009,-4.00009 z" />
  <path
     style="fill:#000000;fill-rule:nonzero"
     inkscape:connector-curvature="0"
     id="path546"
     d="m 189.29666,65.29999 h -1.17188 v -7.46875 q -0.42187,0.40625 -1.10937,0.8125 -0.6875,0.40625 -1.23438,0.60937 v -1.14062 q 0.98438,-0.45313 1.71875,-1.10938 0.73438,-0.67187 1.03125,-1.28125 h 0.76563 z m 3.64685,0 v -1.32813 h 1.34375 v 1.32813 z m 7.4686,0 h -1.17188 v -7.46875 q -0.42187,0.40625 -1.10937,0.8125 -0.6875,0.40625 -1.23438,0.60937 v -1.14062 q 0.98438,-0.45313 1.71875,-1.10938 0.73438,-0.67187 1.03125,-1.28125 h 0.76563 z m 3.64685,0 v -1.32813 h 1.34375 v 1.32813 z m 3.04675,-4.70313 q 0,-1.6875 0.34375,-2.71875 0.35938,-1.03125 1.04688,-1.59375 0.6875,-0.5625 1.71875,-0.5625 0.78125,0 1.35937,0.3125 0.57813,0.29688 0.95313,0.89063 0.375,0.57812 0.59375,1.42187 0.21875,0.82813 0.21875,2.25 0,1.67188 -0.35938,2.70313 -0.34375,1.03125 -1.03125,1.59375 -0.67187,0.5625 -1.73437,0.5625 -1.375,0 -2.15625,-0.98438 -0.95313,-1.1875 -0.95313,-3.875 z m 1.20313,0 q 0,2.34375 0.54687,3.125 0.5625,0.78125 1.35938,0.78125 0.8125,0 1.35937,-0.78125 0.5625,-0.78125 0.5625,-3.125 0,-2.35937 -0.5625,-3.125 -0.54687,-0.78125 -1.35937,-0.78125 -0.8125,0 -1.29688,0.6875 -0.60937,0.875 -0.60937,3.21875 z" />
  <path
     style="fill:#efefef;fill-rule:evenodd"
     inkscape:connector-curvature="0"
     id="path548"
     d="m 138.64566,100.50009 v 0 c 0,-2.2092 1.79092,-4.00009 4.00009,-4.00009 h 65.00772 c 1.06088,0 2.07831,0.42145 2.82849,1.1716 0.75016,0.75015 1.17157,1.76758 1.17157,2.82849 v 15.99982 c 0,2.20919 -1.79089,4.00009 -4.00006,4.00009 h -65.00772 c -2.20917,0 -4.00009,-1.7909 -4.00009,-4.00009 z" />
  <path
     style="fill-rule:evenodd;stroke:#999999;stroke-width:1;stroke-linecap:butt;stroke-linejoin:round"
     inkscape:connector-curvature="0"
     id="path550"
     d="m 138.64566,100.50009 v 0 c 0,-2.2092 1.79092,-4.00009 4.00009,-4.00009 h 65.00772 c 1.06088,0 2.07831,0.42145 2.82849,1.1716 0.75016,0.75015 1.17157,1.76758 1.17157,2.82849 v 15.99982 c 0,2.20919 -1.79089,4.00009 -4.00006,4.00009 h -65.00772 c -2.20917,0 -4.00009,-1.7909 -4.00009,-4.00009 z" />
  <path
     style="fill:#000000;fill-rule:nonzero"
     inkscape:connector-curvature="0"
     id="path552"
     d="m 165.29666,113.29999 h -1.17188 v -7.46875 q -0.42187,0.40625 -1.10937,0.8125 -0.6875,0.40625 -1.23438,0.60937 v -1.14062 q 0.98438,-0.45313 1.71875,-1.10938 0.73438,-0.67187 1.03125,-1.28125 h 0.76563 z m 3.64685,0 v -1.32813 h 1.34375 v 1.32813 z m 9.20297,-1.125 v 1.125 h -6.29687 q -0.0156,-0.42188 0.14062,-0.8125 0.23438,-0.64063 0.76563,-1.26563 0.53125,-0.625 1.53125,-1.45312 1.5625,-1.26563 2.10937,-2.01563 0.54688,-0.75 0.54688,-1.40625 0,-0.70312 -0.5,-1.17187 -0.5,-0.48438 -1.29688,-0.48438 -0.85937,0 -1.375,0.51563 -0.5,0.5 -0.5,1.39062 l -1.20312,-0.10937 q 0.125,-1.35938 0.92187,-2.0625 0.8125,-0.70313 2.17188,-0.70313 1.375,0 2.17187,0.76563 0.8125,0.75 0.8125,1.875 0,0.57812 -0.23437,1.14062 -0.23438,0.54688 -0.78125,1.15625 -0.54688,0.60938 -1.8125,1.67188 -1.04688,0.89062 -1.35938,1.21875 -0.29687,0.3125 -0.48437,0.625 z m 1.91248,1.125 v -1.32813 h 1.34375 v 1.32813 z m 3.04675,-4.70313 q 0,-1.6875 0.34375,-2.71875 0.35938,-1.03125 1.04688,-1.59375 0.6875,-0.5625 1.71875,-0.5625 0.78125,0 1.35937,0.3125 0.57813,0.29688 0.95313,0.89063 0.375,0.57812 0.59375,1.42187 0.21875,0.82813 0.21875,2.25 0,1.67188 -0.35938,2.70313 -0.34375,1.03125 -1.03125,1.59375 -0.67187,0.5625 -1.73437,0.5625 -1.375,0 -2.15625,-0.98438 -0.95313,-1.1875 -0.95313,-3.875 z m 1.20313,0 q 0,2.34375 0.54687,3.125 0.5625,0.78125 1.35938,0.78125 0.8125,0 1.35937,-0.78125 0.5625,-0.78125 0.5625,-3.125 0,-2.35937 -0.5625,-3.125 -0.54687,-0.78125 -1.35937,-0.78125 -0.8125,0 -1.29688,0.6875 -0.60937,0.875 -0.60937,3.21875 z" />
  <path
     style="fill:#efefef;fill-rule:evenodd"
     inkscape:connector-curvature="0"
     id="path554"
     d="m 210.64566,148.50009 v 0 c 0,-2.2092 1.79092,-4.00009 4.00009,-4.00009 h 65.00769 c 1.06091,0 2.07837,0.42145 2.82849,1.1716 0.75019,0.75015 1.17163,1.76758 1.17163,2.82849 v 15.99982 c 0,2.20919 -1.79089,4.00009 -4.00012,4.00009 h -65.00769 c -2.20917,0 -4.00009,-1.7909 -4.00009,-4.00009 z" />
  <path
     style="fill-rule:evenodd;stroke:#999999;stroke-width:1;stroke-linecap:butt;stroke-linejoin:round"
     inkscape:connector-curvature="0"
     id="path556"
     d="m 210.64566,148.50009 v 0 c 0,-2.2092 1.79092,-4.00009 4.00009,-4.00009 h 65.00769 c 1.06091,0 2.07837,0.42145 2.82849,1.1716 0.75019,0.75015 1.17163,1.76758 1.17163,2.82849 v 15.99982 c 0,2.20919 -1.79089,4.00009 -4.00012,4.00009 h -65.00769 c -2.20917,0 -4.00009,-1.7909 -4.00009,-4.00009 z" />
  <path
     style="fill:#000000;fill-rule:nonzero"
     inkscape:connector-curvature="0"
     id="path558"
     d="m 237.29666,161.29999 h -1.17188 v -7.46875 q -0.42187,0.40625 -1.10937,0.8125 -0.6875,0.40625 -1.23438,0.60937 v -1.14062 q 0.98438,-0.45313 1.71875,-1.10938 0.73438,-0.67187 1.03125,-1.28125 h 0.76563 z m 3.64685,0 v -1.32813 h 1.34375 v 1.32813 z m 3.06235,-2.51563 1.17187,-0.15625 q 0.20313,1 0.6875,1.4375 0.48438,0.4375 1.17188,0.4375 0.82812,0 1.39062,-0.57812 0.57813,-0.57813 0.57813,-1.42188 0,-0.79687 -0.53125,-1.3125 -0.51563,-0.53125 -1.32813,-0.53125 -0.34375,0 -0.82812,0.125 l 0.125,-1.03125 q 0.125,0.0156 0.1875,0.0156 0.75,0 1.34375,-0.39063 0.60937,-0.39062 0.60937,-1.20312 0,-0.64063 -0.4375,-1.0625 -0.4375,-0.42188 -1.125,-0.42188 -0.6875,0 -1.14062,0.4375 -0.45313,0.42188 -0.59375,1.28125 l -1.17188,-0.21875 q 0.21875,-1.17187 0.98438,-1.8125 0.76562,-0.65625 1.89062,-0.65625 0.78125,0 1.4375,0.34375 0.65625,0.32813 1,0.90625 0.35938,0.57813 0.35938,1.23438 0,0.60937 -0.34375,1.125 -0.32813,0.5 -0.96875,0.79687 0.84375,0.20313 1.3125,0.82813 0.46875,0.60937 0.46875,1.53125 0,1.25 -0.92188,2.125 -0.90625,0.85937 -2.29687,0.85937 -1.25,0 -2.09375,-0.75 -0.82813,-0.75 -0.9375,-1.9375 z m 8.0531,2.51563 v -1.32813 h 1.34375 v 1.32813 z m 3.04675,-4.70313 q 0,-1.6875 0.34375,-2.71875 0.35938,-1.03125 1.04688,-1.59375 0.6875,-0.5625 1.71875,-0.5625 0.78125,0 1.35937,0.3125 0.57813,0.29688 0.95313,0.89063 0.375,0.57812 0.59375,1.42187 0.21875,0.82813 0.21875,2.25 0,1.67188 -0.35938,2.70313 -0.34375,1.03125 -1.03125,1.59375 -0.67187,0.5625 -1.73437,0.5625 -1.375,0 -2.15625,-0.98438 -0.95313,-1.1875 -0.95313,-3.875 z m 1.20313,0 q 0,2.34375 0.54687,3.125 0.5625,0.78125 1.35938,0.78125 0.8125,0 1.35937,-0.78125 0.5625,-0.78125 0.5625,-3.125 0,-2.35937 -0.5625,-3.125 -0.54687,-0.78125 -1.35937,-0.78125 -0.8125,0 -1.29688,0.6875 -0.60937,0.875 -0.60937,3.21875 z" />
  <path
     style="fill:#000000;fill-opacity:0;fill-rule:evenodd"
     inkscape:connector-curvature="0"
     id="path560"
     d="m 247.14961,24.49999 c 0,6 -12,9 -24,12 -12,3 -24,6 -24,12" />
  <path
     style="fill-rule:evenodd;stroke:#000000;stroke-width:1;stroke-linecap:butt;stroke-linejoin:round"
     inkscape:connector-curvature="0"
     id="path562"
     d="m 247.14961,24.49999 c 0,6 -12,9 -24,12 -6,1.5 -12,3 -16.5,4.875 -1.125,0.46875 -2.15625,0.96097 -3.07028,1.48239 -0.22855,0.1304 -0.44971,0.26261 -0.66321,0.3967 -0.10675,0.0671 -0.21158,0.13464 -0.31445,0.2027 l -0.0993,0.0674" />
  <path
     style="fill:#000000;fill-rule:evenodd;stroke:#000000;stroke-width:1;stroke-linecap:butt"
     inkscape:connector-curvature="0"
     id="path564"
     d="m 201.13263,42.60119 -1.16611,4.68643 3.90567,-2.84045 z" />
  <path
     style="fill:#000000;fill-opacity:0;fill-rule:evenodd"
     inkscape:connector-curvature="0"
     id="path566"
     d="m 199.14961,72.49999 c 0,6 -6,9 -12,12 -6,3 -12,6 -12,12" />
  <path
     style="fill-rule:evenodd;stroke:#000000;stroke-width:1;stroke-linecap:butt;stroke-linejoin:round"
     inkscape:connector-curvature="0"
     id="path568"
     d="m 199.14961,72.49999 c 0,6 -6,9 -12,12 -3,1.5 -6,3 -8.25,4.875 -0.5625,0.46875 -1.07813,0.96097 -1.53513,1.48239 l -0.0425,0.0497" />
  <path
     style="fill:#000000;fill-rule:evenodd;stroke:#000000;stroke-width:1;stroke-linecap:butt"
     inkscape:connector-curvature="0"
     id="path570"
     d="m 175.78229,90.30904 -0.10339,4.82822 3.18274,-3.63217 z" />
  <path
     style="fill:#000000;fill-opacity:0;fill-rule:evenodd"
     inkscape:connector-curvature="0"
     id="path572"
     d="m 175.14961,120.49999 c 0,6 18,9 36,12 18,3 36,6 36,12" />
  <path
     style="fill-rule:evenodd;stroke:#000000;stroke-width:1;stroke-linecap:butt;stroke-linejoin:round"
     inkscape:connector-curvature="0"
     id="path574"
     d="m 175.14961,120.49999 c 0,6 18,9 36,12 9,1.5 18,3 24.75,4.875 1.6875,0.46875 3.23437,0.96097 4.6055,1.48239 0.68552,0.26077 1.32715,0.52884 1.92038,0.80496 0.14834,0.069 0.29361,0.13858 0.43582,0.20862 l 0.2959,0.15012" />
  <path
     style="fill:#000000;fill-rule:evenodd;stroke:#000000;stroke-width:1;stroke-linecap:butt"
     inkscape:connector-curvature="0"
     id="path576"
     d="m 241.92419,141.12014 4.25266,2.28857 -1.78666,-4.48669 z" />
  <path
     style="fill:#000000;fill-opacity:0;fill-rule:evenodd"
     inkscape:connector-curvature="0"
     id="path578"
     d="m 247.14961,24.49999 c 0,30 0.0157,45 0.0315,60 0.0158,15 0.0315,30 0.0315,60" />
  <path
     style="fill-rule:evenodd;stroke:#000000;stroke-width:1;stroke-linecap:butt;stroke-linejoin:round"
     inkscape:connector-curvature="0"
     id="path580"
     d="m 247.14961,24.49999 c 0,30 0.0157,45 0.0315,60 0.008,7.5 0.0158,15 0.0217,24.375 0.003,4.6875 0.005,9.84375 0.007,15.70312 l 0.002,13.92188" />
  <path
     style="fill:#000000;fill-rule:evenodd;stroke:#000000;stroke-width:1;stroke-linecap:butt"
     inkscape:connector-curvature="0"
     id="path582"
     d="m 245.56006,138.50019 1.65234,4.53787 1.65113,-4.5383 z" />
  <path
     style="fill:#efefef;fill-rule:evenodd"
     inkscape:connector-curvature="0"
     id="path584"
     d="m 82.64566,52.50009 v 0 c 0,-2.2092 1.79092,-4.00009 4.00009,-4.00009 h 65.00772 c 1.06088,0 2.07831,0.42145 2.82849,1.1716 0.75016,0.75015 1.17157,1.76758 1.17157,2.82849 v 15.99982 c 0,2.20919 -1.79089,4.00009 -4.00006,4.00009 H 86.64575 c -2.20917,0 -4.00009,-1.7909 -4.00009,-4.00009 z" />
  <path
     style="fill-rule:evenodd;stroke:#999999;stroke-width:1;stroke-linecap:butt;stroke-linejoin:round"
     inkscape:connector-curvature="0"
     id="path586"
     d="m 82.64566,52.50009 v 0 c 0,-2.2092 1.79092,-4.00009 4.00009,-4.00009 h 65.00772 c 1.06088,0 2.07831,0.42145 2.82849,1.1716 0.75016,0.75015 1.17157,1.76758 1.17157,2.82849 v 15.99982 c 0,2.20919 -1.79089,4.00009 -4.00006,4.00009 H 86.64575 c -2.20917,0 -4.00009,-1.7909 -4.00009,-4.00009 z" />
  <path
     style="fill:#000000;fill-rule:nonzero"
     inkscape:connector-curvature="0"
     id="path588"
     d="m 109.29666,65.29999 h -1.17188 v -7.46875 q -0.42187,0.40625 -1.10937,0.8125 -0.6875,0.40625 -1.23438,0.60937 v -1.14062 q 0.98438,-0.45313 1.71875,-1.10938 0.73438,-0.67187 1.03125,-1.28125 h 0.76563 z m 3.64685,0 v -1.32813 h 1.34375 v 1.32813 z m 7.4686,0 h -1.17188 v -7.46875 q -0.42187,0.40625 -1.10937,0.8125 -0.6875,0.40625 -1.23438,0.60937 v -1.14062 q 0.98438,-0.45313 1.71875,-1.10938 0.73438,-0.67187 1.03125,-1.28125 h 0.76563 z m 3.64685,0 v -1.32813 h 1.34375 v 1.32813 z m 7.46863,0 h -1.17188 v -7.46875 q -0.42187,0.40625 -1.10937,0.8125 -0.6875,0.40625 -1.23438,0.60937 v -1.14062 q 0.98438,-0.45313 1.71875,-1.10938 0.73438,-0.67187 1.03125,-1.28125 h 0.76563 z" />
  <path
     style="fill:#000000;fill-opacity:0;fill-rule:evenodd"
     inkscape:connector-curvature="0"
     id="path590"
     d="m 247.14961,24.49999 c 0,6 -32,9 -64,12 -32,3 -64,6 -64,12" />
  <path
     style="fill-rule:evenodd;stroke:#000000;stroke-width:1;stroke-linecap:butt;stroke-linejoin:round"
     inkscape:connector-curvature="0"
     id="path592"
     d="m 247.14961,24.49999 c 0,6 -32,9 -64,12 -16,1.5 -32,3 -44,4.875 -6,0.9375 -11,1.96875 -14.5,3.14062 -0.21875,0.0732 -0.43161,0.14704 -0.63852,0.22138 l -0.14572,0.0533" />
  <path
     style="fill:#000000;fill-rule:evenodd;stroke:#000000;stroke-width:1;stroke-linecap:butt"
     inkscape:connector-curvature="0"
     id="path594"
     d="m 122.84415,43.49212 -2.54553,4.104 4.58798,-1.50759 z" />
  <path
     style="fill:#000000;fill-opacity:0;fill-rule:evenodd"
     inkscape:connector-curvature="0"
     id="path596"
     d="m 119.14961,72.49999 c 0,6 14,9 28,12 14,3 28,6 28,12" />
  <path
     style="fill-rule:evenodd;stroke:#000000;stroke-width:1;stroke-linecap:butt;stroke-linejoin:round"
     inkscape:connector-curvature="0"
     id="path598"
     d="m 120.84924,75.88749 0.1636,0.1507 c 0.17048,0.151 0.35163,0.29968 0.543,0.44616 1.53125,1.17188 3.71875,2.20313 6.34375,3.14063 5.25,1.875 12.25,3.375 19.25,4.875 7,1.5 14,3 19.25,4.875 1.3125,0.46875 2.51563,0.96097 3.58204,1.48239 0.53323,0.26077 1.03222,0.52884 1.49365,0.80496 l 0.0684,0.0421" />
  <path
     style="fill-rule:nonzero;stroke:#000000;stroke-width:1;stroke-linecap:butt"
     inkscape:connector-curvature="0"
     id="path600"
     d="m 119.37384,72.94689 c 0.81204,-0.40741 1.8006,-0.0794 2.20801,0.7326 0.40744,0.81202 0.0794,1.8006 -0.73258,2.20801 -0.81204,0.40744 -1.80059,0.0794 -2.20803,-0.7326 -0.40741,-0.81201 -0.0794,-1.80057 0.7326,-2.20801 z" />
  <path
     style="fill-rule:evenodd;stroke:#000000;stroke-width:1;stroke-linecap:butt"
     inkscape:connector-curvature="0"
     id="path602"
     d="m 170.22354,92.69709 4.04749,2.63446 -1.40717,-4.61978 z" />
  <path
     style="fill:#000000;fill-opacity:0;fill-rule:evenodd"
     inkscape:connector-curvature="0"
     id="path604"
     d="m 319.21261,68.49999 h 49.00787" />
  <path
     style="fill-rule:evenodd;stroke:#000000;stroke-width:1;stroke-linecap:butt;stroke-linejoin:round"
     inkscape:connector-curvature="0"
     id="path606"
     d="m 323.00256,68.49999 h 39.2179" />
  <path
     style="fill-rule:nonzero;stroke:#000000;stroke-width:1;stroke-linecap:butt"
     inkscape:connector-curvature="0"
     id="path608"
     d="m 319.71261,68.49999 c 0,-0.90851 0.73651,-1.64499 1.64502,-1.64499 0.90851,0 1.64502,0.73648 1.64502,1.64499 0,0.90851 -0.73651,1.64499 -1.64502,1.64499 -0.90851,0 -1.64502,-0.73648 -1.64502,-1.64499 z" />
  <path
     style="fill-rule:evenodd;stroke:#000000;stroke-width:1;stroke-linecap:butt"
     inkscape:connector-curvature="0"
     id="path610"
     d="m 362.22046,70.15172 4.53809,-1.65173 -4.53809,-1.65174 z" />
  <path
     style="fill:#000000;fill-opacity:0;fill-rule:evenodd"
     inkscape:connector-curvature="0"
     id="path612"
     d="m 319.21261,100.49999 h 49.00787" />
  <path
     style="fill-rule:evenodd;stroke:#000000;stroke-width:1;stroke-linecap:butt;stroke-linejoin:round"
     inkscape:connector-curvature="0"
     id="path614"
     d="m 319.21261,100.49999 h 43.00787" />
  <path
     style="fill:#000000;fill-rule:evenodd;stroke:#000000;stroke-width:1;stroke-linecap:butt"
     inkscape:connector-curvature="0"
     id="path616"
     d="m 362.22046,102.15172 4.53809,-1.65173 -4.53809,-1.65174 z" />
  <path
     style="fill:#000000;fill-opacity:0;fill-rule:evenodd"
     inkscape:connector-curvature="0"
     id="path618"
     d="m 368.22046,88.49999 h 201.00787 v 24 H 368.22046 Z" />
  <path
     style="fill:#000000;fill-rule:nonzero"
     inkscape:connector-curvature="0"
     id="path620"
     d="m 378.18921,108.48623 v -10.5 h 1.17188 v 0.98437 q 0.42187,-0.57812 0.9375,-0.85937 0.51562,-0.29688 1.26562,-0.29688 0.96875,0 1.71875,0.5 0.75,0.5 1.125,1.42188 0.375,0.90625 0.375,1.98437 0,1.17188 -0.42187,2.10938 -0.40625,0.92187 -1.21875,1.42187 -0.79688,0.5 -1.67188,0.5 -0.64062,0 -1.15625,-0.26562 -0.51562,-0.28125 -0.84375,-0.6875 v 3.6875 z m 1.15625,-6.65625 q 0,1.45312 0.59375,2.15625 0.60938,0.70312 1.45313,0.70312 0.85937,0 1.46875,-0.71875 0.60937,-0.73437 0.60937,-2.25 0,-1.45312 -0.60937,-2.17187 -0.59375,-0.73438 -1.42188,-0.73438 -0.8125,0 -1.45312,0.78125 -0.64063,0.76563 -0.64063,2.23438 z m 11.948,2.8125 q -0.71875,0.60937 -1.375,0.85937 -0.65625,0.25 -1.42188,0.25 -1.25,0 -1.92187,-0.60937 -0.67188,-0.60938 -0.67188,-1.5625 0,-0.5625 0.25,-1.01563 0.25,-0.46875 0.65625,-0.75 0.42188,-0.28125 0.9375,-0.42187 0.375,-0.0937 1.14063,-0.1875 1.5625,-0.1875 2.29687,-0.45313 0.0156,-0.26562 0.0156,-0.32812 0,-0.79688 -0.375,-1.10938 -0.48438,-0.4375 -1.45313,-0.4375 -0.92187,0 -1.35937,0.32813 -0.42188,0.3125 -0.625,1.10937 l -1.26563,-0.17187 q 0.17188,-0.79688 0.5625,-1.29688 0.39063,-0.5 1.14063,-0.76562 0.75,-0.26563 1.71875,-0.26563 0.98437,0 1.59375,0.23438 0.60937,0.21875 0.89062,0.5625 0.28125,0.34375 0.40625,0.875 0.0625,0.32812 0.0625,1.1875 v 1.71875 q 0,1.79687 0.0781,2.28125 0.0781,0.46875 0.32812,0.90625 h -1.34375 q -0.20312,-0.40625 -0.26562,-0.9375 z m -0.10938,-2.875 q -0.70312,0.28125 -2.09375,0.48437 -0.79687,0.10938 -1.125,0.26563 -0.32812,0.14062 -0.51562,0.42187 -0.17188,0.26563 -0.17188,0.59375 0,0.51563 0.39063,0.85938 0.39062,0.34375 1.14062,0.34375 0.73438,0 1.3125,-0.3125 0.59375,-0.32813 0.85938,-0.89063 0.20312,-0.4375 0.20312,-1.29687 z m 6.11988,2.65625 0.1875,1.14062 q -0.54688,0.10938 -0.98438,0.10938 -0.6875,0 -1.07812,-0.21875 -0.39063,-0.21875 -0.54688,-0.57813 -0.15625,-0.35937 -0.15625,-1.51562 v -4.375 h -0.95312 v -1 h 0.95312 V 96.0956 l 1.28125,-0.76562 v 2.65625 h 1.29688 v 1 h -1.29688 v 4.4375 q 0,0.54687 0.0625,0.71875 0.0781,0.15625 0.21875,0.25 0.15625,0.0781 0.45313,0.0781 0.20312,0 0.5625,-0.0469 z m 1.25946,1.15625 V 95.0956 h 1.28125 v 3.75 q 0.90625,-1.03125 2.28125,-1.03125 0.84375,0 1.46875,0.32813 0.625,0.32812 0.89062,0.92187 0.26563,0.57813 0.26563,1.70313 v 4.8125 h -1.28125 v -4.8125 q 0,-0.96875 -0.42188,-1.40625 -0.42187,-0.4375 -1.1875,-0.4375 -0.57812,0 -1.07812,0.29687 -0.5,0.29688 -0.71875,0.8125 -0.21875,0.5 -0.21875,1.39063 v 4.15625 z m 17.14495,0 v -0.95313 q -0.71875,1.125 -2.125,1.125 -0.90625,0 -1.67187,-0.5 -0.75,-0.5 -1.17188,-1.39062 -0.42187,-0.90625 -0.42187,-2.07813 0,-1.14062 0.375,-2.0625 0.39062,-0.92187 1.14062,-1.40625 0.76563,-0.5 1.70313,-0.5 0.6875,0 1.21875,0.29688 0.53125,0.28125 0.875,0.73437 v -3.75 h 1.28125 v 10.48438 z m -4.0625,-3.79688 q 0,1.46875 0.60938,2.1875 0.625,0.71875 1.45312,0.71875 0.84375,0 1.4375,-0.6875 0.59375,-0.6875 0.59375,-2.10937 0,-1.5625 -0.60937,-2.28125 -0.59375,-0.73438 -1.48438,-0.73438 -0.84375,0 -1.42187,0.70313 -0.57813,0.70312 -0.57813,2.20312 z m 12.49488,1.34375 1.32812,0.17188 q -0.3125,1.17187 -1.17187,1.8125 -0.84375,0.64062 -2.17188,0.64062 -1.67187,0 -2.65625,-1.01562 -0.96875,-1.03125 -0.96875,-2.89063 0,-1.92187 0.98438,-2.96875 1,-1.0625 2.57812,-1.0625 1.51563,0 2.48438,1.03125 0.96875,1.03125 0.96875,2.92188 0,0.10937 -0.0156,0.34375 h -5.65625 q 0.0625,1.25 0.70313,1.92187 0.64062,0.65625 1.59375,0.65625 0.70312,0 1.20312,-0.35937 0.5,-0.375 0.79688,-1.20313 z m -4.23438,-2.07812 h 4.25 q -0.0937,-0.95313 -0.48437,-1.4375 -0.625,-0.75 -1.60938,-0.75 -0.875,0 -1.48437,0.59375 -0.60938,0.59375 -0.67188,1.59375 z m 7.49488,4.53125 v -6.59375 h -1.14063 v -1 h 1.14063 v -0.8125 q 0,-0.76563 0.125,-1.14063 0.1875,-0.5 0.65625,-0.8125 0.46875,-0.3125 1.3125,-0.3125 0.54687,0 1.20312,0.125 l -0.1875,1.125 q -0.40625,-0.0625 -0.76562,-0.0625 -0.57813,0 -0.82813,0.25 -0.23437,0.25 -0.23437,0.9375 v 0.70313 h 1.46875 v 1 h -1.46875 v 6.59375 z m 3.75946,-9.01563 V 95.0956 h 1.29687 v 1.46875 z m 0,9.01563 v -7.59375 h 1.29687 v 7.59375 z m 3.25616,0 v -7.59375 h 1.15625 v 1.07812 q 0.84375,-1.25 2.42188,-1.25 0.6875,0 1.26562,0.25 0.57813,0.23438 0.85938,0.64063 0.28125,0.40625 0.40625,0.95312 0.0625,0.35938 0.0625,1.25 v 4.67188 h -1.28125 v -4.625 q 0,-0.78125 -0.15625,-1.17188 -0.15625,-0.39062 -0.54688,-0.625 -0.375,-0.23437 -0.89062,-0.23437 -0.8125,0 -1.42188,0.53125 -0.59375,0.51562 -0.59375,1.96875 v 4.15625 z m 13.35419,-2.45313 1.32812,0.17188 q -0.3125,1.17187 -1.17187,1.8125 -0.84375,0.64062 -2.17188,0.64062 -1.67187,0 -2.65625,-1.01562 -0.96875,-1.03125 -0.96875,-2.89063 0,-1.92187 0.98438,-2.96875 1,-1.0625 2.57812,-1.0625 1.51563,0 2.48438,1.03125 0.96875,1.03125 0.96875,2.92188 0,0.10937 -0.0156,0.34375 h -5.65625 q 0.0625,1.25 0.70313,1.92187 0.64062,0.65625 1.59375,0.65625 0.70312,0 1.20312,-0.35937 0.5,-0.375 0.79688,-1.20313 z m -4.23438,-2.07812 h 4.25 q -0.0937,-0.95313 -0.48437,-1.4375 -0.625,-0.75 -1.60938,-0.75 -0.875,0 -1.48437,0.59375 -0.60938,0.59375 -0.67188,1.59375 z m 12.10425,4.53125 v -0.95313 q -0.71875,1.125 -2.125,1.125 -0.90625,0 -1.67187,-0.5 -0.75,-0.5 -1.17188,-1.39062 -0.42187,-0.90625 -0.42187,-2.07813 0,-1.14062 0.375,-2.0625 0.39062,-0.92187 1.14062,-1.40625 0.76563,-0.5 1.70313,-0.5 0.6875,0 1.21875,0.29688 0.53125,0.28125 0.875,0.73437 v -3.75 h 1.28125 v 10.48438 z m -4.0625,-3.79688 q 0,1.46875 0.60938,2.1875 0.625,0.71875 1.45312,0.71875 0.84375,0 1.4375,-0.6875 0.59375,-0.6875 0.59375,-2.10937 0,-1.5625 -0.60937,-2.28125 -0.59375,-0.73438 -1.48438,-0.73438 -0.84375,0 -1.42187,0.70313 -0.57813,0.70312 -0.57813,2.20312 z m 12.55121,3.79688 h -1.20313 V 95.0956 h 1.29688 v 3.73438 q 0.8125,-1.01563 2.07812,-1.01563 0.70313,0 1.32813,0.28125 0.625,0.28125 1.03125,0.79688 0.40625,0.5 0.625,1.23437 0.23437,0.71875 0.23437,1.53125 0,1.96875 -0.96875,3.03125 -0.95312,1.0625 -2.3125,1.0625 -1.34375,0 -2.10937,-1.125 z m -0.0156,-3.85938 q 0,1.375 0.375,1.98438 0.60938,0.98437 1.64063,0.98437 0.84375,0 1.45312,-0.73437 0.625,-0.73438 0.625,-2.1875 0,-1.48438 -0.59375,-2.1875 -0.59375,-0.71875 -1.42187,-0.71875 -0.84375,0 -1.46875,0.73437 -0.60938,0.73438 -0.60938,2.125 z m 6.91675,6.78125 -0.14062,-1.20312 q 0.42187,0.10937 0.73437,0.10937 0.4375,0 0.6875,-0.14062 0.26563,-0.14063 0.42188,-0.40625 0.125,-0.1875 0.39062,-0.95313 0.0469,-0.10937 0.125,-0.3125 l -2.89062,-7.60937 h 1.39062 l 1.57813,4.39062 q 0.3125,0.84375 0.54687,1.76563 0.23438,-0.89063 0.53125,-1.73438 l 1.625,-4.42187 h 1.29688 l -2.89066,7.71875 q -0.46875,1.25 -0.73437,1.73437 -0.34375,0.625 -0.78125,0.92188 -0.4375,0.29687 -1.0625,0.29687 -0.375,0 -0.82813,-0.15625 z" />
  <path
     style="fill:#000000;fill-rule:nonzero"
     inkscape:connector-curvature="0"
     id="path622"
     d="m 481.36835,108.48623 2.20312,-10.5 h 1.1875 l -0.21875,1.04687 q 0.67188,-0.6875 1.1875,-0.95312 0.53125,-0.26563 1.125,-0.26563 1.07813,0 1.79688,0.79688 0.71875,0.78125 0.71875,2.25 0,1.1875 -0.39063,2.17187 -0.39062,0.96875 -0.96875,1.5625 -0.57812,0.59375 -1.17187,0.875 -0.57813,0.28125 -1.1875,0.28125 -1.375,0 -2.125,-1.39062 l -0.85938,4.125 z m 2.5625,-6.01563 q 0,0.85938 0.125,1.1875 0.1875,0.46875 0.59375,0.75 0.40625,0.28125 0.9375,0.28125 1.125,0 1.8125,-1.25 0.6875,-1.26562 0.6875,-2.5625 0,-0.96875 -0.46875,-1.5 -0.46875,-0.53125 -1.15625,-0.53125 -0.48438,0 -0.90625,0.26563 -0.42188,0.26562 -0.78125,0.78125 -0.35938,0.51562 -0.60938,1.26562 -0.23437,0.75 -0.23437,1.3125 z m 6.22925,3.10938 1.59375,-7.59375 h 1.14062 l -0.32812,1.54687 q 0.59375,-0.875 1.15625,-1.29687 0.5625,-0.42188 1.15625,-0.42188 0.375,0 0.9375,0.26563 l -0.51563,1.20312 q -0.34375,-0.23437 -0.75,-0.23437 -0.67187,0 -1.39062,0.76562 -0.71875,0.75 -1.125,2.71875 l -0.64063,3.04688 z m 10.45874,-2.57813 1.26562,0.125 q -0.26562,0.9375 -1.25,1.78125 -0.96875,0.84375 -2.32812,0.84375 -0.84375,0 -1.54688,-0.39062 -0.70312,-0.39063 -1.07812,-1.125 -0.35938,-0.75 -0.35938,-1.70313 0,-1.25 0.5625,-2.42187 0.57813,-1.17188 1.5,-1.73438 0.92188,-0.5625 1.98438,-0.5625 1.35937,0 2.17187,0.84375 0.8125,0.84375 0.8125,2.29688 0,0.5625 -0.10937,1.14062 h -5.59375 q -0.0312,0.23438 -0.0312,0.40625 0,1.0625 0.48437,1.625 0.5,0.5625 1.20313,0.5625 0.67187,0 1.3125,-0.4375 0.64062,-0.4375 1,-1.25 z m -3.76563,-1.89062 h 4.26563 q 0.0156,-0.20313 0.0156,-0.28125 0,-0.96875 -0.48437,-1.48438 -0.48438,-0.53125 -1.25,-0.53125 -0.84375,0 -1.53125,0.57813 -0.67188,0.5625 -1.01563,1.71875 z m 8.2605,4.46875 -1.25,-7.59375 h 1.26563 l 0.64062,4.1875 q 0.10938,0.67187 0.26563,2.23437 0.375,-0.8125 0.95312,-1.85937 l 2.54688,-4.5625 h 1.35937 l -4.34375,7.59375 z m 7.25,-9.03125 0.3125,-1.45313 h 1.28125 l -0.3125,1.45313 z m -1.89062,9.03125 1.59375,-7.59375 h 1.29687 l -1.59375,7.59375 z m 3.53741,-2.89063 q 0,-2.21875 1.3125,-3.67187 1.07813,-1.20313 2.82813,-1.20313 1.375,0 2.21875,0.85938 0.84375,0.85937 0.84375,2.3125 0,1.3125 -0.53125,2.4375 -0.53125,1.125 -1.51563,1.73437 -0.96875,0.59375 -2.04687,0.59375 -0.89063,0 -1.625,-0.375 -0.71875,-0.39062 -1.10938,-1.07812 -0.375,-0.6875 -0.375,-1.60938 z m 1.29688,-0.125 q 0,1.07813 0.51562,1.64063 0.51563,0.54687 1.29688,0.54687 0.42187,0 0.82812,-0.17187 0.40625,-0.17188 0.75,-0.51563 0.35938,-0.34375 0.60938,-0.78125 0.25,-0.4375 0.39062,-0.9375 0.23438,-0.71875 0.23438,-1.35937 0,-1.03125 -0.53125,-1.59375 -0.51563,-0.57813 -1.29688,-0.57813 -0.60937,0 -1.10937,0.29688 -0.5,0.28125 -0.90625,0.84375 -0.40625,0.54687 -0.59375,1.29687 -0.1875,0.73438 -0.1875,1.3125 z m 11.80737,1.64063 q -1.35938,1.54687 -2.79688,1.54687 -0.875,0 -1.42187,-0.5 -0.53125,-0.51562 -0.53125,-1.23437 0,-0.48438 0.23437,-1.65625 l 0.92188,-4.375 h 1.29687 l -1.01562,4.85937 q -0.14063,0.60938 -0.14063,0.9375 0,0.4375 0.26563,0.67188 0.26562,0.23437 0.76562,0.23437 0.54688,0 1.0625,-0.26562 0.53125,-0.26563 0.90625,-0.70313 0.375,-0.45312 0.60938,-1.07812 0.15625,-0.39063 0.35937,-1.375 l 0.6875,-3.28125 h 1.29688 l -1.59375,7.59375 h -1.1875 z m 3.08856,-1.21875 1.29688,-0.0781 q 0,0.54688 0.17187,0.95313 0.17188,0.39062 0.625,0.64062 0.46875,0.25 1.07813,0.25 0.85937,0 1.28125,-0.34375 0.4375,-0.34375 0.4375,-0.8125 0,-0.32812 -0.25,-0.64062 -0.26563,-0.29688 -1.29688,-0.73438 -1.03125,-0.4375 -1.3125,-0.625 -0.48437,-0.28125 -0.73437,-0.67187 -0.23438,-0.40625 -0.23438,-0.92188 0,-0.90625 0.71875,-1.54687 0.71875,-0.64063 2,-0.64063 1.4375,0 2.1875,0.65625 0.75,0.65625 0.76563,1.73438 l -1.26563,0.0937 q -0.0312,-0.6875 -0.48437,-1.07813 -0.45313,-0.40625 -1.29688,-0.40625 -0.67187,0 -1.04687,0.3125 -0.35938,0.29688 -0.35938,0.65625 0,0.35938 0.3125,0.625 0.21875,0.1875 1.10938,0.57813 1.48437,0.64062 1.875,1.01562 0.625,0.59375 0.625,1.45313 0,0.5625 -0.35938,1.10937 -0.34375,0.53125 -1.0625,0.85938 -0.70312,0.32812 -1.67187,0.32812 -1.3125,0 -2.23438,-0.65625 -0.92187,-0.64062 -0.875,-2.10937 z" />
  <path
     style="fill:#000000;fill-opacity:0;fill-rule:evenodd"
     inkscape:connector-curvature="0"
     id="path624"
     d="m 368.22046,56.49999 h 201.00787 v 24 H 368.22046 Z" />
  <path
     style="fill:#000000;fill-rule:nonzero"
     inkscape:connector-curvature="0"
     id="path626"
     d="m 378.18921,76.48623 v -10.5 h 1.17188 v 0.98437 q 0.42187,-0.57812 0.9375,-0.85937 0.51562,-0.29688 1.26562,-0.29688 0.96875,0 1.71875,0.5 0.75,0.5 1.125,1.42188 0.375,0.90625 0.375,1.98437 0,1.17188 -0.42187,2.10938 -0.40625,0.92187 -1.21875,1.42187 -0.79688,0.5 -1.67188,0.5 -0.64062,0 -1.15625,-0.26562 -0.51562,-0.28125 -0.84375,-0.6875 v 3.6875 z m 1.15625,-6.65625 q 0,1.45312 0.59375,2.15625 0.60938,0.70312 1.45313,0.70312 0.85937,0 1.46875,-0.71875 0.60937,-0.73437 0.60937,-2.25 0,-1.45312 -0.60937,-2.17187 -0.59375,-0.73438 -1.42188,-0.73438 -0.8125,0 -1.45312,0.78125 -0.64063,0.76563 -0.64063,2.23438 z m 11.948,2.8125 q -0.71875,0.60937 -1.375,0.85937 -0.65625,0.25 -1.42188,0.25 -1.25,0 -1.92187,-0.60937 -0.67188,-0.60938 -0.67188,-1.5625 0,-0.5625 0.25,-1.01563 0.25,-0.46875 0.65625,-0.75 0.42188,-0.28125 0.9375,-0.42187 0.375,-0.0937 1.14063,-0.1875 1.5625,-0.1875 2.29687,-0.45313 0.0156,-0.26562 0.0156,-0.32812 0,-0.79688 -0.375,-1.10938 -0.48438,-0.4375 -1.45313,-0.4375 -0.92187,0 -1.35937,0.32813 -0.42188,0.3125 -0.625,1.10937 l -1.26563,-0.17187 q 0.17188,-0.79688 0.5625,-1.29688 0.39063,-0.5 1.14063,-0.76562 0.75,-0.26563 1.71875,-0.26563 0.98437,0 1.59375,0.23438 0.60937,0.21875 0.89062,0.5625 0.28125,0.34375 0.40625,0.875 0.0625,0.32812 0.0625,1.1875 v 1.71875 q 0,1.79687 0.0781,2.28125 0.0781,0.46875 0.32812,0.90625 h -1.34375 q -0.20312,-0.40625 -0.26562,-0.9375 z m -0.10938,-2.875 q -0.70312,0.28125 -2.09375,0.48437 -0.79687,0.10938 -1.125,0.26563 -0.32812,0.14062 -0.51562,0.42187 -0.17188,0.26563 -0.17188,0.59375 0,0.51563 0.39063,0.85938 0.39062,0.34375 1.14062,0.34375 0.73438,0 1.3125,-0.3125 0.59375,-0.32813 0.85938,-0.89063 0.20312,-0.4375 0.20312,-1.29687 z m 6.11988,2.65625 0.1875,1.14062 q -0.54688,0.10938 -0.98438,0.10938 -0.6875,0 -1.07812,-0.21875 -0.39063,-0.21875 -0.54688,-0.57813 -0.15625,-0.35937 -0.15625,-1.51562 v -4.375 h -0.95312 v -1 h 0.95312 V 64.0956 l 1.28125,-0.76562 v 2.65625 h 1.29688 v 1 h -1.29688 v 4.4375 q 0,0.54687 0.0625,0.71875 0.0781,0.15625 0.21875,0.25 0.15625,0.0781 0.45313,0.0781 0.20312,0 0.5625,-0.0469 z m 1.25946,1.15625 V 63.0956 h 1.28125 v 3.75 q 0.90625,-1.03125 2.28125,-1.03125 0.84375,0 1.46875,0.32813 0.625,0.32812 0.89062,0.92187 0.26563,0.57813 0.26563,1.70313 v 4.8125 h -1.28125 v -4.8125 q 0,-0.96875 -0.42188,-1.40625 -0.42187,-0.4375 -1.1875,-0.4375 -0.57812,0 -1.07812,0.29687 -0.5,0.29688 -0.71875,0.8125 -0.21875,0.5 -0.21875,1.39063 v 4.15625 z m 17.14495,0 v -0.95313 q -0.71875,1.125 -2.125,1.125 -0.90625,0 -1.67187,-0.5 -0.75,-0.5 -1.17188,-1.39062 -0.42187,-0.90625 -0.42187,-2.07813 0,-1.14062 0.375,-2.0625 0.39062,-0.92187 1.14062,-1.40625 0.76563,-0.5 1.70313,-0.5 0.6875,0 1.21875,0.29688 0.53125,0.28125 0.875,0.73437 v -3.75 h 1.28125 v 10.48438 z m -4.0625,-3.79688 q 0,1.46875 0.60938,2.1875 0.625,0.71875 1.45312,0.71875 0.84375,0 1.4375,-0.6875 0.59375,-0.6875 0.59375,-2.10937 0,-1.5625 -0.60937,-2.28125 -0.59375,-0.73438 -1.48438,-0.73438 -0.84375,0 -1.42187,0.70313 -0.57813,0.70312 -0.57813,2.20312 z m 12.49488,1.34375 1.32812,0.17188 q -0.3125,1.17187 -1.17187,1.8125 -0.84375,0.64062 -2.17188,0.64062 -1.67187,0 -2.65625,-1.01562 -0.96875,-1.03125 -0.96875,-2.89063 0,-1.92187 0.98438,-2.96875 1,-1.0625 2.57812,-1.0625 1.51563,0 2.48438,1.03125 0.96875,1.03125 0.96875,2.92188 0,0.10937 -0.0156,0.34375 h -5.65625 q 0.0625,1.25 0.70313,1.92187 0.64062,0.65625 1.59375,0.65625 0.70312,0 1.20312,-0.35937 0.5,-0.375 0.79688,-1.20313 z m -4.23438,-2.07812 h 4.25 q -0.0937,-0.95313 -0.48437,-1.4375 -0.625,-0.75 -1.60938,-0.75 -0.875,0 -1.48437,0.59375 -0.60938,0.59375 -0.67188,1.59375 z m 7.49488,4.53125 v -6.59375 h -1.14063 v -1 h 1.14063 v -0.8125 q 0,-0.76563 0.125,-1.14063 0.1875,-0.5 0.65625,-0.8125 0.46875,-0.3125 1.3125,-0.3125 0.54687,0 1.20312,0.125 l -0.1875,1.125 q -0.40625,-0.0625 -0.76562,-0.0625 -0.57813,0 -0.82813,0.25 -0.23437,0.25 -0.23437,0.9375 v 0.70313 h 1.46875 v 1 h -1.46875 v 6.59375 z m 3.75946,-9.01563 V 63.0956 h 1.29687 v 1.46875 z m 0,9.01563 v -7.59375 h 1.29687 v 7.59375 z m 3.25616,0 v -7.59375 h 1.15625 v 1.07812 q 0.84375,-1.25 2.42188,-1.25 0.6875,0 1.26562,0.25 0.57813,0.23438 0.85938,0.64063 0.28125,0.40625 0.40625,0.95312 0.0625,0.35938 0.0625,1.25 v 4.67188 h -1.28125 v -4.625 q 0,-0.78125 -0.15625,-1.17188 -0.15625,-0.39062 -0.54688,-0.625 -0.375,-0.23437 -0.89062,-0.23437 -0.8125,0 -1.42188,0.53125 -0.59375,0.51562 -0.59375,1.96875 v 4.15625 z m 13.35419,-2.45313 1.32812,0.17188 q -0.3125,1.17187 -1.17187,1.8125 -0.84375,0.64062 -2.17188,0.64062 -1.67187,0 -2.65625,-1.01562 -0.96875,-1.03125 -0.96875,-2.89063 0,-1.92187 0.98438,-2.96875 1,-1.0625 2.57812,-1.0625 1.51563,0 2.48438,1.03125 0.96875,1.03125 0.96875,2.92188 0,0.10937 -0.0156,0.34375 h -5.65625 q 0.0625,1.25 0.70313,1.92187 0.64062,0.65625 1.59375,0.65625 0.70312,0 1.20312,-0.35937 0.5,-0.375 0.79688,-1.20313 z m -4.23438,-2.07812 h 4.25 q -0.0937,-0.95313 -0.48437,-1.4375 -0.625,-0.75 -1.60938,-0.75 -0.875,0 -1.48437,0.59375 -0.60938,0.59375 -0.67188,1.59375 z m 12.10425,4.53125 v -0.95313 q -0.71875,1.125 -2.125,1.125 -0.90625,0 -1.67187,-0.5 -0.75,-0.5 -1.17188,-1.39062 -0.42187,-0.90625 -0.42187,-2.07813 0,-1.14062 0.375,-2.0625 0.39062,-0.92187 1.14062,-1.40625 0.76563,-0.5 1.70313,-0.5 0.6875,0 1.21875,0.29688 0.53125,0.28125 0.875,0.73437 v -3.75 h 1.28125 v 10.48438 z m -4.0625,-3.79688 q 0,1.46875 0.60938,2.1875 0.625,0.71875 1.45312,0.71875 0.84375,0 1.4375,-0.6875 0.59375,-0.6875 0.59375,-2.10937 0,-1.5625 -0.60937,-2.28125 -0.59375,-0.73438 -1.48438,-0.73438 -0.84375,0 -1.42187,0.70313 -0.57813,0.70312 -0.57813,2.20312 z m 12.55121,3.79688 h -1.20313 V 63.0956 h 1.29688 v 3.73438 q 0.8125,-1.01563 2.07812,-1.01563 0.70313,0 1.32813,0.28125 0.625,0.28125 1.03125,0.79688 0.40625,0.5 0.625,1.23437 0.23437,0.71875 0.23437,1.53125 0,1.96875 -0.96875,3.03125 -0.95312,1.0625 -2.3125,1.0625 -1.34375,0 -2.10937,-1.125 z m -0.0156,-3.85938 q 0,1.375 0.375,1.98438 0.60938,0.98437 1.64063,0.98437 0.84375,0 1.45312,-0.73437 0.625,-0.73438 0.625,-2.1875 0,-1.48438 -0.59375,-2.1875 -0.59375,-0.71875 -1.42187,-0.71875 -0.84375,0 -1.46875,0.73437 -0.60938,0.73438 -0.60938,2.125 z m 6.91675,6.78125 -0.14062,-1.20312 q 0.42187,0.10937 0.73437,0.10937 0.4375,0 0.6875,-0.14062 0.26563,-0.14063 0.42188,-0.40625 0.125,-0.1875 0.39062,-0.95313 0.0469,-0.10937 0.125,-0.3125 l -2.89062,-7.60937 h 1.39062 l 1.57813,4.39062 q 0.3125,0.84375 0.54687,1.76563 0.23438,-0.89063 0.53125,-1.73438 l 1.625,-4.42187 h 1.29688 l -2.89066,7.71875 q -0.46875,1.25 -0.73437,1.73437 -0.34375,0.625 -0.78125,0.92188 -0.4375,0.29687 -1.0625,0.29687 -0.375,0 -0.82813,-0.15625 z" />
  <path
     style="fill:#000000;fill-rule:nonzero"
     inkscape:connector-curvature="0"
     id="path628"
     d="m 482.00897,73.57999 1.59375,-7.59375 h 1.17187 l -0.28125,1.3125 q 0.76563,-0.78125 1.42188,-1.125 0.67187,-0.35938 1.375,-0.35938 0.92187,0 1.4375,0.5 0.53125,0.5 0.53125,1.32813 0,0.42187 -0.1875,1.34375 l -0.96875,4.59375 h -1.29688 l 1.01563,-4.8125 q 0.15625,-0.70313 0.15625,-1.04688 0,-0.375 -0.26563,-0.60937 -0.26562,-0.23438 -0.75,-0.23438 -1,0 -1.78125,0.71875 -0.76562,0.70313 -1.14062,2.45313 l -0.73438,3.53125 z m 13.72925,-2.57813 1.26562,0.125 q -0.26562,0.9375 -1.25,1.78125 -0.96875,0.84375 -2.32812,0.84375 -0.84375,0 -1.54688,-0.39062 -0.70312,-0.39063 -1.07812,-1.125 -0.35938,-0.75 -0.35938,-1.70313 0,-1.25 0.5625,-2.42187 0.57813,-1.17188 1.5,-1.73438 0.92188,-0.5625 1.98438,-0.5625 1.35937,0 2.17187,0.84375 0.8125,0.84375 0.8125,2.29688 0,0.5625 -0.10937,1.14062 h -5.59375 q -0.0312,0.23438 -0.0312,0.40625 0,1.0625 0.48437,1.625 0.5,0.5625 1.20313,0.5625 0.67187,0 1.3125,-0.4375 0.64062,-0.4375 1,-1.25 z m -3.76563,-1.89062 h 4.26563 q 0.0156,-0.20313 0.0156,-0.28125 0,-0.96875 -0.48437,-1.48438 -0.48438,-0.53125 -1.25,-0.53125 -0.84375,0 -1.53125,0.57813 -0.67188,0.5625 -1.01563,1.71875 z m 5.83863,4.46875 3.29687,-3.85938 -1.89062,-3.73437 h 1.42187 l 0.65625,1.34375 q 0.35938,0.76562 0.64063,1.45312 l 2.1875,-2.79687 h 1.57812 l -3.1875,3.84375 1.92188,3.75 h -1.4375 l -0.75,-1.54688 q -0.25,-0.5 -0.5625,-1.21875 l -2.25,2.76563 z m 10.85937,-1.04688 -0.21875,1.04688 q -0.46875,0.125 -0.90625,0.125 -0.76562,0 -1.21875,-0.375 -0.34375,-0.28125 -0.34375,-0.78125 0,-0.25 0.1875,-1.15625 l 0.92188,-4.40625 h -1.03125 l 0.20312,-1 h 1.03125 l 0.39063,-1.875 1.48437,-0.89063 -0.57812,2.76563 h 1.26562 l -0.20312,1 h -1.26563 l -0.89062,4.20312 q -0.15625,0.79688 -0.15625,0.95313 0,0.23437 0.125,0.35937 0.14062,0.10938 0.4375,0.10938 0.42187,0 0.76562,-0.0781 z" />
  <path
     style="fill:#eaf5ff;fill-rule:evenodd"
     inkscape:connector-curvature="0"
     id="path630"
     d="m 0,60.49999 v 0 C 0,49.68914 8.76395,40.92519 19.5748,40.92519 v 0 c 5.19156,0 10.1705,2.06235 13.84149,5.73334 3.67099,3.67096 5.73331,8.6499 5.73331,13.84146 v 0 c 0,10.81085 -8.76392,19.5748 -19.5748,19.5748 v 0 C 8.76395,80.07479 0,71.31084 0,60.49999 Z" />
  <path
     style="fill:#ffffff;fill-rule:nonzero"
     inkscape:connector-curvature="0"
     id="path632"
     d="m 15.76459,68.47059 v -9.64063 q 0,-2.25 1.10937,-3.07812 1.10938,-0.84375 2.45313,-0.84375 1.35937,0 2.28125,0.76562 0.9375,0.75 0.9375,1.95313 0,0.79687 -0.5,1.39062 -0.5,0.59375 -1.25,0.78125 1.20312,0.20313 1.76562,1.03125 0.5625,0.82813 0.5625,1.85938 0,1.26562 -0.76562,2.17187 -0.75,0.89063 -2.0625,0.89063 -1.5,0 -2.51563,-1.28125 v 4 z m 2.92187,-9.125 q 0.90625,-0.0156 1.42188,-0.4375 0.51562,-0.42188 0.51562,-1.07813 0,-0.59375 -0.40625,-0.95312 -0.40625,-0.375 -0.98437,-0.375 -0.5,0 -0.85938,0.3125 -0.35937,0.29687 -0.48437,0.78125 -0.10938,0.46875 -0.10938,1.39062 v 2.15625 q 0,0.98438 0.15625,1.57813 0.17188,0.57812 0.67188,1.01562 0.51562,0.42188 1.10937,0.42188 0.57813,0 0.95313,-0.42188 0.39062,-0.42187 0.39062,-1.09375 0,-0.96875 -0.57812,-1.57812 -0.57813,-0.60938 -1.79688,-0.60938 z" />
  <path
     style="fill:#000000;fill-opacity:0;fill-rule:evenodd"
     inkscape:connector-curvature="0"
     id="path634"
     d="M 39.14961,60.49999 H 82.64567" />
  <path
     style="fill-rule:evenodd;stroke:#999999;stroke-width:1;stroke-linecap:butt;stroke-linejoin:round"
     inkscape:connector-curvature="0"
     id="path636"
     d="M 39.14961,60.49999 H 76.64567" />
  <path
     style="fill:#999999;fill-rule:evenodd;stroke:#999999;stroke-width:1;stroke-linecap:butt"
     inkscape:connector-curvature="0"
     id="path638"
     d="m 76.64566,62.15172 4.53812,-1.65173 -4.53812,-1.65174 z" />
  <path
     style="fill:#ea9999;fill-rule:evenodd"
     inkscape:connector-curvature="0"
     id="path640"
     d="m 0,156.49999 v 0 c 0,-10.81085 8.76395,-19.5748 19.5748,-19.5748 v 0 c 5.19156,0 10.1705,2.06235 13.84149,5.73334 3.67099,3.67096 5.73331,8.6499 5.73331,13.84146 v 0 c 0,10.81085 -8.76392,19.57483 -19.5748,19.57483 v 0 C 8.76395,176.07482 0,167.31084 0,156.49999 Z" />
  <path
     style="fill:#ffffff;fill-rule:nonzero"
     inkscape:connector-curvature="0"
     id="path642"
     d="m 21.54584,153.98623 h 1.71875 q -0.40625,0.82812 -0.6875,2.125 -0.26563,1.28125 -0.26563,1.79687 0,0.67188 0.25,1.75 0.25,1.0625 0.625,1.92188 h -1.6875 q -0.0312,-0.14063 -0.125,-0.40625 -0.15625,-0.42188 -0.26562,-0.85938 -0.875,1.4375 -2.51563,1.4375 -1.53125,0 -2.42187,-1.25 -0.875,-1.25 -0.875,-2.92187 0,-1.5625 0.875,-2.65625 0.875,-1.10938 2.45312,-1.10938 1.54688,0 2.5,1.46875 0.125,-0.51562 0.42188,-1.29687 z m -4.1875,3.8125 q 0,1.04687 0.4375,1.70312 0.45312,0.65625 1.17187,0.65625 0.6875,0 1.125,-0.57812 0.4375,-0.57813 0.4375,-1.78125 0,-1.17188 -0.46875,-1.78125 -0.46875,-0.60938 -1.125,-0.60938 -0.6875,0 -1.14062,0.625 -0.4375,0.625 -0.4375,1.76563 z" />
  <path
     style="fill:#000000;fill-opacity:0;fill-rule:evenodd"
     inkscape:connector-curvature="0"
     id="path644"
     d="M 39.14961,156.49999 H 210.64567" />
  <path
     style="fill-rule:evenodd;stroke:#999999;stroke-width:1;stroke-linecap:butt;stroke-linejoin:round"
     inkscape:connector-curvature="0"
     id="path646"
     d="M 39.14961,156.49999 H 204.64567" />
  <path
     style="fill:#999999;fill-rule:evenodd;stroke:#999999;stroke-width:1;stroke-linecap:butt"
     inkscape:connector-curvature="0"
     id="path648"
     d="m 204.64566,158.15172 4.53812,-1.65173 -4.53812,-1.65174 z" />
</svg>
