<?xml version="1.0" encoding="UTF-8" standalone="no"?>
<svg
   xmlns:dc="http://purl.org/dc/elements/1.1/"
   xmlns:cc="http://creativecommons.org/ns#"
   xmlns:rdf="http://www.w3.org/1999/02/22-rdf-syntax-ns#"
   xmlns:svg="http://www.w3.org/2000/svg"
   xmlns="http://www.w3.org/2000/svg"
   xmlns:sodipodi="http://sodipodi.sourceforge.net/DTD/sodipodi-0.dtd"
   xmlns:inkscape="http://www.inkscape.org/namespaces/inkscape"
   version="1.1"
   viewBox="0 0 870 444.534"
   stroke-miterlimit="10"
   id="svg394"
   sodipodi:docname="1.svg"
   width="870"
   height="444.534"
   style="fill:none;stroke:none;stroke-linecap:square;stroke-miterlimit:10"
   inkscape:version="0.92.2 (5c3e80d, 2017-08-06)">
  <metadata
     id="metadata400">
    <rdf:RDF>
      <cc:Work
         rdf:about="">
        <dc:format>image/svg+xml</dc:format>
        <dc:type
           rdf:resource="http://purl.org/dc/dcmitype/StillImage" />
        <dc:title></dc:title>
      </cc:Work>
    </rdf:RDF>
  </metadata>
  <defs
     id="defs398" />
  <sodipodi:namedview
     pagecolor="#ffffff"
     bordercolor="#666666"
     borderopacity="1"
     objecttolerance="10"
     gridtolerance="10"
     guidetolerance="10"
     inkscape:pageopacity="0"
     inkscape:pageshadow="2"
     inkscape:window-width="1920"
     inkscape:window-height="1016"
     id="namedview396"
     showgrid="false"
     fit-margin-top="0"
     fit-margin-left="0"
     fit-margin-right="0"
     fit-margin-bottom="0"
     inkscape:zoom="0.95486111"
     inkscape:cx="435"
     inkscape:cy="180.03529"
     inkscape:window-x="0"
     inkscape:window-y="27"
     inkscape:window-maximized="1"
     inkscape:current-layer="svg394" />
  <clipPath
     id="p.0">
    <path
       d="M 0,0 H 1152 V 864 H 0 Z"
       id="path287"
       inkscape:connector-curvature="0"
       style="clip-rule:nonzero" />
  </clipPath>
  <path
     style="fill:#000000;fill-opacity:0;fill-rule:evenodd"
     inkscape:connector-curvature="0"
     id="path290"
     d="m -141,-167.50131 h 1152 v 864 H -141 Z" />
  <path
     style="fill:#fce5cd;fill-rule:evenodd"
     inkscape:connector-curvature="0"
     id="path292"
     d="m 32.83333,86.5 h 129.33333 c 17.85721,0 32.33334,17.23703 32.33334,38.5 0,21.26297 -14.47613,38.5 -32.33334,38.5 H 32.83333 v 0 C 14.97612,163.5 0.5,146.26297 0.5,125 0.5,103.73703 14.97612,86.5 32.83333,86.5 Z" />
  <path
     style="fill:#000000;fill-opacity:0;fill-rule:evenodd"
     inkscape:connector-curvature="0"
     id="path294"
     d="m 162.16666,163.49999 c -17.85721,0 -32.33331,-17.23703 -32.33331,-38.5 0,-21.26297 14.4761,-38.5 32.33331,-38.5" />
  <path
     style="fill:#000000;fill-opacity:0;fill-rule:evenodd"
     inkscape:connector-curvature="0"
     id="path296"
     d="m 32.83333,86.5 h 129.33333 c 17.85721,0 32.33334,17.23703 32.33334,38.5 0,21.26297 -14.47613,38.5 -32.33334,38.5 H 32.83333 v 0 C 14.97612,163.5 0.5,146.26297 0.5,125 0.5,103.73703 14.97612,86.5 32.83333,86.5 Z" />
  <path
     style="fill-rule:evenodd;stroke:#000000;stroke-width:1;stroke-linecap:butt;stroke-linejoin:round"
     inkscape:connector-curvature="0"
     id="path298"
     d="m 162.16666,163.49999 c -17.85721,0 -32.33331,-17.23703 -32.33331,-38.5 0,-21.26297 14.4761,-38.5 32.33331,-38.5" />
  <path
     style="fill-rule:evenodd;stroke:#000000;stroke-width:1;stroke-linecap:butt;stroke-linejoin:round"
     inkscape:connector-curvature="0"
     id="path300"
     d="m 32.83333,86.5 h 129.33333 c 17.85721,0 32.33334,17.23703 32.33334,38.5 0,21.26297 -14.47613,38.5 -32.33334,38.5 H 32.83333 v 0 C 14.97612,163.5 0.5,146.26297 0.5,125 0.5,103.73703 14.97612,86.5 32.83333,86.5 Z" />
  <path
     style="fill:#000000;fill-rule:nonzero"
     inkscape:connector-curvature="0"
     id="path302"
     d="m 70.60034,130.48252 q 1.23437,0.85937 2.26562,1.25 l -0.51562,1.21875 q -1.4375,-0.51563 -2.875,-1.625 -1.48438,0.82812 -3.28125,0.82812 -1.8125,0 -3.29688,-0.875 -1.46875,-0.875 -2.26562,-2.45312 -0.79688,-1.59375 -0.79688,-3.57813 0,-1.98437 0.79688,-3.59375 0.8125,-1.625 2.28125,-2.46875 1.48437,-0.85937 3.32812,-0.85937 1.84375,0 3.32813,0.89062 1.48437,0.875 2.26562,2.45313 0.78125,1.57812 0.78125,3.5625 0,1.65625 -0.5,2.96875 -0.5,1.3125 -1.51562,2.28125 z m -3.89063,-2.25 q 1.53125,0.42187 2.51563,1.28125 1.5625,-1.42188 1.5625,-4.28125 0,-1.625 -0.54688,-2.82813 -0.54687,-1.21875 -1.60937,-1.875 -1.0625,-0.67187 -2.39063,-0.67187 -1.96875,0 -3.28125,1.35937 -1.29687,1.34375 -1.29687,4.03125 0,2.59375 1.28125,4 1.29687,1.39063 3.29687,1.39063 0.95313,0 1.78125,-0.35938 -0.82812,-0.53125 -1.75,-0.76562 z m 14.40206,3.6875 v -1.42188 q -1.125,1.64063 -3.0625,1.64063 -0.85938,0 -1.60938,-0.32813 -0.73437,-0.32812 -1.09375,-0.82812 -0.35937,-0.5 -0.5,-1.21875 -0.10937,-0.46875 -0.10937,-1.53125 v -5.98438 h 1.64062 v 5.35938 q 0,1.28125 0.10938,1.73437 0.15625,0.64063 0.65625,1.01563 0.5,0.375 1.23437,0.375 0.73438,0 1.375,-0.375 0.65625,-0.39063 0.92188,-1.03125 0.26562,-0.65625 0.26562,-1.89063 v -5.1875 h 1.64063 v 9.67188 z m 10.36009,-1.1875 q -0.92187,0.76562 -1.76562,1.09375 -0.82813,0.3125 -1.79688,0.3125 -1.59375,0 -2.45312,-0.78125 -0.85938,-0.78125 -0.85938,-1.98438 0,-0.71875 0.32813,-1.29687 0.32812,-0.59375 0.84375,-0.9375 0.53125,-0.35938 1.1875,-0.54688 0.46875,-0.125 1.45312,-0.25 1.98438,-0.23437 2.92188,-0.5625 0.0156,-0.34375 0.0156,-0.42187 0,-1 -0.46875,-1.42188 -0.625,-0.54687 -1.875,-0.54687 -1.15625,0 -1.70312,0.40625 -0.54688,0.40625 -0.8125,1.42187 l -1.60938,-0.21875 q 0.21875,-1.01562 0.71875,-1.64062 0.5,-0.64063 1.45313,-0.98438 0.95312,-0.34375 2.1875,-0.34375 1.25,0 2.01562,0.29688 0.78125,0.28125 1.14063,0.73437 0.375,0.4375 0.51562,1.10938 0.0781,0.42187 0.0781,1.51562 v 2.1875 q 0,2.28125 0.10937,2.89063 0.10938,0.59375 0.40625,1.15625 h -1.70312 q -0.26563,-0.51563 -0.32813,-1.1875 z m -0.14062,-3.67188 q -0.89063,0.375 -2.67188,0.625 -1.01562,0.14063 -1.4375,0.32813 -0.42187,0.1875 -0.65625,0.53125 -0.21875,0.34375 -0.21875,0.78125 0,0.65625 0.5,1.09375 0.5,0.4375 1.45313,0.4375 0.9375,0 1.67187,-0.40625 0.75,-0.42188 1.09375,-1.14063 0.26563,-0.5625 0.26563,-1.64062 z m 4.12571,8.57813 -0.1875,-1.53125 q 0.54688,0.14062 0.9375,0.14062 0.54688,0 0.875,-0.1875 0.32813,-0.17187 0.54688,-0.5 0.15625,-0.25 0.5,-1.21875 0.0469,-0.14062 0.14062,-0.40625 l -3.67187,-9.6875 h 1.76562 l 2.01563,5.59375 q 0.39062,1.07813 0.70312,2.25 0.28125,-1.125 0.67188,-2.20312 l 2.07812,-5.64063 h 1.64063 l -3.6875,9.82813 q -0.59375,1.60937 -0.92188,2.20312 -0.4375,0.8125 -1,1.1875 -0.5625,0.375 -1.34375,0.375 -0.48437,0 -1.0625,-0.20312 z" />
  <path
     style="fill:#cfe2f3;fill-rule:evenodd"
     inkscape:connector-curvature="0"
     id="path304"
     d="m 268.5,92.49999 h 151 v 65 h -151 z" />
  <path
     style="fill-rule:evenodd;stroke:#000000;stroke-width:1;stroke-linecap:butt;stroke-linejoin:round"
     inkscape:connector-curvature="0"
     id="path306"
     d="m 268.5,92.49999 h 151 v 65 h -151 z" />
  <path
     style="fill:#000000;fill-rule:nonzero"
     inkscape:connector-curvature="0"
     id="path308"
     d="m 304.74973,119.48252 q 1.23437,0.85937 2.26562,1.25 l -0.51562,1.21875 q -1.4375,-0.51563 -2.875,-1.625 -1.48438,0.82812 -3.28125,0.82812 -1.8125,0 -3.29688,-0.875 -1.46875,-0.875 -2.26562,-2.45312 -0.79688,-1.59375 -0.79688,-3.57813 0,-1.98437 0.79688,-3.59375 0.8125,-1.625 2.28125,-2.46875 1.48437,-0.85937 3.32812,-0.85937 1.84375,0 3.32813,0.89062 1.48437,0.875 2.26562,2.45313 0.78125,1.57812 0.78125,3.5625 0,1.65625 -0.5,2.96875 -0.5,1.3125 -1.51562,2.28125 z m -3.89063,-2.25 q 1.53125,0.42187 2.51563,1.28125 1.5625,-1.42188 1.5625,-4.28125 0,-1.625 -0.54688,-2.82813 -0.54687,-1.21875 -1.60937,-1.875 -1.0625,-0.67187 -2.39063,-0.67187 -1.96875,0 -3.28125,1.35937 -1.29687,1.34375 -1.29687,4.03125 0,2.59375 1.28125,4 1.29687,1.39063 3.29687,1.39063 0.95313,0 1.78125,-0.35938 -0.82812,-0.53125 -1.75,-0.76562 z m 14.40207,3.6875 v -1.42188 q -1.125,1.64063 -3.0625,1.64063 -0.85937,0 -1.60937,-0.32813 -0.73438,-0.32812 -1.09375,-0.82812 -0.35938,-0.5 -0.5,-1.21875 -0.10938,-0.46875 -0.10938,-1.53125 v -5.98438 h 1.64063 v 5.35938 q 0,1.28125 0.10937,1.73437 0.15625,0.64063 0.65625,1.01563 0.5,0.375 1.23438,0.375 0.73437,0 1.375,-0.375 0.65625,-0.39063 0.92187,-1.03125 0.26563,-0.65625 0.26563,-1.89063 v -5.1875 h 1.64062 v 9.67188 z m 10.36008,-1.1875 q -0.92187,0.76562 -1.76562,1.09375 -0.82813,0.3125 -1.79688,0.3125 -1.59375,0 -2.45312,-0.78125 -0.85938,-0.78125 -0.85938,-1.98438 0,-0.71875 0.32813,-1.29687 0.32812,-0.59375 0.84375,-0.9375 0.53125,-0.35938 1.1875,-0.54688 0.46875,-0.125 1.45312,-0.25 1.98438,-0.23437 2.92188,-0.5625 0.0156,-0.34375 0.0156,-0.42187 0,-1 -0.46875,-1.42188 -0.625,-0.54687 -1.875,-0.54687 -1.15625,0 -1.70312,0.40625 -0.54688,0.40625 -0.8125,1.42187 l -1.60938,-0.21875 q 0.21875,-1.01562 0.71875,-1.64062 0.5,-0.64063 1.45313,-0.98438 0.95312,-0.34375 2.1875,-0.34375 1.25,0 2.01562,0.29688 0.78125,0.28125 1.14063,0.73437 0.375,0.4375 0.51562,1.10938 0.0781,0.42187 0.0781,1.51562 v 2.1875 q 0,2.28125 0.10937,2.89063 0.10938,0.59375 0.40625,1.15625 h -1.70312 q -0.26563,-0.51563 -0.32813,-1.1875 z m -0.14062,-3.67188 q -0.89063,0.375 -2.67188,0.625 -1.01562,0.14063 -1.4375,0.32813 -0.42187,0.1875 -0.65625,0.53125 -0.21875,0.34375 -0.21875,0.78125 0,0.65625 0.5,1.09375 0.5,0.4375 1.45313,0.4375 0.9375,0 1.67187,-0.40625 0.75,-0.42188 1.09375,-1.14063 0.26563,-0.5625 0.26563,-1.64062 z m 4.1257,8.57813 -0.1875,-1.53125 q 0.54687,0.14062 0.9375,0.14062 0.54687,0 0.875,-0.1875 0.32812,-0.17187 0.54687,-0.5 0.15625,-0.25 0.5,-1.21875 0.0469,-0.14062 0.14063,-0.40625 l -3.67188,-9.6875 h 1.76563 l 2.01562,5.59375 q 0.39063,1.07813 0.70313,2.25 0.28125,-1.125 0.67187,-2.20312 l 2.07813,-5.64063 h 1.64062 l -3.6875,9.82813 q -0.59375,1.60937 -0.92187,2.20312 -0.4375,0.8125 -1,1.1875 -0.5625,0.375 -1.34375,0.375 -0.48438,0 -1.0625,-0.20312 z m 21.04269,-8.95313 v -1.57812 h 5.65625 v 4.95312 q -1.29687,1.04688 -2.6875,1.57813 -1.375,0.51562 -2.84375,0.51562 -1.96875,0 -3.57812,-0.84375 -1.60938,-0.84375 -2.42188,-2.4375 -0.8125,-1.59375 -0.8125,-3.5625 0,-1.95312 0.8125,-3.64062 0.8125,-1.6875 2.34375,-2.5 1.53125,-0.82813 3.51563,-0.82813 1.45312,0 2.625,0.46875 1.17187,0.46875 1.82812,1.3125 0.67188,0.82813 1.01563,2.17188 l -1.59375,0.4375 q -0.29688,-1.01563 -0.75,-1.59375 -0.4375,-0.59375 -1.26563,-0.9375 -0.82812,-0.34375 -1.84375,-0.34375 -1.20312,0 -2.09375,0.375 -0.89062,0.35937 -1.4375,0.96875 -0.53125,0.59375 -0.82812,1.3125 -0.51563,1.23437 -0.51563,2.6875 0,1.78125 0.60938,2.98437 0.625,1.20313 1.79687,1.79688 1.17188,0.57812 2.5,0.57812 1.14063,0 2.23438,-0.4375 1.09375,-0.45312 1.65625,-0.95312 v -2.48438 z m 8.0427,5.23438 v -9.67188 h 1.46875 v 1.46875 q 0.5625,-1.03125 1.03125,-1.35937 0.48437,-0.32813 1.0625,-0.32813 0.82812,0 1.6875,0.53125 l -0.5625,1.51563 q -0.60938,-0.35938 -1.20313,-0.35938 -0.54687,0 -0.96875,0.32813 -0.42187,0.32812 -0.60937,0.89062 -0.28125,0.875 -0.28125,1.92188 v 5.0625 z m 12.54077,-1.1875 q -0.92188,0.76562 -1.76563,1.09375 -0.82812,0.3125 -1.79687,0.3125 -1.59375,0 -2.45313,-0.78125 -0.85937,-0.78125 -0.85937,-1.98438 0,-0.71875 0.32812,-1.29687 0.32813,-0.59375 0.84375,-0.9375 0.53125,-0.35938 1.1875,-0.54688 0.46875,-0.125 1.45313,-0.25 1.98437,-0.23437 2.92187,-0.5625 0.0156,-0.34375 0.0156,-0.42187 0,-1 -0.46875,-1.42188 -0.625,-0.54687 -1.875,-0.54687 -1.15625,0 -1.70313,0.40625 -0.54687,0.40625 -0.8125,1.42187 l -1.60937,-0.21875 q 0.21875,-1.01562 0.71875,-1.64062 0.5,-0.64063 1.45312,-0.98438 0.95313,-0.34375 2.1875,-0.34375 1.25,0 2.01563,0.29688 0.78125,0.28125 1.14062,0.73437 0.375,0.4375 0.51563,1.10938 0.0781,0.42187 0.0781,1.51562 v 2.1875 q 0,2.28125 0.10938,2.89063 0.10937,0.59375 0.40625,1.15625 h -1.70313 q -0.26562,-0.51563 -0.32812,-1.1875 z m -0.14063,-3.67188 q -0.89062,0.375 -2.67187,0.625 -1.01563,0.14063 -1.4375,0.32813 -0.42188,0.1875 -0.65625,0.53125 -0.21875,0.34375 -0.21875,0.78125 0,0.65625 0.5,1.09375 0.5,0.4375 1.45312,0.4375 0.9375,0 1.67188,-0.40625 0.75,-0.42188 1.09375,-1.14063 0.26562,-0.5625 0.26562,-1.64062 z m 4.20386,8.5625 v -13.375 h 1.48437 v 1.25 q 0.53125,-0.73437 1.1875,-1.09375 0.67188,-0.375 1.625,-0.375 1.23438,0 2.17188,0.64063 0.95312,0.625 1.4375,1.79687 0.48437,1.15625 0.48437,2.54688 0,1.48437 -0.53125,2.67187 -0.53125,1.1875 -1.54687,1.82813 -1.01563,0.625 -2.14063,0.625 -0.8125,0 -1.46875,-0.34375 -0.65625,-0.34375 -1.0625,-0.875 v 4.70312 z m 1.48437,-8.48437 q 0,1.85937 0.75,2.76562 0.76563,0.89063 1.82813,0.89063 1.09375,0 1.875,-0.92188 0.78125,-0.9375 0.78125,-2.875 0,-1.84375 -0.76563,-2.76562 -0.75,-0.92188 -1.8125,-0.92188 -1.04687,0 -1.85937,0.98438 -0.79688,0.96875 -0.79688,2.84375 z m 8.89136,4.78125 v -13.35938 h 1.64063 v 4.79688 q 1.14062,-1.32813 2.89062,-1.32813 1.07813,0 1.85938,0.42188 0.79687,0.42187 1.14062,1.17187 0.34375,0.75 0.34375,2.17188 v 6.125 h -1.64062 v -6.125 q 0,-1.23438 -0.53125,-1.79688 -0.53125,-0.5625 -1.51563,-0.5625 -0.71875,0 -1.35937,0.39063 -0.64063,0.375 -0.92188,1.01562 -0.26562,0.64063 -0.26562,1.78125 v 5.29688 z" />
  <path
     style="fill:#000000;fill-rule:nonzero"
     inkscape:connector-curvature="0"
     id="path310"
     d="m 316.32285,142.92002 v -13.35938 h 5.01563 q 1.53125,0 2.45312,0.40625 0.92188,0.40625 1.4375,1.25 0.53125,0.84375 0.53125,1.76563 0,0.85937 -0.46875,1.625 -0.45312,0.75 -1.39062,1.20312 1.20312,0.35938 1.85937,1.21875 0.65625,0.85938 0.65625,2.01563 0,0.9375 -0.40625,1.75 -0.39062,0.79687 -0.98437,1.23437 -0.57813,0.4375 -1.45313,0.67188 -0.875,0.21875 -2.15625,0.21875 z m 1.78125,-7.75 h 2.875 q 1.1875,0 1.6875,-0.14063 0.67188,-0.20312 1.01563,-0.67187 0.34375,-0.46875 0.34375,-1.17188 0,-0.65625 -0.32813,-1.15625 -0.3125,-0.51562 -0.90625,-0.70312 -0.59375,-0.1875 -2.03125,-0.1875 h -2.65625 z m 0,6.17187 h 3.3125 q 0.85938,0 1.20313,-0.0625 0.60937,-0.10937 1.01562,-0.35937 0.42188,-0.26563 0.6875,-0.75 0.26563,-0.48438 0.26563,-1.125 0,-0.75 -0.39063,-1.29688 -0.375,-0.54687 -1.0625,-0.76562 -0.67187,-0.23438 -1.95312,-0.23438 h -3.07813 z m 16.86545,1.57813 v -1.42188 q -1.125,1.64063 -3.0625,1.64063 -0.85938,0 -1.60938,-0.32813 -0.73437,-0.32812 -1.09375,-0.82812 -0.35937,-0.5 -0.5,-1.21875 -0.10937,-0.46875 -0.10937,-1.53125 v -5.98438 h 1.64062 v 5.35938 q 0,1.28125 0.10938,1.73437 0.15625,0.64063 0.65625,1.01563 0.5,0.375 1.23437,0.375 0.73438,0 1.375,-0.375 0.65625,-0.39063 0.92188,-1.03125 0.26562,-0.65625 0.26562,-1.89063 v -5.1875 h 1.64063 v 9.67188 z m 4.04761,-11.46875 v -1.89063 h 1.64062 v 1.89063 z m 0,11.46875 v -9.67188 h 1.64062 v 9.67188 z m 4.09793,0 v -13.35938 h 1.64062 v 13.35938 z m 10.45733,0 v -1.21875 q -0.90625,1.4375 -2.70312,1.4375 -1.15625,0 -2.125,-0.64063 -0.96875,-0.64062 -1.5,-1.78125 -0.53125,-1.14062 -0.53125,-2.625 0,-1.45312 0.48437,-2.625 0.48438,-1.1875 1.4375,-1.8125 0.96875,-0.625 2.17188,-0.625 0.875,0 1.54687,0.375 0.6875,0.35938 1.10938,0.95313 v -4.79688 h 1.64062 v 13.35938 z m -5.17187,-4.82813 q 0,1.85938 0.78125,2.78125 0.78125,0.92188 1.84375,0.92188 1.07812,0 1.82812,-0.875 0.75,-0.89063 0.75,-2.6875 0,-1.98438 -0.76562,-2.90625 -0.76563,-0.9375 -1.89063,-0.9375 -1.07812,0 -1.8125,0.89062 -0.73437,0.89063 -0.73437,2.8125 z m 15.90695,1.71875 1.6875,0.20313 q -0.40625,1.48437 -1.48438,2.3125 -1.07812,0.8125 -2.76562,0.8125 -2.125,0 -3.375,-1.29688 -1.23438,-1.3125 -1.23438,-3.67187 0,-2.45313 1.25,-3.79688 1.26563,-1.34375 3.26563,-1.34375 1.9375,0 3.15625,1.32813 1.23437,1.3125 1.23437,3.70312 0,0.15625 0,0.4375 h -7.21875 q 0.0937,1.59375 0.90625,2.45313 0.8125,0.84375 2.01563,0.84375 0.90625,0 1.54687,-0.46875 0.64063,-0.48438 1.01563,-1.51563 z m -5.39063,-2.65625 h 5.40625 q -0.10937,-1.21875 -0.625,-1.82812 -0.78125,-0.95313 -2.03125,-0.95313 -1.125,0 -1.90625,0.76563 -0.76562,0.75 -0.84375,2.01562 z m 9.12574,5.76563 v -9.67188 h 1.46875 v 1.46875 q 0.5625,-1.03125 1.03125,-1.35937 0.48437,-0.32813 1.0625,-0.32813 0.82812,0 1.6875,0.53125 l -0.5625,1.51563 q -0.60938,-0.35938 -1.20313,-0.35938 -0.54687,0 -0.96875,0.32813 -0.42187,0.32812 -0.60937,0.89062 -0.28125,0.875 -0.28125,1.92188 v 5.0625 z" />
  <path
     style="fill:#000000;fill-opacity:0;fill-rule:evenodd"
     inkscape:connector-curvature="0"
     id="path312"
     d="m 194.5,124.99999 c 18.49988,0 27.74777,0.0157 36.99972,0.0315 9.25199,0.0158 18.50803,0.0315 37.01603,0.0315" />
  <path
     style="fill-rule:evenodd;stroke:#000000;stroke-width:1;stroke-linecap:butt;stroke-linejoin:round"
     inkscape:connector-curvature="0"
     id="path314"
     d="m 194.5,124.99999 c 18.49988,0 27.74774,0.0157 36.99972,0.0315 4.62598,0.008 9.253,0.0158 15.03699,0.0217 2.892,0.003 6.07327,0.005 9.68827,0.007 l 6.29077,10e-4" />
  <path
     style="fill:#000000;fill-rule:evenodd;stroke:#000000;stroke-width:1;stroke-linecap:butt"
     inkscape:connector-curvature="0"
     id="path316"
     d="m 262.51538,126.71341 4.53845,-1.65073 -4.53772,-1.65274 z" />
  <path
     style="fill:#cfe2f3;fill-rule:evenodd"
     inkscape:connector-curvature="0"
     id="path318"
     d="m 493.5,92.50131 h 151 v 65 h -151 z" />
  <path
     style="fill-rule:evenodd;stroke:#000000;stroke-width:1;stroke-linecap:butt;stroke-linejoin:round"
     inkscape:connector-curvature="0"
     id="path320"
     d="m 493.5,92.50131 h 151 v 65 h -151 z" />
  <path
     style="fill:#000000;fill-rule:nonzero"
     inkscape:connector-curvature="0"
     id="path322"
     d="m 528.42163,114.42133 q 0,-3.32813 1.78125,-5.20313 1.78125,-1.89062 4.60938,-1.89062 1.84375,0 3.32812,0.89062 1.48438,0.875 2.26563,2.46875 0.78125,1.57813 0.78125,3.57813 0,2.03125 -0.82813,3.64062 -0.8125,1.59375 -2.3125,2.42188 -1.5,0.82812 -3.25,0.82812 -1.875,0 -3.35937,-0.90625 -1.48438,-0.92187 -2.25,-2.5 -0.76563,-1.57812 -0.76563,-3.32812 z m 1.8125,0.0156 q 0,2.42188 1.29688,3.8125 1.29687,1.39063 3.26562,1.39063 2,0 3.28125,-1.40625 1.28125,-1.40625 1.28125,-3.98438 0,-1.625 -0.54687,-2.84375 -0.54688,-1.21875 -1.60938,-1.875 -1.0625,-0.67187 -2.375,-0.67187 -1.89062,0 -3.25,1.29687 -1.34375,1.28125 -1.34375,4.28125 z m 13.02704,10.1875 v -13.375 h 1.48437 v 1.25 q 0.53125,-0.73437 1.1875,-1.09375 0.67188,-0.375 1.625,-0.375 1.23438,0 2.17188,0.64063 0.95312,0.625 1.4375,1.79687 0.48437,1.15625 0.48437,2.54688 0,1.48437 -0.53125,2.67187 -0.53125,1.1875 -1.54687,1.82813 -1.01563,0.625 -2.14063,0.625 -0.8125,0 -1.46875,-0.34375 -0.65625,-0.34375 -1.0625,-0.875 v 4.70312 z m 1.48437,-8.48437 q 0,1.85937 0.75,2.76562 0.76563,0.89063 1.82813,0.89063 1.09375,0 1.875,-0.92188 0.78125,-0.9375 0.78125,-2.875 0,-1.84375 -0.76563,-2.76562 -0.75,-0.92188 -1.8125,-0.92188 -1.04687,0 -1.85937,0.98438 -0.79688,0.96875 -0.79688,2.84375 z m 15.5163,1.67187 1.6875,0.20313 q -0.40625,1.48437 -1.48438,2.3125 -1.07812,0.8125 -2.76562,0.8125 -2.125,0 -3.375,-1.29688 -1.23438,-1.3125 -1.23438,-3.67187 0,-2.45313 1.25,-3.79688 1.26563,-1.34375 3.26563,-1.34375 1.9375,0 3.15625,1.32813 1.23437,1.3125 1.23437,3.70312 0,0.15625 0,0.4375 h -7.21875 q 0.0937,1.59375 0.90625,2.45313 0.8125,0.84375 2.01563,0.84375 0.90625,0 1.54687,-0.46875 0.64063,-0.48438 1.01563,-1.51563 z m -5.39063,-2.65625 h 5.40625 q -0.10937,-1.21875 -0.625,-1.82812 -0.78125,-0.95313 -2.03125,-0.95313 -1.125,0 -1.90625,0.76563 -0.76562,0.75 -0.84375,2.01562 z m 9.14136,5.76563 v -9.67188 h 1.46875 v 1.375 q 1.0625,-1.59375 3.07813,-1.59375 0.875,0 1.60937,0.3125 0.73438,0.3125 1.09375,0.82813 0.375,0.5 0.51563,1.20312 0.0937,0.45313 0.0937,1.59375 v 5.95313 h -1.64063 v -5.89063 q 0,-1 -0.20312,-1.48437 -0.1875,-0.5 -0.67188,-0.79688 -0.48437,-0.29687 -1.14062,-0.29687 -1.04688,0 -1.8125,0.67187 -0.75,0.65625 -0.75,2.51563 v 5.28125 z m 9.98511,-4.29688 1.65625,-0.14062 q 0.125,1 0.54687,1.64062 0.4375,0.64063 1.34375,1.04688 0.92188,0.39062 2.0625,0.39062 1,0 1.78125,-0.29687 0.78125,-0.29688 1.15625,-0.8125 0.375,-0.53125 0.375,-1.15625 0,-0.625 -0.375,-1.09375 -0.35937,-0.46875 -1.1875,-0.79688 -0.54687,-0.20312 -2.39062,-0.64062 -1.82813,-0.45313 -2.5625,-0.84375 -0.96875,-0.5 -1.4375,-1.23438 -0.46875,-0.75 -0.46875,-1.67187 0,-1 0.57812,-1.875 0.57813,-0.89063 1.67188,-1.34375 1.10937,-0.45313 2.45312,-0.45313 1.48438,0 2.60938,0.48438 1.14062,0.46875 1.75,1.40625 0.60937,0.92187 0.65625,2.09375 l -1.6875,0.125 q -0.14063,-1.26563 -0.9375,-1.90625 -0.78125,-0.65625 -2.3125,-0.65625 -1.60938,0 -2.34375,0.59375 -0.73438,0.59375 -0.73438,1.42187 0,0.71875 0.53125,1.17188 0.5,0.46875 2.65625,0.96875 2.15625,0.48437 2.95313,0.84375 1.17187,0.53125 1.71875,1.35937 0.5625,0.82813 0.5625,1.90625 0,1.0625 -0.60938,2.01563 -0.60937,0.9375 -1.75,1.46875 -1.14062,0.51562 -2.57812,0.51562 -1.8125,0 -3.04688,-0.53125 -1.21875,-0.53125 -1.92187,-1.59375 -0.6875,-1.0625 -0.71875,-2.40625 z m 12.83423,4.29688 v -13.35938 h 1.64062 v 4.79688 q 1.14063,-1.32813 2.89063,-1.32813 1.07812,0 1.85937,0.42188 0.79688,0.42187 1.14063,1.17187 0.34375,0.75 0.34375,2.17188 v 6.125 h -1.64063 v -6.125 q 0,-1.23438 -0.53125,-1.79688 -0.53125,-0.5625 -1.51562,-0.5625 -0.71875,0 -1.35938,0.39063 -0.64062,0.375 -0.92187,1.01562 -0.26563,0.64063 -0.26563,1.78125 v 5.29688 z m 10.37567,-11.46875 v -1.89063 h 1.64062 v 1.89063 z m 0,11.46875 v -9.67188 h 1.64062 v 9.67188 z m 4.53546,0 v -8.40625 h -1.45313 v -1.26563 h 1.45313 v -1.03125 q 0,-0.96875 0.17187,-1.45312 0.23438,-0.64063 0.82813,-1.03125 0.59375,-0.39063 1.67187,-0.39063 0.6875,0 1.53125,0.15625 l -0.25,1.4375 q -0.5,-0.0937 -0.95312,-0.0937 -0.75,0 -1.0625,0.32813 -0.3125,0.3125 -0.3125,1.1875 v 0.89062 h 1.89062 v 1.26563 h -1.89062 v 8.40625 z m 8.37079,-1.46875 0.23437,1.45312 q -0.6875,0.14063 -1.23437,0.14063 -0.89063,0 -1.39063,-0.28125 -0.48437,-0.28125 -0.6875,-0.73438 -0.20312,-0.46875 -0.20312,-1.9375 v -5.57812 h -1.20313 v -1.26563 h 1.20313 v -2.39062 l 1.625,-0.98438 v 3.375 h 1.65625 v 1.26563 h -1.65625 v 5.67187 q 0,0.6875 0.0781,0.89063 0.0937,0.20312 0.28125,0.32812 0.20313,0.10938 0.57813,0.10938 0.26562,0 0.71875,-0.0625 z" />
  <path
     style="fill:#000000;fill-rule:nonzero"
     inkscape:connector-curvature="0"
     id="path324"
     d="m 513.9176,142.92133 v -13.35938 h 5.04687 q 1.32813,0 2.03125,0.125 0.96875,0.17188 1.64063,0.64063 0.67187,0.45312 1.07812,1.28125 0.40625,0.82812 0.40625,1.82812 0,1.70313 -1.09375,2.89063 -1.07812,1.17187 -3.92187,1.17187 h -3.42188 v 5.42188 z m 1.76562,-7 h 3.45313 q 1.71875,0 2.4375,-0.64063 0.71875,-0.64062 0.71875,-1.79687 0,-0.84375 -0.42188,-1.4375 -0.42187,-0.59375 -1.125,-0.78125 -0.4375,-0.125 -1.64062,-0.125 h -3.42188 z m 9.86548,2.15625 q 0,-2.6875 1.48438,-3.96875 1.25,-1.07813 3.04687,-1.07813 2,0 3.26563,1.3125 1.26562,1.29688 1.26562,3.60938 0,1.85937 -0.5625,2.9375 -0.5625,1.0625 -1.64062,1.65625 -1.0625,0.59375 -2.32813,0.59375 -2.03125,0 -3.28125,-1.29688 -1.25,-1.3125 -1.25,-3.76562 z m 1.6875,0 q 0,1.85937 0.79688,2.79687 0.8125,0.92188 2.04687,0.92188 1.21875,0 2.03125,-0.92188 0.8125,-0.9375 0.8125,-2.84375 0,-1.79687 -0.8125,-2.71875 -0.8125,-0.92187 -2.03125,-0.92187 -1.23437,0 -2.04687,0.92187 -0.79688,0.90625 -0.79688,2.76563 z m 9.25074,4.84375 v -13.35938 h 1.64062 v 13.35938 z m 4.19165,-11.46875 v -1.89063 h 1.64062 v 1.89063 z m 0,11.46875 v -9.67188 h 1.64062 v 9.67188 z m 10.45733,-3.54688 1.60938,0.21875 q -0.26563,1.65625 -1.35938,2.60938 -1.07812,0.9375 -2.67187,0.9375 -1.98438,0 -3.1875,-1.29688 -1.20313,-1.29687 -1.20313,-3.71875 0,-1.57812 0.51563,-2.75 0.51562,-1.17187 1.57812,-1.75 1.0625,-0.59375 2.3125,-0.59375 1.57813,0 2.57813,0.79688 1,0.79687 1.28125,2.26562 l -1.59375,0.23438 q -0.23438,-0.96875 -0.8125,-1.45313 -0.57813,-0.5 -1.39063,-0.5 -1.23437,0 -2.01562,0.89063 -0.78125,0.89062 -0.78125,2.8125 0,1.95312 0.75,2.84375 0.75,0.875 1.95312,0.875 0.96875,0 1.60938,-0.59375 0.65625,-0.59375 0.82812,-1.82813 z m 2.9375,7.26563 -0.1875,-1.53125 q 0.54688,0.14062 0.9375,0.14062 0.54688,0 0.875,-0.1875 0.32813,-0.17187 0.54688,-0.5 0.15625,-0.25 0.5,-1.21875 0.0469,-0.14062 0.14062,-0.40625 l -3.67187,-9.6875 h 1.76562 l 2.01563,5.59375 q 0.39062,1.07813 0.70312,2.25 0.28125,-1.125 0.67188,-2.20312 l 2.07812,-5.64063 h 1.64063 l -3.6875,9.82813 q -0.59375,1.60937 -0.92188,2.20312 -0.4375,0.8125 -1,1.1875 -0.5625,0.375 -1.34375,0.375 -0.48437,0 -1.0625,-0.20312 z m 14.82392,-3.71875 v -13.35938 h 9.65625 v 1.57813 h -7.875 v 4.09375 h 7.375 v 1.5625 h -7.375 v 4.54687 h 8.1875 v 1.57813 z m 12.20922,0 v -9.67188 h 1.46875 v 1.375 q 1.0625,-1.59375 3.07813,-1.59375 0.875,0 1.60937,0.3125 0.73438,0.3125 1.09375,0.82813 0.375,0.5 0.51563,1.20312 0.0937,0.45313 0.0937,1.59375 v 5.95313 h -1.64063 v -5.89063 q 0,-1 -0.20312,-1.48437 -0.1875,-0.5 -0.67188,-0.79688 -0.48437,-0.29687 -1.14062,-0.29687 -1.04688,0 -1.8125,0.67187 -0.75,0.65625 -0.75,2.51563 v 5.28125 z m 10.06324,0.79687 1.59375,0.23438 q 0.10937,0.75 0.5625,1.07812 0.60937,0.45313 1.67187,0.45313 1.14063,0 1.75,-0.45313 0.625,-0.45312 0.84375,-1.26562 0.125,-0.5 0.10938,-2.10938 -1.0625,1.26563 -2.67188,1.26563 -2,0 -3.09375,-1.4375 -1.09375,-1.4375 -1.09375,-3.45313 0,-1.39062 0.5,-2.5625 0.51563,-1.17187 1.45313,-1.79687 0.95312,-0.64063 2.25,-0.64063 1.70312,0 2.8125,1.375 v -1.15625 h 1.51562 v 8.35938 q 0,2.26562 -0.46875,3.20312 -0.45312,0.9375 -1.45312,1.48438 -0.98438,0.54687 -2.45313,0.54687 -1.71875,0 -2.79687,-0.78125 -1.0625,-0.76562 -1.03125,-2.34375 z m 1.35937,-5.8125 q 0,1.90625 0.75,2.78125 0.76563,0.875 1.90625,0.875 1.125,0 1.89063,-0.85937 0.76562,-0.875 0.76562,-2.73438 0,-1.78125 -0.79687,-2.67187 -0.78125,-0.90625 -1.89063,-0.90625 -1.09375,0 -1.85937,0.89062 -0.76563,0.875 -0.76563,2.625 z m 9.3288,-6.45312 v -1.89063 h 1.64062 v 1.89063 z m 0,11.46875 v -9.67188 h 1.64062 v 9.67188 z m 4.14483,0 v -9.67188 h 1.46875 v 1.375 q 1.0625,-1.59375 3.07813,-1.59375 0.875,0 1.60937,0.3125 0.73438,0.3125 1.09375,0.82813 0.375,0.5 0.51563,1.20312 0.0937,0.45313 0.0937,1.59375 v 5.95313 h -1.64063 v -5.89063 q 0,-1 -0.20312,-1.48437 -0.1875,-0.5 -0.67188,-0.79688 -0.48437,-0.29687 -1.14062,-0.29687 -1.04688,0 -1.8125,0.67187 -0.75,0.65625 -0.75,2.51563 v 5.28125 z m 17.00074,-3.10938 1.6875,0.20313 q -0.40625,1.48437 -1.48438,2.3125 -1.07812,0.8125 -2.76562,0.8125 -2.125,0 -3.375,-1.29688 -1.23438,-1.3125 -1.23438,-3.67187 0,-2.45313 1.25,-3.79688 1.26563,-1.34375 3.26563,-1.34375 1.9375,0 3.15625,1.32813 1.23437,1.3125 1.23437,3.70312 0,0.15625 0,0.4375 h -7.21875 q 0.0937,1.59375 0.90625,2.45313 0.8125,0.84375 2.01563,0.84375 0.90625,0 1.54687,-0.46875 0.64063,-0.48438 1.01563,-1.51563 z m -5.39063,-2.65625 h 5.40625 q -0.10937,-1.21875 -0.625,-1.82812 -0.78125,-0.95313 -2.03125,-0.95313 -1.125,0 -1.90625,0.76563 -0.76562,0.75 -0.84375,2.01562 z" />
  <path
     style="fill:#000000;fill-opacity:0;fill-rule:evenodd"
     inkscape:connector-curvature="0"
     id="path326"
     d="m 419.5,124.99999 c 18.49988,0 27.74774,0.0157 36.99976,0.0315 9.25195,0.0158 18.50799,0.0315 37.01599,0.0315" />
  <path
     style="fill-rule:evenodd;stroke:#000000;stroke-width:1;stroke-linecap:butt;stroke-linejoin:round"
     inkscape:connector-curvature="0"
     id="path328"
     d="m 419.5,124.99999 c 18.49988,0 27.74774,0.0157 36.99969,0.0315 4.62598,0.008 9.253,0.0158 15.03699,0.0217 2.89203,0.003 6.0733,0.005 9.68829,0.007 l 6.29078,10e-4" />
  <path
     style="fill:#000000;fill-rule:evenodd;stroke:#000000;stroke-width:1;stroke-linecap:butt"
     inkscape:connector-curvature="0"
     id="path330"
     d="m 487.5154,126.71341 4.53845,-1.65073 -4.53772,-1.65274 z" />
  <path
     style="fill:#efefef;fill-rule:evenodd"
     inkscape:connector-curvature="0"
     id="path332"
     d="m 309.21426,346.06644 v 0 c -2.47528,-11.77673 5.65161,-23.435 20.93219,-30.02774 15.28058,-6.59274 35.03491,-6.96374 50.88059,-0.9556 v 0 c 5.61297,-6.8475 15.88641,-11.57519 27.71276,-12.75311 11.82636,-1.17789 23.81659,1.33237 32.34388,6.77145 v 0 c 4.78155,-6.20834 14.17022,-10.37957 24.83447,-11.0335 10.66418,-0.65393 21.09467,2.302 27.59015,7.81887 v 0 c 8.63861,-6.58087 22.38281,-9.35168 35.2854,-7.11349 12.90265,2.23816 22.6463,9.08334 25.01477,17.57355 v 0 c 10.58374,1.86898 19.39978,6.6202 24.17035,13.02612 4.77051,6.40588 5.02759,13.83804 0.70477,20.37619 v 0 c 10.42194,8.78155 12.85986,20.48279 6.40405,30.73706 -6.45581,10.25427 -20.83545,17.52106 -37.7727,19.08844 -0.11939,9.62402 -8.2721,18.45489 -21.31568,23.08881 -13.04364,4.63397 -28.9414,4.34735 -41.56555,-0.74933 -5.37719,11.52642 -20.51233,20.00744 -38.86633,21.77899 -18.35406,1.77148 -36.63672,-3.48407 -46.94922,-13.49616 -12.64099,4.935 -27.80908,6.35663 -42.0827,3.94416 -14.27365,-2.41242 -26.45047,-8.45569 -33.78363,-16.76661 v 0 c -12.91748,0.97864 -25.40689,-3.35418 -31.26981,-10.84808 -5.86288,-7.4939 -3.85119,-16.55359 5.03668,-22.6828 v 0 c -11.52273,-4.39069 -17.40234,-13.10327 -14.57281,-21.59448 2.82953,-8.49115 13.72699,-14.83685 27.0098,-15.72803 z" />
  <path
     style="fill:#000000;fill-opacity:0;fill-rule:evenodd"
     inkscape:connector-curvature="0"
     id="path334"
     d="m 296.52197,383.84279 v 0 c 5.43759,2.07196 11.7193,3.01184 18.00171,2.69348 m 8.22861,30.8382 c 2.70166,-0.20471 5.34979,-0.63813 7.87613,-1.28913 m 67.98639,14.11103 c -1.90015,-1.84479 -3.49109,-3.81617 -4.74567,-5.88044 m 90.56451,-2.40277 v 0 c 0.98035,-2.10144 1.61554,-4.26428 1.89496,-6.45245 m 60.98389,-15.88623 c 0.12713,-10.24628 -8.86206,-19.62781 -23.10639,-24.11505 m 54.4748,-25.70935 c -2.30683,3.48907 -5.82849,6.58417 -10.28876,9.0426 m -14.58423,-42.44583 v 0 c 0.39307,1.40897 0.57495,2.83908 0.54321,4.27057 m -60.8424,-14.73019 v 0 c -2.15491,1.6416 -3.93024,3.47604 -5.27076,5.44626 m -47.15435,-2.23233 v 0 c -1.14838,1.49105 -2.00586,3.06884 -2.5528,4.69702 m -57.50476,1.28473 v 0 c 3.35297,1.27133 6.45483,2.80151 9.23761,4.55691 m -81.04941,26.42661 v 0 c 0.34119,1.62317 0.88022,3.22625 1.61212,4.79437" />
  <path
     style="fill-rule:evenodd;stroke:#000000;stroke-width:1;stroke-linecap:butt;stroke-linejoin:round"
     inkscape:connector-curvature="0"
     id="path336"
     d="m 309.21426,346.06644 v 0 c -2.47528,-11.77673 5.65161,-23.435 20.93219,-30.02774 15.28058,-6.59274 35.03491,-6.96374 50.88059,-0.9556 v 0 c 5.61297,-6.8475 15.88641,-11.57519 27.71276,-12.75311 11.82636,-1.17789 23.81659,1.33237 32.34388,6.77145 v 0 c 4.78155,-6.20834 14.17022,-10.37957 24.83447,-11.0335 10.66418,-0.65393 21.09467,2.302 27.59015,7.81887 v 0 c 8.63861,-6.58087 22.38281,-9.35168 35.2854,-7.11349 12.90265,2.23816 22.6463,9.08334 25.01477,17.57355 v 0 c 10.58374,1.86898 19.39978,6.6202 24.17035,13.02612 4.77051,6.40588 5.02759,13.83804 0.70477,20.37619 v 0 c 10.42194,8.78155 12.85986,20.48279 6.40405,30.73706 -6.45581,10.25427 -20.83545,17.52106 -37.7727,19.08844 -0.11939,9.62402 -8.2721,18.45489 -21.31568,23.08881 -13.04364,4.63397 -28.9414,4.34735 -41.56555,-0.74933 -5.37719,11.52642 -20.51233,20.00744 -38.86633,21.77899 -18.35406,1.77148 -36.63672,-3.48407 -46.94922,-13.49616 -12.64099,4.935 -27.80908,6.35663 -42.0827,3.94416 -14.27365,-2.41242 -26.45047,-8.45569 -33.78363,-16.76661 v 0 c -12.91748,0.97864 -25.40689,-3.35418 -31.26981,-10.84808 -5.86288,-7.4939 -3.85119,-16.55359 5.03668,-22.6828 v 0 c -11.52273,-4.39069 -17.40234,-13.10327 -14.57281,-21.59448 2.82953,-8.49115 13.72699,-14.83685 27.0098,-15.72803 z" />
  <path
     style="fill-rule:evenodd;stroke:#000000;stroke-width:1;stroke-linecap:butt;stroke-linejoin:round"
     inkscape:connector-curvature="0"
     id="path338"
     d="m 296.52197,383.84279 v 0 c 5.43759,2.07196 11.7193,3.01184 18.00171,2.69348 m 8.22861,30.8382 c 2.70166,-0.20471 5.34979,-0.63813 7.87613,-1.28913 m 67.98639,14.11103 c -1.90015,-1.84479 -3.49109,-3.81617 -4.74567,-5.88044 m 90.56451,-2.40277 v 0 c 0.98035,-2.10144 1.61554,-4.26428 1.89496,-6.45245 m 60.98389,-15.88623 c 0.12713,-10.24628 -8.86206,-19.62781 -23.10639,-24.11505 m 54.4748,-25.70935 c -2.30683,3.48907 -5.82849,6.58417 -10.28876,9.0426 m -14.58423,-42.44583 v 0 c 0.39307,1.40897 0.57495,2.83908 0.54321,4.27057 m -60.8424,-14.73019 v 0 c -2.15491,1.6416 -3.93024,3.47604 -5.27076,5.44626 m -47.15435,-2.23233 v 0 c -1.14838,1.49105 -2.00586,3.06884 -2.5528,4.69702 m -57.50476,1.28473 v 0 c 3.35297,1.27133 6.45483,2.80151 9.23761,4.55691 m -81.04941,26.42661 v 0 c 0.34119,1.62317 0.88022,3.22625 1.61212,4.79437" />
  <path
     style="fill:#000000;fill-rule:nonzero"
     inkscape:connector-curvature="0"
     id="path340"
     d="m 351.36804,367.53749 q 0,-3.32812 1.78125,-5.20312 1.78125,-1.89063 4.60937,-1.89063 1.84375,0 3.32813,0.89063 1.48437,0.875 2.26562,2.46875 0.78125,1.57812 0.78125,3.57812 0,2.03125 -0.82812,3.64063 -0.8125,1.59375 -2.3125,2.42187 -1.5,0.82813 -3.25,0.82813 -1.875,0 -3.35938,-0.90625 -1.48437,-0.92188 -2.25,-2.5 -0.76562,-1.57813 -0.76562,-3.32813 z m 1.8125,0.0156 q 0,2.42187 1.29687,3.8125 1.29688,1.39062 3.26563,1.39062 2,0 3.28125,-1.40625 1.28125,-1.40625 1.28125,-3.98437 0,-1.625 -0.54688,-2.84375 -0.54687,-1.21875 -1.60937,-1.875 -1.0625,-0.67188 -2.375,-0.67188 -1.89063,0 -3.25,1.29688 -1.34375,1.28125 -1.34375,4.28125 z m 13.02704,10.1875 v -13.375 h 1.48437 v 1.25 q 0.53125,-0.73438 1.1875,-1.09375 0.67188,-0.375 1.625,-0.375 1.23438,0 2.17188,0.64062 0.95312,0.625 1.4375,1.79688 0.48437,1.15625 0.48437,2.54687 0,1.48438 -0.53125,2.67188 -0.53125,1.1875 -1.54687,1.82812 -1.01563,0.625 -2.14063,0.625 -0.8125,0 -1.46875,-0.34375 -0.65625,-0.34375 -1.0625,-0.875 v 4.70313 z m 1.48437,-8.48438 q 0,1.85938 0.75,2.76563 0.76563,0.89062 1.82813,0.89062 1.09375,0 1.875,-0.92187 0.78125,-0.9375 0.78125,-2.875 0,-1.84375 -0.76563,-2.76563 -0.75,-0.92187 -1.8125,-0.92187 -1.04687,0 -1.85937,0.98437 -0.79688,0.96875 -0.79688,2.84375 z m 15.51636,1.67188 1.6875,0.20312 q -0.40625,1.48438 -1.48437,2.3125 -1.07813,0.8125 -2.76563,0.8125 -2.125,0 -3.375,-1.29687 -1.23437,-1.3125 -1.23437,-3.67188 0,-2.45312 1.25,-3.79687 1.26562,-1.34375 3.26562,-1.34375 1.9375,0 3.15625,1.32812 1.23438,1.3125 1.23438,3.70313 0,0.15625 0,0.4375 h -7.21875 q 0.0937,1.59375 0.90625,2.45312 0.8125,0.84375 2.01562,0.84375 0.90625,0 1.54688,-0.46875 0.64062,-0.48437 1.01562,-1.51562 z m -5.39062,-2.65625 h 5.40625 q -0.10938,-1.21875 -0.625,-1.82813 -0.78125,-0.95312 -2.03125,-0.95312 -1.125,0 -1.90625,0.76562 -0.76563,0.75 -0.84375,2.01563 z m 9.14135,5.76562 v -9.67187 h 1.46875 v 1.375 q 1.0625,-1.59375 3.07813,-1.59375 0.875,0 1.60937,0.3125 0.73438,0.3125 1.09375,0.82812 0.375,0.5 0.51563,1.20313 0.0937,0.45312 0.0937,1.59375 v 5.95312 h -1.64063 v -5.89062 q 0,-1 -0.20312,-1.48438 -0.1875,-0.5 -0.67188,-0.79687 -0.48437,-0.29688 -1.14062,-0.29688 -1.04688,0 -1.8125,0.67188 -0.75,0.65625 -0.75,2.51562 v 5.28125 z m 9.98505,-4.29687 1.65625,-0.14063 q 0.125,1 0.54687,1.64063 0.4375,0.64062 1.34375,1.04687 0.92188,0.39063 2.0625,0.39063 1,0 1.78125,-0.29688 0.78125,-0.29687 1.15625,-0.8125 0.375,-0.53125 0.375,-1.15625 0,-0.625 -0.375,-1.09375 -0.35937,-0.46875 -1.1875,-0.79687 -0.54687,-0.20313 -2.39062,-0.64063 -1.82813,-0.45312 -2.5625,-0.84375 -0.96875,-0.5 -1.4375,-1.23437 -0.46875,-0.75 -0.46875,-1.67188 0,-1 0.57812,-1.875 0.57813,-0.89062 1.67188,-1.34375 1.10937,-0.45312 2.45312,-0.45312 1.48438,0 2.60938,0.48437 1.14062,0.46875 1.75,1.40625 0.60937,0.92188 0.65625,2.09375 l -1.6875,0.125 q -0.14063,-1.26562 -0.9375,-1.90625 -0.78125,-0.65625 -2.3125,-0.65625 -1.60938,0 -2.34375,0.59375 -0.73438,0.59375 -0.73438,1.42188 0,0.71875 0.53125,1.17187 0.5,0.46875 2.65625,0.96875 2.15625,0.48438 2.95313,0.84375 1.17187,0.53125 1.71875,1.35938 0.5625,0.82812 0.5625,1.90625 0,1.0625 -0.60938,2.01562 -0.60937,0.9375 -1.75,1.46875 -1.14062,0.51563 -2.57812,0.51563 -1.8125,0 -3.04688,-0.53125 -1.21875,-0.53125 -1.92187,-1.59375 -0.6875,-1.0625 -0.71875,-2.40625 z m 12.83423,4.29687 v -13.35937 h 1.64062 v 4.79687 q 1.14063,-1.32812 2.89063,-1.32812 1.07812,0 1.85937,0.42187 0.79688,0.42188 1.14063,1.17188 0.34375,0.75 0.34375,2.17187 v 6.125 h -1.64063 v -6.125 q 0,-1.23437 -0.53125,-1.79687 -0.53125,-0.5625 -1.51562,-0.5625 -0.71875,0 -1.35938,0.39062 -0.64062,0.375 -0.92187,1.01563 -0.26563,0.64062 -0.26563,1.78125 v 5.29687 z m 10.37573,-11.46875 v -1.89062 h 1.64062 v 1.89062 z m 0,11.46875 v -9.67187 h 1.64062 v 9.67187 z m 4.5354,0 v -8.40625 h -1.45313 v -1.26562 h 1.45313 v -1.03125 q 0,-0.96875 0.17187,-1.45313 0.23438,-0.64062 0.82813,-1.03125 0.59375,-0.39062 1.67187,-0.39062 0.6875,0 1.53125,0.15625 l -0.25,1.4375 q -0.5,-0.0937 -0.95312,-0.0937 -0.75,0 -1.0625,0.32812 -0.3125,0.3125 -0.3125,1.1875 v 0.89063 h 1.89062 v 1.26562 h -1.89062 v 8.40625 z m 8.37085,-1.46875 0.23437,1.45313 q -0.6875,0.14062 -1.23437,0.14062 -0.89063,0 -1.39063,-0.28125 -0.48437,-0.28125 -0.6875,-0.73437 -0.20312,-0.46875 -0.20312,-1.9375 v -5.57813 h -1.20313 v -1.26562 h 1.20313 v -2.39063 l 1.625,-0.98437 v 3.375 h 1.65625 v 1.26562 h -1.65625 v 5.67188 q 0,0.6875 0.0781,0.89062 0.0937,0.20313 0.28125,0.32813 0.20313,0.10937 0.57813,0.10937 0.26562,0 0.71875,-0.0625 z m 16.52283,-3.21875 1.76562,0.45313 q -0.5625,2.17187 -2,3.32812 -1.4375,1.14063 -3.53125,1.14063 -2.15625,0 -3.51562,-0.875 -1.34375,-0.89063 -2.0625,-2.54688 -0.70313,-1.67187 -0.70313,-3.59375 0,-2.07812 0.79688,-3.625 0.79687,-1.5625 2.26562,-2.35937 1.48438,-0.8125 3.25,-0.8125 2,0 3.35938,1.01562 1.375,1.01563 1.90625,2.875 l -1.73438,0.40625 q -0.46875,-1.45312 -1.35937,-2.10937 -0.875,-0.67188 -2.20313,-0.67188 -1.54687,0 -2.57812,0.73438 -1.03125,0.73437 -1.45313,1.98437 -0.42187,1.23438 -0.42187,2.5625 0,1.70313 0.5,2.96875 0.5,1.26563 1.54687,1.90625 1.04688,0.625 2.26563,0.625 1.48437,0 2.51562,-0.85937 1.03125,-0.85938 1.39063,-2.54688 z m 3.69171,4.6875 v -13.35937 h 1.64062 v 13.35937 z m 10.51977,0 v -1.42187 q -1.125,1.64062 -3.0625,1.64062 -0.85937,0 -1.60937,-0.32812 -0.73438,-0.32813 -1.09375,-0.82813 -0.35938,-0.5 -0.5,-1.21875 -0.10938,-0.46875 -0.10938,-1.53125 v -5.98437 h 1.64063 v 5.35937 q 0,1.28125 0.10937,1.73438 0.15625,0.64062 0.65625,1.01562 0.5,0.375 1.23438,0.375 0.73437,0 1.375,-0.375 0.65625,-0.39062 0.92187,-1.03125 0.26563,-0.65625 0.26563,-1.89062 v -5.1875 h 1.64062 v 9.67187 z m 3.39136,-2.89062 1.625,-0.25 q 0.125,0.96875 0.75,1.5 0.625,0.51562 1.75,0.51562 1.125,0 1.67188,-0.45312 0.54687,-0.46875 0.54687,-1.09375 0,-0.54688 -0.48437,-0.875 -0.32813,-0.21875 -1.67188,-0.54688 -1.8125,-0.46875 -2.51562,-0.79687 -0.6875,-0.32813 -1.04688,-0.90625 -0.35937,-0.59375 -0.35937,-1.3125 0,-0.64063 0.29687,-1.1875 0.29688,-0.5625 0.8125,-0.92188 0.375,-0.28125 1.03125,-0.46875 0.67188,-0.20312 1.42188,-0.20312 1.14062,0 2,0.32812 0.85937,0.32813 1.26562,0.89063 0.42188,0.5625 0.57813,1.5 l -1.60938,0.21875 q -0.10937,-0.75 -0.64062,-1.17188 -0.51563,-0.42187 -1.46875,-0.42187 -1.14063,0 -1.625,0.375 -0.46875,0.375 -0.46875,0.875 0,0.3125 0.1875,0.57812 0.20312,0.26563 0.64062,0.4375 0.23438,0.0937 1.4375,0.42188 1.75,0.45312 2.4375,0.75 0.6875,0.29687 1.07813,0.85937 0.39062,0.5625 0.39062,1.40625 0,0.82813 -0.48437,1.54688 -0.46875,0.71875 -1.375,1.125 -0.90625,0.39062 -2.04688,0.39062 -1.875,0 -2.875,-0.78125 -0.98437,-0.78125 -1.25,-2.32812 z m 13.5625,1.42187 0.23438,1.45313 q -0.6875,0.14062 -1.23438,0.14062 -0.89062,0 -1.39062,-0.28125 -0.48438,-0.28125 -0.6875,-0.73437 -0.20313,-0.46875 -0.20313,-1.9375 v -5.57813 h -1.20312 v -1.26562 h 1.20312 v -2.39063 l 1.625,-0.98437 v 3.375 h 1.65625 v 1.26562 h -1.65625 v 5.67188 q 0,0.6875 0.0781,0.89062 0.0937,0.20313 0.28125,0.32813 0.20312,0.10937 0.57812,0.10937 0.26563,0 0.71875,-0.0625 z m 8.23016,-1.64062 1.6875,0.20312 q -0.40625,1.48438 -1.48437,2.3125 -1.07813,0.8125 -2.76563,0.8125 -2.125,0 -3.375,-1.29687 -1.23437,-1.3125 -1.23437,-3.67188 0,-2.45312 1.25,-3.79687 1.26562,-1.34375 3.26562,-1.34375 1.9375,0 3.15625,1.32812 1.23438,1.3125 1.23438,3.70313 0,0.15625 0,0.4375 h -7.21875 q 0.0937,1.59375 0.90625,2.45312 0.8125,0.84375 2.01562,0.84375 0.90625,0 1.54688,-0.46875 0.64062,-0.48437 1.01562,-1.51562 z m -5.39062,-2.65625 h 5.40625 q -0.10938,-1.21875 -0.625,-1.82813 -0.78125,-0.95312 -2.03125,-0.95312 -1.125,0 -1.90625,0.76562 -0.76563,0.75 -0.84375,2.01563 z m 9.12573,5.76562 v -9.67187 h 1.46875 v 1.46875 q 0.5625,-1.03125 1.03125,-1.35938 0.48438,-0.32812 1.0625,-0.32812 0.82813,0 1.6875,0.53125 l -0.5625,1.51562 q -0.60937,-0.35937 -1.20312,-0.35937 -0.54688,0 -0.96875,0.32812 -0.42188,0.32813 -0.60938,0.89063 -0.28125,0.875 -0.28125,1.92187 v 5.0625 z" />
  <path
     style="fill:#000000;fill-opacity:0;fill-rule:evenodd"
     inkscape:connector-curvature="0"
     id="path342"
     d="m 97.5,163.49999 c 0,33.61954 84.37796,49.44382 168.75592,67.2391 84.37793,17.79526 168.75592,37.56156 168.75592,75.12311" />
  <path
     style="fill-rule:evenodd;stroke:#000000;stroke-width:1;stroke-linecap:butt;stroke-linejoin:round"
     inkscape:connector-curvature="0"
     id="path344"
     d="m 97.5,163.49999 c 0,33.61954 84.37796,49.44382 168.75592,67.2391 42.18896,8.89762 84.37793,18.288 116.01965,30.14918 15.82086,5.93063 29.00494,12.47888 38.23376,19.89212 4.61445,3.7066 8.24006,7.62945 10.71204,11.79943 1.23602,2.08502 2.18366,4.23181 2.82221,6.44425 0.0798,0.27658 0.15484,0.55414 0.22497,0.83276 l 0.0122,0.0501" />
  <path
     style="fill:#000000;fill-rule:evenodd;stroke:#000000;stroke-width:1;stroke-linecap:butt"
     inkscape:connector-curvature="0"
     id="path346"
     d="m 432.6413,300.10819 2.19238,4.30301 1.08643,-4.70554 z" />
  <path
     style="fill:#000000;fill-opacity:0;fill-rule:evenodd"
     inkscape:connector-curvature="0"
     id="path348"
     d="m 569,157.50131 c 0,35.11954 -33.49603,51.69577 -66.99213,70.23907 -33.49603,18.54331 -66.99213,39.05368 -66.99213,78.10739" />
  <path
     style="fill-rule:evenodd;stroke:#000000;stroke-width:1;stroke-linecap:butt;stroke-linejoin:round"
     inkscape:connector-curvature="0"
     id="path350"
     d="m 569,157.50131 c 0,35.11954 -33.49603,51.69577 -66.99213,70.2391 -16.74805,9.27164 -33.49603,19.03507 -46.05707,31.36228 -6.28052,6.16363 -11.51428,12.96817 -15.17792,20.6727 -1.83184,3.85223 -3.27105,7.9295 -4.25244,12.2641 -0.49066,2.16729 -0.86682,4.39895 -1.12036,6.69897 -0.0317,0.28751 -0.0615,0.57608 -0.0893,0.86569 l -0.0222,0.24982" />
  <path
     style="fill:#000000;fill-rule:evenodd;stroke:#000000;stroke-width:1;stroke-linecap:butt"
     inkscape:connector-curvature="0"
     id="path352"
     d="m 433.63855,299.77887 1.44366,4.60852 1.85639,-4.45831 z" />
  <path
     style="fill:#000000;fill-opacity:0;fill-rule:evenodd"
     inkscape:connector-curvature="0"
     id="path354"
     d="m 588.24634,370.50039 c 102.8819,0 205.76373,-106.48816 205.76373,-212.97635" />
  <path
     style="fill-rule:evenodd;stroke:#000000;stroke-width:1;stroke-linecap:butt;stroke-linejoin:round"
     inkscape:connector-curvature="0"
     id="path356"
     d="m 588.24634,370.50039 c 51.44092,0 102.88184,-26.62204 141.46259,-66.55511 19.29034,-19.96653 35.36566,-43.26081 46.61835,-68.219 5.62628,-12.47906 10.04705,-25.37414 13.06115,-38.4772 1.50708,-6.55148 2.66254,-13.155 3.44117,-19.78452 0.38934,-3.31476 0.68444,-6.63601 0.8822,-9.96051 0.0494,-0.83114 0.0928,-1.66247 0.13006,-2.49395 0.0186,-0.41575 0.0357,-0.83152 0.0513,-1.24732 l 0.008,-0.23975" />
  <path
     style="fill:#000000;fill-rule:evenodd;stroke:#000000;stroke-width:1;stroke-linecap:butt"
     inkscape:connector-curvature="0"
     id="path358"
     d="m 795.5527,163.55301 -1.56909,-4.56732 -1.73383,4.50738 z" />
  <path
     style="fill:#000000;fill-opacity:0;fill-rule:evenodd"
     inkscape:connector-curvature="0"
     id="path360"
     d="m 487.0025,168.49869 h 68 v 32.78741 h -68 z" />
  <path
     style="fill:#000000;fill-rule:nonzero"
     inkscape:connector-curvature="0"
     id="path362"
     d="m 506.79474,180.75179 h 1.26563 v 5.51563 q 0,1.4375 -0.32813,2.29687 -0.3125,0.84375 -1.17187,1.375 -0.84375,0.51563 -2.21875,0.51563 -1.34375,0 -2.20313,-0.45313 -0.84375,-0.46875 -1.21875,-1.34375 -0.35937,-0.875 -0.35937,-2.39062 v -5.51563 h 1.26562 v 5.51563 q 0,1.23437 0.21875,1.82812 0.23438,0.59375 0.79688,0.92188 0.5625,0.3125 1.39062,0.3125 1.39063,0 1.96875,-0.625 0.59375,-0.64063 0.59375,-2.4375 z m 3.21893,12.20313 v -9.5625 h 1.07813 v 0.89062 q 0.375,-0.53125 0.84375,-0.78125 0.48437,-0.26562 1.15625,-0.26562 0.875,0 1.54687,0.45312 0.6875,0.45313 1.03125,1.28125 0.34375,0.82813 0.34375,1.82813 0,1.04687 -0.375,1.90625 -0.375,0.84375 -1.10937,1.29687 -0.71875,0.45313 -1.53125,0.45313 -0.57813,0 -1.04688,-0.25 -0.46875,-0.25 -0.76562,-0.625 v 3.375 z m 1.0625,-6.07813 q 0,1.34375 0.53125,1.98438 0.54688,0.625 1.3125,0.625 0.78125,0 1.34375,-0.65625 0.5625,-0.65625 0.5625,-2.04688 0,-1.3125 -0.54687,-1.96875 -0.54688,-0.67187 -1.29688,-0.67187 -0.75,0 -1.32812,0.70312 -0.57813,0.70313 -0.57813,2.03125 z m 10.83435,3.42188 v -0.875 q -0.65625,1.03125 -1.9375,1.03125 -0.8125,0 -1.51562,-0.45313 -0.6875,-0.45312 -1.07813,-1.26562 -0.375,-0.82813 -0.375,-1.89063 0,-1.03125 0.34375,-1.875 0.34375,-0.84375 1.03125,-1.28125 0.70313,-0.45312 1.54688,-0.45312 0.625,0 1.10937,0.26562 0.5,0.25 0.79688,0.67188 v -3.42188 h 1.17187 v 9.54688 z m -3.70312,-3.45313 q 0,1.32813 0.5625,1.98438 0.5625,0.65625 1.32812,0.65625 0.76563,0 1.29688,-0.625 0.53125,-0.625 0.53125,-1.90625 0,-1.42188 -0.54688,-2.07813 -0.54687,-0.67187 -1.34375,-0.67187 -0.78125,0 -1.3125,0.64062 -0.51562,0.625 -0.51562,2 z m 11.14685,2.59375 q -0.65625,0.5625 -1.26563,0.79688 -0.59375,0.21875 -1.28125,0.21875 -1.14062,0 -1.75,-0.54688 -0.60937,-0.5625 -0.60937,-1.4375 0,-0.5 0.21875,-0.92187 0.23437,-0.42188 0.60937,-0.67188 0.375,-0.25 0.84375,-0.39062 0.34375,-0.0781 1.04688,-0.17188 1.42187,-0.17187 2.09375,-0.40625 0,-0.23437 0,-0.29687 0,-0.71875 -0.32813,-1.01563 -0.45312,-0.39062 -1.34375,-0.39062 -0.8125,0 -1.21875,0.29687 -0.39062,0.28125 -0.57812,1.01563 l -1.14063,-0.15625 q 0.15625,-0.73438 0.51563,-1.1875 0.35937,-0.45313 1.03125,-0.6875 0.67187,-0.25 1.5625,-0.25 0.89062,0 1.4375,0.20312 0.5625,0.20313 0.8125,0.53125 0.26562,0.3125 0.375,0.79688 0.0469,0.29687 0.0469,1.07812 v 1.5625 q 0,1.625 0.0781,2.0625 0.0781,0.4375 0.29687,0.82813 h -1.21875 q -0.1875,-0.35938 -0.23437,-0.85938 z m -0.0937,-2.60937 q -0.64063,0.26562 -1.92188,0.4375 -0.71875,0.10937 -1.01562,0.25 -0.29688,0.125 -0.46875,0.375 -0.15625,0.25 -0.15625,0.54687 0,0.46875 0.34375,0.78125 0.35937,0.3125 1.04687,0.3125 0.67188,0 1.20313,-0.29687 0.53125,-0.29688 0.78125,-0.8125 0.1875,-0.39063 0.1875,-1.17188 z m 5.5531,2.42187 0.17188,1.03125 q -0.5,0.10938 -0.89063,0.10938 -0.64062,0 -1,-0.20313 -0.34375,-0.20312 -0.48437,-0.53125 -0.14063,-0.32812 -0.14063,-1.39062 v -3.96875 h -0.85937 v -0.90625 h 0.85937 v -1.71875 l 1.17188,-0.70313 v 2.42188 h 1.17187 v 0.90625 h -1.17187 v 4.04687 q 0,0.5 0.0469,0.64063 0.0625,0.14062 0.20313,0.23437 0.14062,0.0781 0.40625,0.0781 0.20312,0 0.51562,-0.0469 z m 5.87488,-1.17187 1.20312,0.14062 q -0.28125,1.0625 -1.0625,1.65625 -0.76562,0.57813 -1.96875,0.57813 -1.51562,0 -2.40625,-0.9375 -0.89062,-0.9375 -0.89062,-2.60938 0,-1.75 0.89062,-2.70312 0.90625,-0.96875 2.34375,-0.96875 1.39063,0 2.26563,0.9375 0.875,0.9375 0.875,2.65625 0,0.10937 0,0.3125 h -5.15625 q 0.0625,1.14062 0.64062,1.75 0.57813,0.59375 1.4375,0.59375 0.65625,0 1.10938,-0.32813 0.45312,-0.34375 0.71875,-1.07812 z m -3.84375,-1.90625 h 3.85937 q -0.0781,-0.85938 -0.4375,-1.29688 -0.5625,-0.6875 -1.45312,-0.6875 -0.8125,0 -1.35938,0.54688 -0.54687,0.53125 -0.60937,1.4375 z" />
  <path
     style="fill:#000000;fill-opacity:0;fill-rule:evenodd"
     inkscape:connector-curvature="0"
     id="path364"
     d="m 701.00134,207.28086 h 83.49603 v 32.78738 h -83.49603 z" />
  <path
     style="fill:#000000;fill-rule:nonzero"
     inkscape:connector-curvature="0"
     id="path366"
     d="m 716.5786,229.08084 v -8.42187 h -3.14062 v -1.125 h 7.5625 v 1.125 h -3.15625 v 8.42187 z m 10.29761,-2.21875 1.20312,0.14063 q -0.28125,1.0625 -1.0625,1.65625 -0.76562,0.57812 -1.96875,0.57812 -1.51562,0 -2.40625,-0.9375 -0.89062,-0.9375 -0.89062,-2.60937 0,-1.75 0.89062,-2.70313 0.90625,-0.96875 2.34375,-0.96875 1.39063,0 2.26563,0.9375 0.875,0.9375 0.875,2.65625 0,0.10938 0,0.3125 h -5.15625 q 0.0625,1.14063 0.64062,1.75 0.57813,0.59375 1.4375,0.59375 0.65625,0 1.10938,-0.32812 0.45312,-0.34375 0.71875,-1.07813 z m -3.84375,-1.90625 h 3.85937 q -0.0781,-0.85937 -0.4375,-1.29687 -0.5625,-0.6875 -1.45312,-0.6875 -0.8125,0 -1.35938,0.54687 -0.54687,0.53125 -0.60937,1.4375 z m 6.50622,4.125 v -9.54687 h 1.17188 v 9.54687 z m 7.71106,-2.21875 1.20313,0.14063 q -0.28125,1.0625 -1.0625,1.65625 -0.76563,0.57812 -1.96875,0.57812 -1.51563,0 -2.40625,-0.9375 -0.89063,-0.9375 -0.89063,-2.60937 0,-1.75 0.89063,-2.70313 0.90625,-0.96875 2.34375,-0.96875 1.39062,0 2.26562,0.9375 0.875,0.9375 0.875,2.65625 0,0.10938 0,0.3125 h -5.15625 q 0.0625,1.14063 0.64063,1.75 0.57812,0.59375 1.4375,0.59375 0.65625,0 1.10937,-0.32812 0.45313,-0.34375 0.71875,-1.07813 z m -3.84375,-1.90625 h 3.85938 q -0.0781,-0.85937 -0.4375,-1.29687 -0.5625,-0.6875 -1.45313,-0.6875 -0.8125,0 -1.35937,0.54687 -0.54688,0.53125 -0.60938,1.4375 z m 6.52185,4.125 v -6.90625 h 1.04688 v 0.96875 q 0.32812,-0.51562 0.85937,-0.8125 0.54688,-0.3125 1.23438,-0.3125 0.78125,0 1.26562,0.3125 0.48438,0.3125 0.6875,0.89063 0.82813,-1.20313 2.14063,-1.20313 1.03125,0 1.57812,0.57813 0.5625,0.5625 0.5625,1.73437 v 4.75 h -1.17187 v -4.35937 q 0,-0.70313 -0.125,-1 -0.10938,-0.3125 -0.40625,-0.5 -0.29688,-0.1875 -0.70313,-0.1875 -0.71875,0 -1.20312,0.48437 -0.48438,0.48438 -0.48438,1.54688 v 4.01562 h -1.17187 v -4.48437 q 0,-0.78125 -0.29688,-1.17188 -0.28125,-0.39062 -0.92187,-0.39062 -0.5,0 -0.92188,0.26562 -0.42187,0.25 -0.60937,0.75 -0.1875,0.5 -0.1875,1.45313 v 3.57812 z m 15.83686,-2.21875 1.20312,0.14063 q -0.28125,1.0625 -1.0625,1.65625 -0.76562,0.57812 -1.96875,0.57812 -1.51562,0 -2.40625,-0.9375 -0.89062,-0.9375 -0.89062,-2.60937 0,-1.75 0.89062,-2.70313 0.90625,-0.96875 2.34375,-0.96875 1.39063,0 2.26563,0.9375 0.875,0.9375 0.875,2.65625 0,0.10938 0,0.3125 h -5.15625 q 0.0625,1.14063 0.64062,1.75 0.57813,0.59375 1.4375,0.59375 0.65625,0 1.10938,-0.32812 0.45312,-0.34375 0.71875,-1.07813 z m -3.84375,-1.90625 h 3.85937 q -0.0781,-0.85937 -0.4375,-1.29687 -0.5625,-0.6875 -1.45312,-0.6875 -0.8125,0 -1.35938,0.54687 -0.54687,0.53125 -0.60937,1.4375 z m 9.08435,3.07813 0.17187,1.03125 q -0.5,0.10937 -0.89062,0.10937 -0.64063,0 -1,-0.20312 -0.34375,-0.20313 -0.48438,-0.53125 -0.14062,-0.32813 -0.14062,-1.39063 v -3.96875 h -0.85938 v -0.90625 h 0.85938 v -1.71875 l 1.17187,-0.70312 v 2.42187 h 1.17188 v 0.90625 h -1.17188 v 4.04688 q 0,0.5 0.0469,0.64062 0.0625,0.14063 0.20312,0.23438 0.14063,0.0781 0.40625,0.0781 0.20313,0 0.51563,-0.0469 z m 1.12481,1.04687 v -6.90625 h 1.0625 v 1.04688 q 0.40625,-0.73438 0.73438,-0.96875 0.34375,-0.23438 0.76562,-0.23438 0.59375,0 1.20313,0.375 l -0.40625,1.07813 q -0.4375,-0.25 -0.85938,-0.25 -0.39062,0 -0.70312,0.23437 -0.29688,0.23438 -0.42188,0.64063 -0.20312,0.625 -0.20312,1.35937 v 3.625 z m 4.40717,2.65625 -0.125,-1.09375 q 0.375,0.10938 0.65625,0.10938 0.39062,0 0.625,-0.14063 0.23437,-0.125 0.39062,-0.35937 0.10938,-0.17188 0.35938,-0.875 0.0312,-0.0937 0.10937,-0.28125 l -2.625,-6.92188 h 1.26563 l 1.4375,4 q 0.28125,0.76563 0.5,1.59375 0.20312,-0.79687 0.46875,-1.57812 l 1.48437,-4.01563 h 1.17188 l -2.625,7.01563 q -0.42188,1.14062 -0.65625,1.57812 -0.3125,0.57813 -0.71875,0.84375 -0.40625,0.28125 -0.96875,0.28125 -0.32813,0 -0.75,-0.15625 z" />
  <path
     style="fill:#cfe2f3;fill-rule:evenodd"
     inkscape:connector-curvature="0"
     id="path368"
     d="m 718.5,92.53149 h 151 v 65 h -151 z" />
  <path
     style="fill-rule:evenodd;stroke:#000000;stroke-width:1;stroke-linecap:butt;stroke-linejoin:round"
     inkscape:connector-curvature="0"
     id="path370"
     d="m 718.5,92.53149 h 151 v 65 h -151 z" />
  <path
     style="fill:#000000;fill-rule:nonzero"
     inkscape:connector-curvature="0"
     id="path372"
     d="m 745.144,131.95151 v -13.35938 h 5.04687 q 1.32813,0 2.03125,0.125 0.96875,0.17188 1.64063,0.64063 0.67187,0.45312 1.07812,1.28125 0.40625,0.82812 0.40625,1.82812 0,1.70313 -1.09375,2.89063 -1.07812,1.17187 -3.92187,1.17187 h -3.42188 v 5.42188 z m 1.76562,-7 h 3.45313 q 1.71875,0 2.4375,-0.64063 0.71875,-0.64062 0.71875,-1.79687 0,-0.84375 -0.42188,-1.4375 -0.42187,-0.59375 -1.125,-0.78125 -0.4375,-0.125 -1.64062,-0.125 h -3.42188 z m 10.45917,7 v -9.67188 h 1.46875 v 1.46875 q 0.5625,-1.03125 1.03125,-1.35937 0.48438,-0.32813 1.0625,-0.32813 0.82813,0 1.6875,0.53125 l -0.5625,1.51563 q -0.60937,-0.35938 -1.20312,-0.35938 -0.54688,0 -0.96875,0.32813 -0.42188,0.32812 -0.60938,0.89062 -0.28125,0.875 -0.28125,1.92188 v 5.0625 z m 5.61896,-4.84375 q 0,-2.6875 1.48437,-3.96875 1.25,-1.07813 3.04688,-1.07813 2,0 3.26562,1.3125 1.26563,1.29688 1.26563,3.60938 0,1.85937 -0.5625,2.9375 -0.5625,1.0625 -1.64063,1.65625 -1.0625,0.59375 -2.32812,0.59375 -2.03125,0 -3.28125,-1.29688 -1.25,-1.3125 -1.25,-3.76562 z m 1.6875,0 q 0,1.85937 0.79687,2.79687 0.8125,0.92188 2.04688,0.92188 1.21875,0 2.03125,-0.92188 0.8125,-0.9375 0.8125,-2.84375 0,-1.79687 -0.8125,-2.71875 -0.8125,-0.92187 -2.03125,-0.92187 -1.23438,0 -2.04688,0.92187 -0.79687,0.90625 -0.79687,2.76563 z m 9.29755,4.84375 v -9.67188 h 1.46875 v 1.35938 q 0.45312,-0.71875 1.20312,-1.14063 0.76563,-0.4375 1.71875,-0.4375 1.07813,0 1.76563,0.45313 0.6875,0.4375 0.96875,1.23437 1.15625,-1.6875 2.98437,-1.6875 1.45313,0 2.21875,0.79688 0.78125,0.79687 0.78125,2.45312 v 6.64063 h -1.64062 v -6.09375 q 0,-0.98438 -0.15625,-1.40625 -0.15625,-0.4375 -0.57813,-0.70313 -0.42187,-0.26562 -0.98437,-0.26562 -1.01563,0 -1.6875,0.6875 -0.67188,0.67187 -0.67188,2.15625 v 5.625 h -1.64062 v -6.28125 q 0,-1.09375 -0.40625,-1.64063 -0.40625,-0.54687 -1.3125,-0.54687 -0.6875,0 -1.28125,0.35937 -0.59375,0.35938 -0.85938,1.0625 -0.25,0.70313 -0.25,2.03125 v 5.01563 z m 22.16583,-3.10938 1.6875,0.20313 q -0.40625,1.48437 -1.48438,2.3125 -1.07812,0.8125 -2.76562,0.8125 -2.125,0 -3.375,-1.29688 -1.23438,-1.3125 -1.23438,-3.67187 0,-2.45313 1.25,-3.79688 1.26563,-1.34375 3.26563,-1.34375 1.9375,0 3.15625,1.32813 1.23437,1.3125 1.23437,3.70312 0,0.15625 0,0.4375 h -7.21875 q 0.0937,1.59375 0.90625,2.45313 0.8125,0.84375 2.01563,0.84375 0.90625,0 1.54687,-0.46875 0.64063,-0.48438 1.01563,-1.51563 z m -5.39063,-2.65625 h 5.40625 q -0.10937,-1.21875 -0.625,-1.82812 -0.78125,-0.95313 -2.03125,-0.95313 -1.125,0 -1.90625,0.76563 -0.76562,0.75 -0.84375,2.01562 z m 12.71949,4.29688 0.23437,1.45312 q -0.6875,0.14063 -1.23437,0.14063 -0.89063,0 -1.39063,-0.28125 -0.48437,-0.28125 -0.6875,-0.73438 -0.20312,-0.46875 -0.20312,-1.9375 v -5.57812 h -1.20313 v -1.26563 h 1.20313 v -2.39062 l 1.625,-0.98438 v 3.375 h 1.65625 v 1.26563 h -1.65625 v 5.67187 q 0,0.6875 0.0781,0.89063 0.0937,0.20312 0.28125,0.32812 0.20313,0.10938 0.57813,0.10938 0.26562,0 0.71875,-0.0625 z m 1.60516,1.46875 v -13.35938 h 1.64062 v 4.79688 q 1.14063,-1.32813 2.89063,-1.32813 1.07812,0 1.85937,0.42188 0.79688,0.42187 1.14063,1.17187 0.34375,0.75 0.34375,2.17188 v 6.125 h -1.64063 v -6.125 q 0,-1.23438 -0.53125,-1.79688 -0.53125,-0.5625 -1.51562,-0.5625 -0.71875,0 -1.35938,0.39063 -0.64062,0.375 -0.92187,1.01562 -0.26563,0.64063 -0.26563,1.78125 v 5.29688 z m 17.00073,-3.10938 1.6875,0.20313 q -0.40625,1.48437 -1.48437,2.3125 -1.07813,0.8125 -2.76563,0.8125 -2.125,0 -3.375,-1.29688 -1.23437,-1.3125 -1.23437,-3.67187 0,-2.45313 1.25,-3.79688 1.26562,-1.34375 3.26562,-1.34375 1.9375,0 3.15625,1.32813 1.23438,1.3125 1.23438,3.70312 0,0.15625 0,0.4375 h -7.21875 q 0.0937,1.59375 0.90625,2.45313 0.8125,0.84375 2.01562,0.84375 0.90625,0 1.54688,-0.46875 0.64062,-0.48438 1.01562,-1.51563 z m -5.39062,-2.65625 h 5.40625 q -0.10938,-1.21875 -0.625,-1.82812 -0.78125,-0.95313 -2.03125,-0.95313 -1.125,0 -1.90625,0.76563 -0.76563,0.75 -0.84375,2.01562 z m 15.46948,5.76563 v -1.42188 q -1.125,1.64063 -3.0625,1.64063 -0.85938,0 -1.60938,-0.32813 -0.73437,-0.32812 -1.09375,-0.82812 -0.35937,-0.5 -0.5,-1.21875 -0.10937,-0.46875 -0.10937,-1.53125 v -5.98438 h 1.64062 v 5.35938 q 0,1.28125 0.10938,1.73437 0.15625,0.64063 0.65625,1.01563 0.5,0.375 1.23437,0.375 0.73438,0 1.375,-0.375 0.65625,-0.39063 0.92188,-1.03125 0.26562,-0.65625 0.26562,-1.89063 v -5.1875 h 1.64063 v 9.67188 z m 3.39129,-2.89063 1.625,-0.25 q 0.125,0.96875 0.75,1.5 0.625,0.51563 1.75,0.51563 1.125,0 1.67188,-0.45313 0.54687,-0.46875 0.54687,-1.09375 0,-0.54687 -0.48437,-0.875 -0.32813,-0.21875 -1.67188,-0.54687 -1.8125,-0.46875 -2.51562,-0.79688 -0.6875,-0.32812 -1.04688,-0.90625 -0.35937,-0.59375 -0.35937,-1.3125 0,-0.64062 0.29687,-1.1875 0.29688,-0.5625 0.8125,-0.92187 0.375,-0.28125 1.03125,-0.46875 0.67188,-0.20313 1.42188,-0.20313 1.14062,0 2,0.32813 0.85937,0.32812 1.26562,0.89062 0.42188,0.5625 0.57813,1.5 l -1.60938,0.21875 q -0.10937,-0.75 -0.64062,-1.17187 -0.51563,-0.42188 -1.46875,-0.42188 -1.14063,0 -1.625,0.375 -0.46875,0.375 -0.46875,0.875 0,0.3125 0.1875,0.57813 0.20312,0.26562 0.64062,0.4375 0.23438,0.0937 1.4375,0.42187 1.75,0.45313 2.4375,0.75 0.6875,0.29688 1.07813,0.85938 0.39062,0.5625 0.39062,1.40625 0,0.82812 -0.48437,1.54687 -0.46875,0.71875 -1.375,1.125 -0.90625,0.39063 -2.04688,0.39063 -1.875,0 -2.875,-0.78125 -0.98437,-0.78125 -1.25,-2.32813 z" />
  <path
     style="fill:#000000;fill-opacity:0;fill-rule:evenodd"
     inkscape:connector-curvature="0"
     id="path374"
     d="m 718.5,125.03149 c -18.492,0 -27.73596,0.0157 -36.98401,0.0315 -9.24799,0.0157 -18.50012,0.0315 -37.00024,0.0315" />
  <path
     style="fill-rule:evenodd;stroke:#000000;stroke-width:1;stroke-linecap:butt;stroke-linejoin:round"
     inkscape:connector-curvature="0"
     id="path376"
     d="m 718.5,125.03149 c -18.49194,0 -27.73596,0.0157 -36.98401,0.0315 -4.62402,0.008 -9.24902,0.0157 -15.03058,0.0217 -2.89075,0.003 -6.07062,0.005 -9.68414,0.007 l -6.28552,0.001" />
  <path
     style="fill:#000000;fill-rule:evenodd;stroke:#000000;stroke-width:1;stroke-linecap:butt"
     inkscape:connector-curvature="0"
     id="path378"
     d="m 650.5154,123.44144 -4.53772,1.65274 4.53845,1.65073 z" />
  <path
     style="fill:#cfe2f3;fill-rule:evenodd"
     inkscape:connector-curvature="0"
     id="path380"
     d="m 718.5,0.5 h 151 v 65 h -151 z" />
  <path
     style="fill-rule:evenodd;stroke:#000000;stroke-width:1;stroke-linecap:butt;stroke-linejoin:round"
     inkscape:connector-curvature="0"
     id="path382"
     d="m 718.5,0.5 h 151 v 65 h -151 z" />
  <path
     style="fill:#000000;fill-rule:nonzero"
     inkscape:connector-curvature="0"
     id="path384"
     d="M 760.47,39.92 V 28.13875 h -4.40625 v -1.57813 h 10.57813 v 1.57813 h -4.40625 V 39.92 Z m 7.17725,-4.84375 q 0,-2.6875 1.48437,-3.96875 1.25,-1.07813 3.04688,-1.07813 2,0 3.26562,1.3125 1.26563,1.29688 1.26563,3.60938 0,1.85937 -0.5625,2.9375 -0.5625,1.0625 -1.64063,1.65625 -1.0625,0.59375 -2.32812,0.59375 -2.03125,0 -3.28125,-1.29688 -1.25,-1.3125 -1.25,-3.76562 z m 1.6875,0 q 0,1.85937 0.79687,2.79687 0.8125,0.92188 2.04688,0.92188 1.21875,0 2.03125,-0.92188 0.8125,-0.9375 0.8125,-2.84375 0,-1.79687 -0.8125,-2.71875 -0.8125,-0.92187 -2.03125,-0.92187 -1.23438,0 -2.04688,0.92187 -0.79687,0.90625 -0.79687,2.76563 z M 778.58548,39.92 V 26.56062 h 1.64062 V 39.92 Z m 4.14483,0 V 26.56062 h 1.64063 V 39.92 Z m 5.69165,0 h -1.51562 V 26.56062 h 1.64062 v 4.76563 q 1.04688,-1.29688 2.65625,-1.29688 0.89063,0 1.6875,0.35938 0.79688,0.35937 1.3125,1.01562 0.51563,0.64063 0.79688,1.5625 0.29687,0.92188 0.29687,1.96875 0,2.48438 -1.23437,3.84375 -1.21875,1.35938 -2.95313,1.35938 -1.70312,0 -2.6875,-1.4375 z m -0.0156,-4.90625 q 0,1.73437 0.48437,2.51562 0.76563,1.26563 2.09375,1.26563 1.07813,0 1.85938,-0.9375 0.78125,-0.9375 0.78125,-2.78125 0,-1.89063 -0.75,-2.79688 -0.75,-0.90625 -1.82813,-0.90625 -1.0625,0 -1.85937,0.9375 -0.78125,0.9375 -0.78125,2.70313 z m 8.28198,0.0625 q 0,-2.6875 1.48438,-3.96875 1.25,-1.07813 3.04687,-1.07813 2,0 3.26563,1.3125 1.26562,1.29688 1.26562,3.60938 0,1.85937 -0.5625,2.9375 -0.5625,1.0625 -1.64062,1.65625 -1.0625,0.59375 -2.32813,0.59375 -2.03125,0 -3.28125,-1.29688 -1.25,-1.3125 -1.25,-3.76562 z m 1.6875,0 q 0,1.85937 0.79688,2.79687 0.8125,0.92188 2.04687,0.92188 1.21875,0 2.03125,-0.92188 0.8125,-0.9375 0.8125,-2.84375 0,-1.79687 -0.8125,-2.71875 -0.8125,-0.92187 -2.03125,-0.92187 -1.23437,0 -2.04687,0.92187 -0.79688,0.90625 -0.79688,2.76563 z m 8.68823,0 q 0,-2.6875 1.48438,-3.96875 1.25,-1.07813 3.04687,-1.07813 2,0 3.26563,1.3125 1.26562,1.29688 1.26562,3.60938 0,1.85937 -0.5625,2.9375 -0.5625,1.0625 -1.64062,1.65625 -1.0625,0.59375 -2.32813,0.59375 -2.03125,0 -3.28125,-1.29688 -1.25,-1.3125 -1.25,-3.76562 z m 1.6875,0 q 0,1.85937 0.79688,2.79687 0.8125,0.92188 2.04687,0.92188 1.21875,0 2.03125,-0.92188 0.8125,-0.9375 0.8125,-2.84375 0,-1.79687 -0.8125,-2.71875 -0.8125,-0.92187 -2.03125,-0.92187 -1.23437,0 -2.04687,0.92187 -0.79688,0.90625 -0.79688,2.76563 z m 12.87574,3.375 0.23437,1.45312 q -0.6875,0.14063 -1.23437,0.14063 -0.89063,0 -1.39063,-0.28125 -0.48437,-0.28125 -0.6875,-0.73438 -0.20312,-0.46875 -0.20312,-1.9375 v -5.57812 h -1.20313 v -1.26563 h 1.20313 V 27.8575 l 1.625,-0.98438 v 3.375 h 1.65625 v 1.26563 h -1.65625 v 5.67187 q 0,0.6875 0.0781,0.89063 0.0937,0.20312 0.28125,0.32812 0.20313,0.10938 0.57813,0.10938 0.26562,0 0.71875,-0.0625 z M 823.23247,39.92 V 26.56062 h 1.64062 v 4.79688 q 1.14063,-1.32813 2.89063,-1.32813 1.07812,0 1.85937,0.42188 0.79688,0.42187 1.14063,1.17187 0.34375,0.75 0.34375,2.17188 v 6.125 h -1.64063 v -6.125 q 0,-1.23438 -0.53125,-1.79688 -0.53125,-0.5625 -1.51562,-0.5625 -0.71875,0 -1.35938,0.39063 -0.64062,0.375 -0.92187,1.01562 -0.26563,0.64063 -0.26563,1.78125 V 39.92 Z" />
  <path
     style="fill:#000000;fill-opacity:0;fill-rule:evenodd"
     inkscape:connector-curvature="0"
     id="path386"
     d="m 718.5,33 c -18.492,0 -27.73596,23 -36.98401,46 -9.24799,23 -18.50012,46 -37.00024,46" />
  <path
     style="fill-rule:evenodd;stroke:#000000;stroke-width:1;stroke-linecap:butt;stroke-linejoin:round"
     inkscape:connector-curvature="0"
     id="path388"
     d="m 718.5,33 c -18.49194,0 -27.73596,23 -36.98401,46 -4.62402,11.5 -9.24902,23 -15.03058,31.625 -2.89075,4.3125 -6.07062,7.90625 -9.68414,10.42187 -1.8067,1.25782 -3.72186,2.2461 -5.76337,2.91993 -0.12762,0.0421 -0.25574,0.083 -0.38434,0.12265 l -0.19848,0.0591" />
  <path
     style="fill:#000000;fill-rule:evenodd;stroke:#000000;stroke-width:1;stroke-linecap:butt"
     inkscape:connector-curvature="0"
     id="path390"
     d="m 650.22064,122.51349 -4.25781,2.27905 4.72662,0.991 z" />
</svg>
